<svg xmlns="http://www.w3.org/2000/svg" width="714" height="795" viewBox="0 0 714 795">
  <g fill="none" transform="translate(0 -1)">
    <g fill="#F9C74F" transform="translate(645 326)">
      <circle cx="34" cy="34.95" r="34" fill-opacity=".7" stroke="#F9C74F" stroke-width="2"/>
      <circle cx="34" cy="34.95" r="25.5"/>
    </g>
    <g fill="#F9C74F" transform="translate(645 228)">
      <circle cx="34" cy="34.917" r="34" fill-opacity=".7" stroke="#F9C74F" stroke-width="2"/>
      <circle cx="34" cy="34.917" r="25.5"/>
    </g>
    <g fill="#F94144" fill-opacity=".6" stroke="#F94144" transform="translate(456.569 608.896)">
      <circle cx="16.041" cy="11.638" r="5.3"/>
      <circle cx="7.885" cy="5.712" r="5.3"/>
      <circle cx="11" cy="15.3" r="5.3"/>
      <circle cx="14.115" cy="5.712" r="5.3"/>
      <circle cx="5.959" cy="11.638" r="5.3"/>
    </g>
    <g fill="#90BE6D" transform="translate(68 510)">
      <circle cx="11.257" cy="11.11" r="10.6" fill-opacity=".7" stroke="#90BE6D" stroke-width="2"/>
      <circle cx="11.257" cy="11.11" r="7.95"/>
    </g>
    <g transform="translate(548 594)">
      <circle cx="8.831" cy="8.843" r="8.26" fill="#F94144" fill-opacity=".8"/>
      <circle cx="8.831" cy="8.843" r="2.478" fill="#FBFDFE"/>
    </g>
    <g fill="#F3722C" transform="translate(191 159)">
      <circle cx="8.632" cy="8.925" r="8.26" fill-opacity=".7" stroke="#F3722C" stroke-width="2"/>
      <circle cx="8.632" cy="8.925" r="6.195"/>
    </g>
    <g fill="#90BE6D" transform="translate(190 526)">
      <circle cx="11.084" cy="10.932" r="10.6" fill-opacity=".7" stroke="#90BE6D" stroke-width="2"/>
      <circle cx="11.084" cy="10.932" r="7.95"/>
    </g>
    <g fill="#577590" fill-opacity=".6" stroke="#577590" transform="translate(463.452 147.374)">
      <circle cx="16.041" cy="11.638" r="5.3"/>
      <circle cx="7.885" cy="5.712" r="5.3"/>
      <circle cx="11" cy="15.3" r="5.3"/>
      <circle cx="14.115" cy="5.712" r="5.3"/>
      <circle cx="5.959" cy="11.638" r="5.3"/>
    </g>
    <g fill="#90BE6D" fill-opacity=".6" stroke="#90BE6D" transform="translate(302.648 609.961)">
      <circle cx="36.701" cy="29.152" r="17"/>
      <circle cx="21.005" cy="17.748" r="17"/>
      <circle cx="27" cy="36.2" r="17"/>
      <circle cx="32.995" cy="17.748" r="17"/>
      <circle cx="17.299" cy="29.152" r="17"/>
    </g>
    <g fill="#F94144" fill-opacity=".6" stroke="#F94144" transform="translate(363.257 537.547)">
      <circle cx="36.701" cy="29.152" r="17"/>
      <circle cx="21.005" cy="17.748" r="17"/>
      <circle cx="27" cy="36.2" r="17"/>
      <circle cx="32.995" cy="17.748" r="17"/>
      <circle cx="17.299" cy="29.152" r="17"/>
    </g>
    <g fill="#F3722C" transform="translate(138 197)">
      <circle cx="34.68" cy="34.535" r="34" fill-opacity=".7" stroke="#F3722C" stroke-width="2"/>
      <circle cx="34.68" cy="34.535" r="25.5"/>
    </g>
    <g fill="#90BE6D" fill-opacity=".6" stroke="#90BE6D" transform="translate(27.57 437.975)">
      <circle cx="36.701" cy="29.152" r="17"/>
      <circle cx="21.005" cy="17.748" r="17"/>
      <circle cx="27" cy="36.2" r="17"/>
      <circle cx="32.995" cy="17.748" r="17"/>
      <circle cx="17.299" cy="29.152" r="17"/>
    </g>
    <g fill="#43AA8B" fill-opacity=".6" stroke="#43AA8B" transform="translate(64.816 260.946)">
      <circle cx="36.701" cy="29.152" r="17"/>
      <circle cx="21.005" cy="17.748" r="17"/>
      <circle cx="27" cy="36.2" r="17"/>
      <circle cx="32.995" cy="17.748" r="17"/>
      <circle cx="17.299" cy="29.152" r="17"/>
    </g>
    <g fill="#90BE6D" fill-opacity=".6" stroke="#90BE6D" transform="translate(.38 560.274)">
      <circle cx="65.119" cy="50.562" r="30"/>
      <circle cx="37.42" cy="30.438" r="30"/>
      <circle cx="48" cy="63" r="30"/>
      <circle cx="58.58" cy="30.438" r="30"/>
      <circle cx="30.881" cy="50.562" r="30"/>
    </g>
    <g fill="#F94144" fill-opacity=".6" stroke="#F94144" transform="translate(314.413 393.304)">
      <circle cx="65.119" cy="50.562" r="30"/>
      <circle cx="37.42" cy="30.438" r="30"/>
      <circle cx="48" cy="63" r="30"/>
      <circle cx="58.58" cy="30.438" r="30"/>
      <circle cx="30.881" cy="50.562" r="30"/>
    </g>
    <g fill="#F3722C" fill-opacity=".6" stroke="#F3722C" transform="translate(184.422 73.42)">
      <circle cx="36.701" cy="29.152" r="17"/>
      <circle cx="21.005" cy="17.748" r="17"/>
      <circle cx="27" cy="36.2" r="17"/>
      <circle cx="32.995" cy="17.748" r="17"/>
      <circle cx="17.299" cy="29.152" r="17"/>
    </g>
    <g fill="#90BE6D" transform="translate(139 312)">
      <circle cx="60.81" cy="60.126" r="60" fill-opacity=".7" stroke="#90BE6D" stroke-width="2"/>
      <circle cx="60.81" cy="60.126" r="45"/>
    </g>
    <g fill="#F3722C" fill-opacity=".6" stroke="#F3722C" transform="translate(93.048 206.748)">
      <circle cx="16.041" cy="11.638" r="5.3"/>
      <circle cx="7.885" cy="5.712" r="5.3"/>
      <circle cx="11" cy="15.3" r="5.3"/>
      <circle cx="14.115" cy="5.712" r="5.3"/>
      <circle cx="5.959" cy="11.638" r="5.3"/>
    </g>
    <g fill="#577590" fill-opacity=".6" stroke="#577590" transform="translate(258.348 112.017)">
      <circle cx="16.041" cy="11.638" r="5.3"/>
      <circle cx="7.885" cy="5.712" r="5.3"/>
      <circle cx="11" cy="15.3" r="5.3"/>
      <circle cx="14.115" cy="5.712" r="5.3"/>
      <circle cx="5.959" cy="11.638" r="5.3"/>
    </g>
    <g fill="#577590" fill-opacity=".6" stroke="#577590" transform="translate(278.23 49.304)">
      <circle cx="36.701" cy="29.152" r="17"/>
      <circle cx="21.005" cy="17.748" r="17"/>
      <circle cx="27" cy="36.2" r="17"/>
      <circle cx="32.995" cy="17.748" r="17"/>
      <circle cx="17.299" cy="29.152" r="17"/>
    </g>
    <g fill="#577590" fill-opacity=".6" stroke="#577590" transform="translate(501.548 21.094)">
      <circle cx="16.041" cy="11.638" r="5.3"/>
      <circle cx="7.885" cy="5.712" r="5.3"/>
      <circle cx="11" cy="15.3" r="5.3"/>
      <circle cx="14.115" cy="5.712" r="5.3"/>
      <circle cx="5.959" cy="11.638" r="5.3"/>
    </g>
    <g fill="#577590" fill-opacity=".6" stroke="#577590" transform="translate(356.757 93.718)">
      <circle cx="36.701" cy="29.152" r="17"/>
      <circle cx="21.005" cy="17.748" r="17"/>
      <circle cx="27" cy="36.2" r="17"/>
      <circle cx="32.995" cy="17.748" r="17"/>
      <circle cx="17.299" cy="29.152" r="17"/>
    </g>
    <g transform="translate(97 342)">
      <circle cx="11.396" cy="11.055" r="10.6" fill="#43AA8B" fill-opacity=".8"/>
      <circle cx="11.396" cy="11.055" r="3.18" fill="#FBFDFE"/>
    </g>
    <g fill="#577590" transform="translate(357 280)">
      <circle cx="10.689" cy="10.614" r="10.6" fill-opacity=".7" stroke="#577590" stroke-width="2"/>
      <circle cx="10.689" cy="10.614" r="7.95"/>
    </g>
    <g fill="#90BE6D" fill-opacity=".6" stroke="#90BE6D" transform="translate(141.275 452.568)">
      <circle cx="36.701" cy="29.152" r="17"/>
      <circle cx="21.005" cy="17.748" r="17"/>
      <circle cx="27" cy="36.2" r="17"/>
      <circle cx="32.995" cy="17.748" r="17"/>
      <circle cx="17.299" cy="29.152" r="17"/>
    </g>
    <g fill="#577590" fill-opacity=".6" stroke="#577590" transform="translate(360.961 .974)">
      <circle cx="36.701" cy="29.152" r="17"/>
      <circle cx="21.005" cy="17.748" r="17"/>
      <circle cx="27" cy="36.2" r="17"/>
      <circle cx="32.995" cy="17.748" r="17"/>
      <circle cx="17.299" cy="29.152" r="17"/>
    </g>
    <g fill="#577590" transform="translate(380 186)">
      <circle cx="11.143" cy="10.67" r="10.6" fill-opacity=".7" stroke="#577590" stroke-width="2"/>
      <circle cx="11.143" cy="10.67" r="7.95"/>
    </g>
    <g fill="#90BE6D" transform="translate(266 421)">
      <circle cx="8.288" cy="8.833" r="8.26" fill-opacity=".7" stroke="#90BE6D" stroke-width="2"/>
      <circle cx="8.288" cy="8.833" r="6.195"/>
    </g>
    <g fill="#90BE6D" transform="translate(116 424)">
      <circle cx="10.792" cy="10.64" r="10.6" fill-opacity=".7" stroke="#90BE6D" stroke-width="2"/>
      <circle cx="10.792" cy="10.64" r="7.95"/>
    </g>
    <g fill="#90BE6D" transform="translate(104 456)">
      <circle cx="8.528" cy="8.696" r="8.26" fill-opacity=".7" stroke="#90BE6D" stroke-width="2"/>
      <circle cx="8.528" cy="8.696" r="6.195"/>
    </g>
    <g transform="translate(218 545)">
      <circle cx="8.77" cy="8.612" r="8.26" fill="#90BE6D" fill-opacity=".8"/>
      <circle cx="8.77" cy="8.612" r="2.478" fill="#FBFDFE"/>
    </g>
    <g transform="translate(103 488)">
      <circle cx="8.321" cy="8.474" r="8.26" fill="#90BE6D" fill-opacity=".8"/>
      <circle cx="8.321" cy="8.474" r="2.478" fill="#FBFDFE"/>
    </g>
    <g fill="#90BE6D" transform="translate(123 576)">
      <circle cx="8.903" cy="8.928" r="8.26" fill-opacity=".7" stroke="#90BE6D" stroke-width="2"/>
      <circle cx="8.903" cy="8.928" r="6.195"/>
    </g>
    <g fill="#90BE6D" transform="translate(104 404)">
      <circle cx="8.451" cy="8.587" r="8.001" fill-opacity=".7" stroke="#90BE6D" stroke-width="2"/>
      <circle cx="8.451" cy="8.587" r="6"/>
    </g>
    <g fill="#90BE6D" transform="translate(112 647)">
      <circle cx="9.065" cy="9.045" r="8.52" fill-opacity=".7" stroke="#90BE6D" stroke-width="2"/>
      <circle cx="9.065" cy="9.045" r="6.39"/>
    </g>
    <g transform="translate(129 598)">
      <circle cx="9.053" cy="8.438" r="8.13" fill="#90BE6D" fill-opacity=".8"/>
      <circle cx="9.053" cy="8.438" r="2.439" fill="#FBFDFE"/>
    </g>
    <g fill="#90BE6D" transform="translate(273 632)">
      <circle cx="9.505" cy="9.472" r="9.04" fill-opacity=".7" stroke="#90BE6D" stroke-width="2"/>
      <circle cx="9.505" cy="9.472" r="6.78"/>
    </g>
    <g fill="#90BE6D" transform="translate(204 598)">
      <circle cx="9.024" cy="8.753" r="8.078" fill-opacity=".7" stroke="#90BE6D" stroke-width="2"/>
      <circle cx="9.024" cy="8.753" r="6.059"/>
    </g>
    <g fill="#90BE6D" transform="translate(101 674)">
      <circle cx="60.384" cy="60.49" r="60" fill-opacity=".7" stroke="#90BE6D" stroke-width="2"/>
      <circle cx="60.384" cy="60.49" r="45"/>
    </g>
    <g fill="#90BE6D" transform="translate(219 456)">
      <circle cx="13.764" cy="13.905" r="13.2" fill-opacity=".7" stroke="#90BE6D" stroke-width="2"/>
      <circle cx="13.764" cy="13.905" r="9.9"/>
    </g>
    <g fill="#90BE6D" transform="translate(193 507)">
      <circle cx="8.861" cy="8.396" r="8.26" fill-opacity=".7" stroke="#90BE6D" stroke-width="2"/>
      <circle cx="8.861" cy="8.396" r="6.195"/>
    </g>
    <g transform="translate(119 552)">
      <circle cx="9.698" cy="9.922" r="9.3" fill="#90BE6D" fill-opacity=".8"/>
      <circle cx="9.698" cy="9.922" r="2.79" fill="#FBFDFE"/>
    </g>
    <g fill="#90BE6D" transform="translate(281 373)">
      <circle cx="11.035" cy="11.281" r="10.6" fill-opacity=".7" stroke="#90BE6D" stroke-width="2"/>
      <circle cx="11.035" cy="11.281" r="7.95"/>
    </g>
    <g transform="translate(101 516)">
      <circle cx="16.403" cy="15.835" r="15.8" fill="#90BE6D" fill-opacity=".8"/>
      <circle cx="16.403" cy="15.835" r="4.74" fill="#FBFDFE"/>
    </g>
    <g fill="#90BE6D" transform="translate(148 555)">
      <circle cx="8.909" cy="8.593" r="8.078" fill-opacity=".7" stroke="#90BE6D" stroke-width="2"/>
      <circle cx="8.909" cy="8.593" r="6.059"/>
    </g>
    <g fill="#90BE6D" transform="translate(147 516)">
      <circle cx="8.25" cy="8.834" r="8" fill-opacity=".7" stroke="#90BE6D" stroke-width="2"/>
      <circle cx="8.25" cy="8.834" r="6"/>
    </g>
    <g fill="#90BE6D" transform="translate(160 534)">
      <circle cx="9.223" cy="8.762" r="8.364" fill-opacity=".7" stroke="#90BE6D" stroke-width="2"/>
      <circle cx="9.223" cy="8.762" r="6.273"/>
    </g>
    <g fill="#90BE6D" transform="translate(187 606)">
      <circle cx="5.818" cy="5.522" r="5" fill-opacity=".7" stroke="#90BE6D" stroke-width="2"/>
      <circle cx="5.818" cy="5.522" r="3.75"/>
    </g>
    <g fill="#90BE6D" transform="translate(252 584)">
      <circle cx="17.411" cy="17.757" r="17.1" fill-opacity=".7" stroke="#90BE6D" stroke-width="2"/>
      <circle cx="17.411" cy="17.757" r="12.825"/>
    </g>
    <g fill="#90BE6D" transform="translate(183 545)">
      <circle cx="8.841" cy="8.667" r="8.073" fill-opacity=".7" stroke="#90BE6D" stroke-width="2"/>
      <circle cx="8.841" cy="8.667" r="6.055"/>
    </g>
    <g transform="translate(219 510)">
      <circle cx="9.334" cy="9.366" r="8.416" fill="#90BE6D" fill-opacity=".8"/>
      <circle cx="9.334" cy="9.366" r="2.525" fill="#FBFDFE"/>
    </g>
    <g transform="translate(180 577)">
      <circle cx="9.249" cy="8.945" r="8.468" fill="#90BE6D" fill-opacity=".8"/>
      <circle cx="9.249" cy="8.945" r="2.54" fill="#FBFDFE"/>
    </g>
    <g fill="#90BE6D" transform="translate(225 561)">
      <circle cx="14.027" cy="14.196" r="13.616" fill-opacity=".7" stroke="#90BE6D" stroke-width="2"/>
      <circle cx="14.027" cy="14.196" r="10.212"/>
    </g>
    <g fill="#90BE6D" transform="translate(244 430)">
      <circle cx="9.699" cy="9.894" r="9.04" fill-opacity=".7" stroke="#90BE6D" stroke-width="2"/>
      <circle cx="9.699" cy="9.894" r="6.78"/>
    </g>
    <g fill="#90BE6D" transform="translate(286 481)">
      <circle cx="8.764" cy="8.743" r="8" fill-opacity=".7" stroke="#90BE6D" stroke-width="2"/>
      <circle cx="8.764" cy="8.743" r="6"/>
    </g>
    <g fill="#90BE6D" transform="translate(283 452)">
      <circle cx="8.385" cy="9.253" r="8.26" fill-opacity=".7" stroke="#90BE6D" stroke-width="2"/>
      <circle cx="8.385" cy="9.253" r="6.195"/>
    </g>
    <g transform="translate(159 643)">
      <circle cx="9.156" cy="9.219" r="8.52" fill="#90BE6D" fill-opacity=".8"/>
      <circle cx="9.156" cy="9.219" r="2.556" fill="#FBFDFE"/>
    </g>
    <g transform="translate(157 578)">
      <circle cx="8.727" cy="8.907" r="8.26" fill="#90BE6D" fill-opacity=".8"/>
      <circle cx="8.727" cy="8.907" r="2.478" fill="#FBFDFE"/>
    </g>
    <g transform="translate(129 628)">
      <circle cx="9.248" cy="9.078" r="8.26" fill="#90BE6D" fill-opacity=".8"/>
      <circle cx="9.248" cy="9.078" r="2.478" fill="#FBFDFE"/>
    </g>
    <g fill="#90BE6D" transform="translate(261 689)">
      <circle cx="34.431" cy="34.197" r="34" fill-opacity=".7" stroke="#90BE6D" stroke-width="2"/>
      <circle cx="34.431" cy="34.197" r="25.5"/>
    </g>
    <g fill="#F9C74F" transform="translate(526 434)">
      <circle cx="8.543" cy="8.443" r="8.26" fill-opacity=".7" stroke="#F9C74F" stroke-width="2"/>
      <circle cx="8.543" cy="8.443" r="6.195"/>
    </g>
    <g fill="#577590" transform="translate(425 161)">
      <circle cx="8.197" cy="8.524" r="8.104" fill-opacity=".7" stroke="#577590" stroke-width="2"/>
      <circle cx="8.197" cy="8.524" r="6.078"/>
    </g>
    <g fill="#F9C74F" transform="translate(538 296)">
      <circle cx="9.578" cy="9.226" r="8.624" fill-opacity=".7" stroke="#F9C74F" stroke-width="2"/>
      <circle cx="9.578" cy="9.226" r="6.468"/>
    </g>
    <g fill="#90BE6D" transform="translate(213 441)">
      <circle cx="8.843" cy="8.371" r="8.26" fill-opacity=".7" stroke="#90BE6D" stroke-width="2"/>
      <circle cx="8.843" cy="8.371" r="6.195"/>
    </g>
    <g fill="#F9C74F" transform="translate(485 332)">
      <circle cx="9.327" cy="9.699" r="9.3" fill-opacity=".7" stroke="#F9C74F" stroke-width="2"/>
      <circle cx="9.327" cy="9.699" r="6.975"/>
    </g>
    <g fill="#90BE6D" transform="translate(178 624)">
      <circle cx="13.009" cy="13.119" r="12.68" fill-opacity=".7" stroke="#90BE6D" stroke-width="2"/>
      <circle cx="13.009" cy="13.119" r="9.51"/>
    </g>
    <g fill="#577590" fill-opacity=".6" stroke="#577590" transform="translate(464.39 120.983)">
      <circle cx="13.052" cy="9.316" r="4.26"/>
      <circle cx="6.496" cy="4.554" r="4.26"/>
      <circle cx="9" cy="12.26" r="4.26"/>
      <circle cx="11.504" cy="4.554" r="4.26"/>
      <circle cx="4.948" cy="9.316" r="4.26"/>
    </g>
    <g fill="#90BE6D" transform="translate(248 496)">
      <circle cx="8.519" cy="9.137" r="8.52" fill-opacity=".7" stroke="#90BE6D" stroke-width="2"/>
      <circle cx="8.519" cy="9.137" r="6.39"/>
    </g>
    <g fill="#90BE6D" transform="translate(271 398)">
      <circle cx="10.193" cy="10.612" r="10.08" fill-opacity=".7" stroke="#90BE6D" stroke-width="2"/>
      <circle cx="10.193" cy="10.612" r="7.56"/>
    </g>
    <g fill="#577590" transform="translate(465 49)">
      <circle cx="10.907" cy="11.018" r="10.08" fill-opacity=".7" stroke="#577590" stroke-width="2"/>
      <circle cx="10.907" cy="11.018" r="7.56"/>
    </g>
    <g fill="#577590" fill-opacity=".6" stroke="#577590" transform="translate(358.403 212.287)">
      <circle cx="13.052" cy="9.316" r="4.26"/>
      <circle cx="6.496" cy="4.554" r="4.26"/>
      <circle cx="9" cy="12.26" r="4.26"/>
      <circle cx="11.504" cy="4.554" r="4.26"/>
      <circle cx="4.948" cy="9.316" r="4.26"/>
    </g>
    <g fill="#577590" transform="translate(402 276)">
      <circle cx="9.728" cy="10.038" r="9.194" fill-opacity=".7" stroke="#577590" stroke-width="2"/>
      <circle cx="9.728" cy="10.038" r="6.896"/>
    </g>
    <g fill="#577590" transform="translate(448 91)">
      <circle cx="8.281" cy="8.761" r="8.213" fill-opacity=".7" stroke="#577590" stroke-width="2"/>
      <circle cx="8.281" cy="8.761" r="6.16"/>
    </g>
    <g fill="#577590" transform="translate(435 47)">
      <circle cx="8.483" cy="8.681" r="8.182" fill-opacity=".7" stroke="#577590" stroke-width="2"/>
      <circle cx="8.483" cy="8.681" r="6.137"/>
    </g>
    <g fill="#90BE6D" fill-opacity=".6" stroke="#90BE6D" transform="translate(210.976 630.69)">
      <circle cx="44.216" cy="32.619" r="14.947"/>
      <circle cx="21.214" cy="15.907" r="14.947"/>
      <circle cx="30" cy="42.947" r="14.947"/>
      <circle cx="38.786" cy="15.907" r="14.947"/>
      <circle cx="15.784" cy="32.619" r="14.947"/>
    </g>
    <g fill="#577590" transform="translate(343 243)">
      <circle cx="8.816" cy="9.273" r="8.335" fill-opacity=".7" stroke="#577590" stroke-width="2"/>
      <circle cx="8.816" cy="9.273" r="6.252"/>
    </g>
    <g fill="#F94144" transform="translate(482 592)">
      <circle cx="8.638" cy="8.762" r="8.089" fill-opacity=".7" stroke="#F94144" stroke-width="2"/>
      <circle cx="8.638" cy="8.762" r="6.066"/>
    </g>
    <g fill="#F94144" transform="translate(469 623)">
      <circle cx="59.805" cy="58.995" r="58.974" fill-opacity=".7" stroke="#F94144" stroke-width="2"/>
      <circle cx="59.805" cy="58.995" r="44.23"/>
    </g>
    <g fill="#90BE6D" fill-opacity=".6" stroke="#90BE6D" transform="translate(155.236 608.393)">
      <circle cx="11.894" cy="9.265" r="4.094"/>
      <circle cx="5.594" cy="4.688" r="4.094"/>
      <circle cx="8" cy="12.094" r="4.094"/>
      <circle cx="10.406" cy="4.688" r="4.094"/>
      <circle cx="4.106" cy="9.265" r="4.094"/>
    </g>
    <g fill="#F9C74F" transform="translate(670 417)">
      <circle cx="9" cy="9.108" r="8.255" fill-opacity=".7" stroke="#F9C74F" stroke-width="2"/>
      <circle cx="9" cy="9.108" r="6.191"/>
    </g>
    <g fill="#F94144" transform="translate(515 494)">
      <circle cx="8.822" cy="8.916" r="8.254" fill-opacity=".7" stroke="#F94144" stroke-width="2"/>
      <circle cx="8.822" cy="8.916" r="6.191"/>
    </g>
    <g fill="#F94144" fill-opacity=".6" stroke="#F94144" transform="translate(455.012 520.49)">
      <circle cx="11.821" cy="9.241" r="4.017"/>
      <circle cx="5.639" cy="4.75" r="4.017"/>
      <circle cx="8" cy="12.017" r="4.017"/>
      <circle cx="10.361" cy="4.75" r="4.017"/>
      <circle cx="4.179" cy="9.241" r="4.017"/>
    </g>
    <g fill="#F94144" transform="translate(448 572)">
      <circle cx="8.056" cy="8.296" r="8.001" fill-opacity=".7" stroke="#F94144" stroke-width="2"/>
      <circle cx="8.056" cy="8.296" r="6"/>
    </g>
    <g fill="#F94144" transform="translate(371 623)">
      <circle cx="38.627" cy="39.248" r="38.265" fill-opacity=".7" stroke="#F94144" stroke-width="2"/>
      <circle cx="38.627" cy="39.248" r="28.699"/>
    </g>
    <g fill="#F94144" fill-opacity=".6" stroke="#F94144" transform="translate(478.257 515.246)">
      <circle cx="11.822" cy="9.242" r="4.019"/>
      <circle cx="5.638" cy="4.749" r="4.019"/>
      <circle cx="8" cy="12.019" r="4.019"/>
      <circle cx="10.362" cy="4.749" r="4.019"/>
      <circle cx="4.178" cy="9.242" r="4.019"/>
    </g>
    <g fill="#F94144" fill-opacity=".6" stroke="#F94144" transform="translate(516.898 466.457)">
      <circle cx="11.805" cy="9.236" r="4.001"/>
      <circle cx="5.648" cy="4.763" r="4.001"/>
      <circle cx="8" cy="12.001" r="4.001"/>
      <circle cx="10.352" cy="4.763" r="4.001"/>
      <circle cx="4.195" cy="9.236" r="4.001"/>
    </g>
    <g fill="#F94144" fill-opacity=".6" stroke="#F94144" transform="translate(431.121 512.619)">
      <circle cx="11.857" cy="9.253" r="4.055"/>
      <circle cx="5.616" cy="4.719" r="4.055"/>
      <circle cx="8" cy="12.055" r="4.055"/>
      <circle cx="10.384" cy="4.719" r="4.055"/>
      <circle cx="4.143" cy="9.253" r="4.055"/>
    </g>
    <g fill="#F94144" fill-opacity=".6" stroke="#F94144" transform="translate(439.424 597.504)">
      <circle cx="11.817" cy="9.24" r="4.014"/>
      <circle cx="5.641" cy="4.753" r="4.014"/>
      <circle cx="8" cy="12.014" r="4.014"/>
      <circle cx="10.359" cy="4.753" r="4.014"/>
      <circle cx="4.183" cy="9.24" r="4.014"/>
    </g>
    <g fill="#577590" transform="translate(545 155)">
      <circle cx="8.558" cy="8.943" r="8.001" fill-opacity=".7" stroke="#577590" stroke-width="2"/>
      <circle cx="8.558" cy="8.943" r="6"/>
    </g>
    <g fill="#577590" transform="translate(513 161)">
      <circle cx="8.192" cy="8.876" r="8.041" fill-opacity=".7" stroke="#577590" stroke-width="2"/>
      <circle cx="8.192" cy="8.876" r="6.031"/>
    </g>
    <g transform="translate(529 186)">
      <circle cx="8.296" cy="8.284" r="8.01" fill="#577590" fill-opacity=".8"/>
      <circle cx="8.296" cy="8.284" r="2.403" fill="#FBFDFE"/>
    </g>
    <g transform="translate(494 155)">
      <circle cx="8.34" cy="8.959" r="8.252" fill="#577590" fill-opacity=".8"/>
      <circle cx="8.34" cy="8.959" r="2.475" fill="#FBFDFE"/>
    </g>
    <g transform="translate(396 254)">
      <circle cx="8.441" cy="8.538" r="8" fill="#577590" fill-opacity=".8"/>
      <circle cx="8.441" cy="8.538" r="2.4" fill="#FBFDFE"/>
    </g>
    <g transform="translate(464 170)">
      <circle cx="8.973" cy="9.538" r="8.77" fill="#577590" fill-opacity=".8"/>
      <circle cx="8.973" cy="9.538" r="2.631" fill="#FBFDFE"/>
    </g>
    <g fill="#F94144" fill-opacity=".6" stroke="#F94144" transform="translate(464.806 556.602)">
      <circle cx="13.092" cy="9.329" r="4.302"/>
      <circle cx="6.471" cy="4.52" r="4.302"/>
      <circle cx="9" cy="12.302" r="4.302"/>
      <circle cx="11.529" cy="4.52" r="4.302"/>
      <circle cx="4.908" cy="9.329" r="4.302"/>
    </g>
    <g fill="#577590" transform="translate(434 182)">
      <circle cx="8.726" cy="8.837" r="8.04" fill-opacity=".7" stroke="#577590" stroke-width="2"/>
      <circle cx="8.726" cy="8.837" r="6.03"/>
    </g>
    <g fill="#577590" transform="translate(414 194)">
      <circle cx="5.523" cy="5.909" r="5" fill-opacity=".7" stroke="#577590" stroke-width="2"/>
      <circle cx="5.523" cy="5.909" r="3.75"/>
    </g>
    <g fill="#43AA8B" transform="translate(107 378)">
      <circle cx="5.124" cy="5.687" r="5" fill-opacity=".7" stroke="#43AA8B" stroke-width="2"/>
      <circle cx="5.124" cy="5.687" r="3.75"/>
    </g>
    <g fill="#43AA8B" fill-opacity=".6" stroke="#43AA8B" transform="translate(149.365 283.183)">
      <circle cx="12.928" cy="9.276" r="4.13"/>
      <circle cx="6.572" cy="4.659" r="4.13"/>
      <circle cx="9" cy="12.13" r="4.13"/>
      <circle cx="11.428" cy="4.659" r="4.13"/>
      <circle cx="5.072" cy="9.276" r="4.13"/>
    </g>
    <g fill="#43AA8B" fill-opacity=".6" stroke="#43AA8B" transform="translate(185.435 280.045)">
      <circle cx="12.928" cy="9.276" r="4.13"/>
      <circle cx="6.572" cy="4.659" r="4.13"/>
      <circle cx="9" cy="12.13" r="4.13"/>
      <circle cx="11.428" cy="4.659" r="4.13"/>
      <circle cx="5.072" cy="9.276" r="4.13"/>
    </g>
    <g fill="#577590" transform="translate(324 127)">
      <circle cx="5.714" cy="5.05" r="5" fill-opacity=".7" stroke="#577590" stroke-width="2"/>
      <circle cx="5.714" cy="5.05" r="3.75"/>
    </g>
    <g fill="#F9C74F" transform="translate(424 346)">
      <circle cx="34.916" cy="34.437" r="34" fill-opacity=".7" stroke="#F9C74F" stroke-width="2"/>
      <circle cx="34.916" cy="34.437" r="25.5"/>
    </g>
    <g fill="#577590" transform="translate(367 260)">
      <circle cx="8.97" cy="8.194" r="8.026" fill-opacity=".7" stroke="#577590" stroke-width="2"/>
      <circle cx="8.97" cy="8.194" r="6.019"/>
    </g>
    <g fill="#F94144" transform="translate(444 546)">
      <circle cx="8.792" cy="8.893" r="8.65" fill-opacity=".7" stroke="#F94144" stroke-width="2"/>
      <circle cx="8.792" cy="8.893" r="6.487"/>
    </g>
    <g fill="#43AA8B" transform="translate(129 312)">
      <circle cx="8.255" cy="8.842" r="8.104" fill-opacity=".7" stroke="#43AA8B" stroke-width="2"/>
      <circle cx="8.255" cy="8.842" r="6.078"/>
    </g>
    <g transform="translate(581 559)">
      <circle cx="23.982" cy="24.382" r="23.6" fill="#F94144" fill-opacity=".8"/>
      <circle cx="23.982" cy="24.382" r="7.08" fill="#FBFDFE"/>
    </g>
    <g transform="translate(420 75)">
      <circle cx="9.79" cy="9.762" r="9.3" fill="#577590" fill-opacity=".8"/>
      <circle cx="9.79" cy="9.762" r="2.79" fill="#FBFDFE"/>
    </g>
    <g fill="#F9C74F" fill-opacity=".6" stroke="#F9C74F" transform="translate(484.19 405.596)">
      <circle cx="30.986" cy="22.245" r="10.5"/>
      <circle cx="14.828" cy="10.505" r="10.5"/>
      <circle cx="21" cy="29.5" r="10.5"/>
      <circle cx="27.172" cy="10.505" r="10.5"/>
      <circle cx="11.014" cy="22.245" r="10.5"/>
    </g>
    <g fill="#F94144" transform="translate(426 535)">
      <circle cx="5.49" cy="5.377" r="5" fill-opacity=".7" stroke="#F94144" stroke-width="2"/>
      <circle cx="5.49" cy="5.377" r="3.75"/>
    </g>
    <g fill="#577590" transform="translate(387 222)">
      <circle cx="9.313" cy="9.028" r="8.52" fill-opacity=".7" stroke="#577590" stroke-width="2"/>
      <circle cx="9.313" cy="9.028" r="6.39"/>
    </g>
    <g fill="#F9C74F" transform="translate(514 332)">
      <circle cx="34.167" cy="34.971" r="34" fill-opacity=".7" stroke="#F9C74F" stroke-width="2"/>
      <circle cx="34.167" cy="34.971" r="25.5"/>
    </g>
    <g fill="#F9C74F" transform="translate(599 368)">
      <circle cx="13.702" cy="13.289" r="13.2" fill-opacity=".7" stroke="#F9C74F" stroke-width="2"/>
      <circle cx="13.702" cy="13.289" r="9.9"/>
    </g>
    <g fill="#F9C74F" fill-opacity=".6" stroke="#F9C74F" transform="translate(440.19 317.78)">
      <circle cx="16.041" cy="11.638" r="5.3"/>
      <circle cx="7.885" cy="5.712" r="5.3"/>
      <circle cx="11" cy="15.3" r="5.3"/>
      <circle cx="14.115" cy="5.712" r="5.3"/>
      <circle cx="5.959" cy="11.638" r="5.3"/>
    </g>
    <g fill="#F94144" transform="translate(416 586)">
      <circle cx="8.969" cy="8.917" r="8.52" fill-opacity=".7" stroke="#F94144" stroke-width="2"/>
      <circle cx="8.969" cy="8.917" r="6.39"/>
    </g>
    <g fill="#F9C74F" fill-opacity=".6" stroke="#F9C74F" transform="translate(532.685 404.685)">
      <circle cx="11.829" cy="9.244" r="4.026"/>
      <circle cx="5.634" cy="4.743" r="4.026"/>
      <circle cx="8" cy="12.026" r="4.026"/>
      <circle cx="10.366" cy="4.743" r="4.026"/>
      <circle cx="4.171" cy="9.244" r="4.026"/>
    </g>
    <g fill="#43AA8B" fill-opacity=".6" stroke="#43AA8B" transform="translate(67.168 390.53)">
      <circle cx="13.052" cy="9.316" r="4.26"/>
      <circle cx="6.496" cy="4.554" r="4.26"/>
      <circle cx="9" cy="12.26" r="4.26"/>
      <circle cx="11.504" cy="4.554" r="4.26"/>
      <circle cx="4.948" cy="9.316" r="4.26"/>
    </g>
    <g fill="#43AA8B" transform="translate(214 264)">
      <circle cx="14.052" cy="13.365" r="13.2" fill-opacity=".7" stroke="#43AA8B" stroke-width="2"/>
      <circle cx="14.052" cy="13.365" r="9.9"/>
    </g>
    <g transform="translate(427 126)">
      <circle cx="14.137" cy="14.08" r="13.2" fill="#577590" fill-opacity=".8"/>
      <circle cx="14.137" cy="14.08" r="3.96" fill="#FBFDFE"/>
    </g>
    <g fill="#FBFDFE" stroke="#90BE6D" transform="translate(198 567)">
      <circle cx="9.238" cy="8.664" r="8.26" stroke-width="2"/>
      <circle cx="9.238" cy="8.664" r="4.26"/>
    </g>
    <g fill="#90BE6D" fill-opacity=".6" stroke="#90BE6D" transform="translate(222.81 598.641)">
      <circle cx="12.928" cy="9.276" r="4.13"/>
      <circle cx="6.572" cy="4.659" r="4.13"/>
      <circle cx="9" cy="12.13" r="4.13"/>
      <circle cx="11.428" cy="4.659" r="4.13"/>
      <circle cx="5.072" cy="9.276" r="4.13"/>
    </g>
    <g fill="#577590" fill-opacity=".6" stroke="#577590" transform="translate(451.24 5.683)">
      <circle cx="16.041" cy="11.638" r="5.3"/>
      <circle cx="7.885" cy="5.712" r="5.3"/>
      <circle cx="11" cy="15.3" r="5.3"/>
      <circle cx="14.115" cy="5.712" r="5.3"/>
      <circle cx="5.959" cy="11.638" r="5.3"/>
    </g>
    <g fill="#FBFDFE" stroke="#577590" transform="translate(283 273)">
      <circle cx="9.093" cy="8.704" r="8.26" stroke-width="2"/>
      <circle cx="9.093" cy="8.704" r="4.26"/>
    </g>
    <g fill="#577590" fill-opacity=".6" stroke="#577590" transform="translate(400 215)">
      <circle cx="9.056" cy="8.616" r="8.26"/>
      <circle cx="16.056" cy="8.616" r="8.26"/>
    </g>
    <g fill="#577590" transform="translate(393 161)">
      <circle cx="11.081" cy="10.751" r="10.6" fill-opacity=".7" stroke="#577590" stroke-width="2"/>
      <circle cx="11.081" cy="10.751" r="7.95"/>
    </g>
    <g fill="#577590" fill-opacity=".6" stroke="#577590" transform="translate(280.71 306.854)">
      <circle cx="36.701" cy="29.152" r="17"/>
      <circle cx="21.005" cy="17.748" r="17"/>
      <circle cx="27" cy="36.2" r="17"/>
      <circle cx="32.995" cy="17.748" r="17"/>
      <circle cx="17.299" cy="29.152" r="17"/>
    </g>
    <g fill="#43AA8B" fill-opacity=".6" stroke="#43AA8B" transform="translate(53.264 345.738)">
      <circle cx="16.041" cy="11.638" r="5.3"/>
      <circle cx="7.885" cy="5.712" r="5.3"/>
      <circle cx="11" cy="15.3" r="5.3"/>
      <circle cx="14.115" cy="5.712" r="5.3"/>
      <circle cx="5.959" cy="11.638" r="5.3"/>
    </g>
    <g fill="#F9C74F" transform="translate(569 271)">
      <circle cx="34.178" cy="34.912" r="34" fill-opacity=".7" stroke="#F9C74F" stroke-width="2"/>
      <circle cx="34.178" cy="34.912" r="25.5"/>
    </g>
    <g fill="#F3722C" fill-opacity=".6" stroke="#F3722C" transform="translate(103.65 122.665)">
      <circle cx="36.701" cy="29.152" r="17"/>
      <circle cx="21.005" cy="17.748" r="17"/>
      <circle cx="27" cy="36.2" r="17"/>
      <circle cx="32.995" cy="17.748" r="17"/>
      <circle cx="17.299" cy="29.152" r="17"/>
    </g>
    <g fill="#577590" fill-opacity=".6" stroke="#577590" transform="translate(343 154)">
      <circle cx="8.939" cy="8.982" r="8.26"/>
      <circle cx="15.939" cy="8.982" r="8.26"/>
    </g>
    <g fill="#577590" fill-opacity=".6" stroke="#577590" transform="translate(359 234)">
      <circle cx="9.174" cy="8.756" r="8.26"/>
      <circle cx="16.174" cy="8.756" r="8.26"/>
    </g>
    <g fill="#577590" fill-opacity=".6" stroke="#577590" transform="translate(328.467 280.349)">
      <circle cx="16.041" cy="11.638" r="5.3"/>
      <circle cx="7.885" cy="5.712" r="5.3"/>
      <circle cx="11" cy="15.3" r="5.3"/>
      <circle cx="14.115" cy="5.712" r="5.3"/>
      <circle cx="5.959" cy="11.638" r="5.3"/>
    </g>
    <g fill="#577590" transform="translate(226 142)">
      <circle cx="60.866" cy="60.15" r="60" fill-opacity=".7" stroke="#577590" stroke-width="2"/>
      <circle cx="60.866" cy="60.15" r="45"/>
    </g>
    <g fill="#FBFDFE" stroke="#577590" transform="translate(322 262)">
      <circle cx="8.453" cy="8.344" r="8.26" stroke-width="2"/>
      <circle cx="8.453" cy="8.344" r="4.26"/>
    </g>
    <g fill="#577590" transform="translate(246 285)">
      <circle cx="11.514" cy="11.493" r="10.6" fill-opacity=".7" stroke="#577590" stroke-width="2"/>
      <circle cx="11.514" cy="11.493" r="7.95"/>
    </g>
    <g fill="#577590" transform="translate(362 181)">
      <circle cx="8.576" cy="9.001" r="8.26" fill-opacity=".7" stroke="#577590" stroke-width="2"/>
      <circle cx="8.576" cy="9.001" r="6.195"/>
    </g>
    <g fill="#F9C74F" transform="translate(548 412)">
      <circle cx="60.769" cy="60.103" r="60" fill-opacity=".7" stroke="#F9C74F" stroke-width="2"/>
      <circle cx="60.769" cy="60.103" r="45"/>
    </g>
    <g transform="translate(513 320)">
      <circle cx="5.397" cy="5.979" r="5" fill="#F9C74F" fill-opacity=".8"/>
      <circle cx="5.397" cy="5.979" r="1.5" fill="#FBFDFE"/>
    </g>
    <g transform="translate(216 68)">
      <g fill="#577590" transform="translate(210 129)">
        <circle cx="60.423" cy="60.577" r="60" fill-opacity=".7" stroke="#577590" stroke-width="2"/>
        <circle cx="60.423" cy="60.577" r="45"/>
      </g>
      <g fill="#577590" transform="translate(359 29)">
        <circle cx="34.167" cy="34.869" r="34" fill-opacity=".7" stroke="#577590" stroke-width="2"/>
        <circle cx="34.167" cy="34.869" r="25.5"/>
      </g>
      <g fill="#577590" transform="translate(272)">
        <circle cx="34.972" cy="34.177" r="34" fill-opacity=".7" stroke="#577590" stroke-width="2"/>
        <circle cx="34.972" cy="34.177" r="25.5"/>
      </g>
      <g fill="#577590" transform="translate(142 230)">
        <circle cx="34.623" cy="34.405" r="34" fill-opacity=".7" stroke="#577590" stroke-width="2"/>
        <circle cx="34.623" cy="34.405" r="25.5"/>
      </g>
      <g fill="#577590" transform="translate(344 117)">
        <circle cx="34.842" cy="34.33" r="34" fill-opacity=".7" stroke="#577590" stroke-width="2"/>
        <circle cx="34.842" cy="34.33" r="25.5"/>
      </g>
      <g fill="#90BE6D" transform="translate(46 387)">
        <circle cx="8.707" cy="8.324" r="8.104" fill-opacity=".7" stroke="#90BE6D" stroke-width="2"/>
        <circle cx="8.707" cy="8.324" r="6.078"/>
      </g>
      <g transform="translate(0 417)">
        <circle cx="8.352" cy="8.648" r="8.13" fill="#90BE6D" fill-opacity=".8"/>
        <circle cx="8.352" cy="8.648" r="2.439" fill="#FBFDFE"/>
      </g>
      <g fill="#90BE6D" transform="translate(48 434)">
        <circle cx="42.346" cy="42.691" r="41.8" fill-opacity=".7" stroke="#90BE6D" stroke-width="2"/>
        <circle cx="42.346" cy="42.691" r="31.35"/>
      </g>
      <g transform="translate(36 407)">
        <circle cx="8.831" cy="9.486" r="8.52" fill="#90BE6D" fill-opacity=".8"/>
        <circle cx="8.831" cy="9.486" r="2.556" fill="#FBFDFE"/>
      </g>
      <g fill="#90BE6D" transform="translate(19 456)">
        <circle cx="11.26" cy="11.878" r="11.12" fill-opacity=".7" stroke="#90BE6D" stroke-width="2"/>
        <circle cx="11.26" cy="11.878" r="8.34"/>
      </g>
      <g fill="#F94144" transform="translate(173 438)">
        <circle cx="8.225" cy="9.047" r="8.121" fill-opacity=".7" stroke="#F94144" stroke-width="2"/>
        <circle cx="8.225" cy="9.047" r="6.091"/>
      </g>
      <g fill="#F9C74F" fill-opacity=".6" stroke="#F9C74F" transform="translate(395.195 283.663)">
        <circle cx="7.378" cy="5.773" r="2.5"/>
        <circle cx="3.531" cy="2.977" r="2.5"/>
        <circle cx="5" cy="7.5" r="2.5"/>
        <circle cx="6.469" cy="2.977" r="2.5"/>
        <circle cx="2.622" cy="5.773" r="2.5"/>
      </g>
      <g fill="#F94144" fill-opacity=".6" stroke="#F94144" transform="translate(191.917 417.232)">
        <circle cx="19.277" cy="14.04" r="6.6"/>
        <circle cx="9.121" cy="6.66" r="6.6"/>
        <circle cx="13" cy="18.6" r="6.6"/>
        <circle cx="16.879" cy="6.66" r="6.6"/>
        <circle cx="6.723" cy="14.04" r="6.6"/>
      </g>
      <g fill="#F94144" transform="translate(275 455)">
        <circle cx="34.632" cy="34.243" r="34" fill-opacity=".7" stroke="#F94144" stroke-width="2"/>
        <circle cx="34.632" cy="34.243" r="25.5"/>
      </g>
      <g fill="#FBFDFE" stroke="#F94144" transform="translate(221 371)">
        <circle cx="34.407" cy="34.317" r="34" stroke-width="2"/>
        <circle cx="34.407" cy="34.317" r="30"/>
      </g>
    </g>
  </g>
</svg>
