<svg xmlns="http://www.w3.org/2000/svg" width="170" height="168"><defs><radialGradient id="a" fx="50%" fy="50%"><stop offset="0%" stop-color="#E3B0D2"/><stop offset="50.055%" stop-color="#E498C8"/><stop offset="89.899%" stop-color="#E677BA"/><stop offset="100%" stop-color="#E652AE"/></radialGradient></defs><g fill="none" fill-rule="evenodd"><g transform="translate(40 64)"><circle cx="45.015" cy="45.015" r="15.515" fill="url(#a)"/><g stroke="#C2C3C7" stroke-opacity=".6" transform="translate(9 9)"><circle cx="36" cy="36" r="21"/><circle cx="36" cy="36" r="24"/><circle cx="36" cy="36" r="27"/><circle cx="36" cy="36" r="30"/><circle cx="36" cy="36" r="33"/><circle cx="36" cy="36" r="36"/></g><circle cx="45" cy="45" r="45" stroke="#F2F2F6" stroke-width="2"/></g><g fill="#262626" fill-rule="nonzero" transform="translate(37 61)"><circle cx="48" cy="3" r="3"/><circle cx="93" cy="48" r="3"/><circle cx="48" cy="93" r="3"/><circle cx="3" cy="48" r="3"/></g><g fill-rule="nonzero"><path fill="#262626" d="M143.673 166.673a2 2 0 002.862-.035c31.287-32.832 31.287-84.444 0-117.276a2 2 0 00-2.862-.035 2 2 0 00-.034 2.794c29.815 31.287 29.815 80.47 0 111.758a2 2 0 00.034 2.794z"/><path fill="#F2F2F6" d="M143.673 166.673a2 2 0 002.862-.035 85 85 0 0020.578-36.672 2 2 0 00-1.462-2.46 2 2 0 00-2.402 1.426 81 81 0 01-19.61 34.947 2 2 0 00.034 2.794z"/></g><g fill-rule="nonzero"><path fill="#262626" d="M26.327 166.673a2 2 0 01-2.862-.035c-31.287-32.832-31.287-84.444 0-117.276a2 2 0 012.862-.035 2 2 0 01.034 2.794c-29.815 31.287-29.815 80.47 0 111.758a2 2 0 01-.034 2.794z"/><path fill="#F2F2F6" d="M2.024 108a2 2 0 01-2-2.048A85 85 0 013.98 82.293a2 2 0 012.557-1.286 2 2 0 011.256 2.496 81 81 0 00-3.77 22.545A2 2 0 012.025 108zm0 0a2 2 0 00-2 2.048 85 85 0 00.056 1.645 2 2 0 002.133 1.909 2 2 0 001.863-2.083 81 81 0 01-.052-1.567 2 2 0 00-2-1.952z"/></g><g fill="#F2F2F6" fill-rule="nonzero"><path d="M43.31 32.788a1 1 0 01.4-1.365 87 87 0 0113.445-5.847 1 1 0 011.271.639 1 1 0 01-.63 1.256 85 85 0 00-13.138 5.712 1 1 0 01-1.349-.395zm-1.455-2.624a1 1 0 01.4-1.365 90 90 0 0113.973-6.076 1 1 0 011.271.638 1 1 0 01-.631 1.257 88 88 0 00-13.664 5.941 1 1 0 01-1.35-.395zM40.4 27.54a1 1 0 01.4-1.365 93 93 0 0114.502-6.306 1 1 0 011.27.639 1 1 0 01-.632 1.257 91 91 0 00-14.19 6.17 1 1 0 01-1.35-.395zm-1.454-2.624a1 1 0 01.399-1.365 96 96 0 0115.03-6.535 1 1 0 011.27.639 1 1 0 01-.632 1.256 94 94 0 00-14.717 6.4 1 1 0 01-1.35-.395zM59.858 25.763a1 1 0 01.675-1.252A87 87 0 0174.9 21.588a1 1 0 011.11.889 1 1 0 01-.878 1.098 85 85 0 00-14.038 2.856 1 1 0 01-1.237-.668zm-.877-2.869a1 1 0 01.674-1.252 90 90 0 0114.932-3.038 1 1 0 011.11.89 1 1 0 01-.878 1.097 88 88 0 00-14.6 2.97 1 1 0 01-1.238-.667zm-.878-2.869a1 1 0 01.675-1.252 93 93 0 0115.496-3.152 1 1 0 011.11.888 1 1 0 01-.88 1.098 91 91 0 00-15.162 3.085 1 1 0 01-1.239-.667zm-.877-2.869a1 1 0 01.674-1.252 96 96 0 0116.06-3.267 1 1 0 011.11.889 1 1 0 01-.88 1.098 94 94 0 00-15.725 3.199 1 1 0 01-1.239-.667zm-.877-2.869a1 1 0 01.674-1.252 99 99 0 0116.625-3.382 1 1 0 011.109.889 1 1 0 01-.88 1.098 97 97 0 00-16.289 3.314 1 1 0 01-1.239-.667zm-.877-2.869a1 1 0 01.673-1.252 102 102 0 0117.19-3.497 1 1 0 011.108.89 1 1 0 01-.88 1.097 100 100 0 00-16.852 3.429 1 1 0 01-1.24-.667zm-.877-2.87a1 1 0 01.673-1.25A105 105 0 0173.02 3.685a1 1 0 011.109.889 1 1 0 01-.88 1.098 103 103 0 00-17.416 3.543 1 1 0 01-1.24-.667zm-.877-2.868a1 1 0 01.672-1.252A108 108 0 0172.708.702a1 1 0 011.108.889 1 1 0 01-.88 1.098 106 106 0 00-17.979 3.657 1 1 0 01-1.24-.666zM77.505 22.333a1 1 0 01.92-1.084 87 87 0 0113.15 0 1 1 0 01.92 1.084 1 1 0 01-1.072.91 85 85 0 00-12.846 0 1 1 0 01-1.072-.91zm-.261-2.989a1 1 0 01.92-1.084 90 90 0 0113.672 0 1 1 0 01.92 1.084 1 1 0 01-1.072.91 88 88 0 00-13.368 0 1 1 0 01-1.072-.91zm-.262-2.988a1 1 0 01.92-1.085 93 93 0 0114.196 0 1 1 0 01.92 1.085 1 1 0 01-1.073.91 91 91 0 00-13.89 0 1 1 0 01-1.073-.91zm-.261-2.99a1 1 0 01.92-1.083 96 96 0 0114.719 0 1 1 0 01.92 1.084 1 1 0 01-1.074.91 94 94 0 00-14.412 0 1 1 0 01-1.073-.91zm-.262-2.988a1 1 0 01.92-1.084 99 99 0 0115.243 0 1 1 0 01.919 1.084 1 1 0 01-1.073.91 97 97 0 00-14.936 0 1 1 0 01-1.073-.91zm-.261-2.989a1 1 0 01.919-1.084 102 102 0 0115.766 0 1 1 0 01.92 1.084 1 1 0 01-1.074.91 100 100 0 00-15.458 0 1 1 0 01-1.073-.91zm-.262-2.988a1 1 0 01.919-1.085 105 105 0 0116.29 0 1 1 0 01.919 1.085 1 1 0 01-1.074.91 103 103 0 00-15.98 0 1 1 0 01-1.074-.91zM93.989 22.477a1 1 0 011.11-.889 87 87 0 0114.368 2.923 1 1 0 01.675 1.252 1 1 0 01-1.237.668 85 85 0 00-14.038-2.856 1 1 0 01-.878-1.098zm.313-2.984a1 1 0 011.11-.889 90 90 0 0114.933 3.038 1 1 0 01.674 1.252 1 1 0 01-1.237.667 88 88 0 00-14.6-2.97 1 1 0 01-.88-1.098zm.314-2.984a1 1 0 011.11-.888 93 93 0 0115.496 3.152 1 1 0 01.675 1.252 1 1 0 01-1.239.667 91 91 0 00-15.163-3.085 1 1 0 01-.879-1.098zm.314-2.983a1 1 0 011.11-.89 96 96 0 0116.06 3.268 1 1 0 01.674 1.252 1 1 0 01-1.239.667 94 94 0 00-15.726-3.2 1 1 0 01-.88-1.097zm.313-2.984a1 1 0 011.11-.889 99 99 0 0116.624 3.382 1 1 0 01.674 1.252 1 1 0 01-1.239.667 97 97 0 00-16.289-3.314 1 1 0 01-.88-1.098zM111.574 26.215a1 1 0 011.27-.639 87 87 0 0113.447 5.847 1 1 0 01.4 1.365 1 1 0 01-1.35.395 85 85 0 00-13.136-5.712 1 1 0 01-.631-1.256z"/></g></g></svg>