<svg xmlns="http://www.w3.org/2000/svg" width="20" height="13" viewBox="0 0 20 13">
  <path fill="#F2F2F6" d="M253.343202,246.027309 L247.26133,239.945438 C247.102936,239.787043 246.846357,239.787043 246.688,239.945438 C246.529605,240.103832 246.529605,240.360411 246.688,240.518768 L252.077754,245.908522 L234.405471,245.908522 C234.181354,245.908522 234,246.089876 234,246.313993 C234,246.53811 234.181354,246.719464 234.405471,246.719464 L252.077754,246.719464 L246.688,252.10918 C246.529605,252.267575 246.529605,252.524154 246.688,252.682511 C246.767178,252.761689 246.87095,252.801297 246.974684,252.801297 C247.078418,252.801297 247.182152,252.761689 247.261368,252.682511 L253.34324,246.600639 C253.501596,246.442283 253.501596,246.185704 253.343202,246.027309 Z" transform="translate(-234 -239.794)"/>
</svg>
