<svg xmlns="http://www.w3.org/2000/svg" width="79" height="80"><g fill="#3EB8C4"><path d="M73.08 42.604a2.67 2.67 0 00-2.622-2.164h-2.579l-.19-1.135a2.682 2.682 0 00-2.231-2.209c-.254-.04-.51-.067-.763-.101a8.122 8.122 0 00-1.015-5.946 5.448 5.448 0 00-.294-4.56 5.464 5.464 0 00-3.666-2.738 11.359 11.359 0 00-11.102-9.262c-.134 0-.253.018-.38.022a5.439 5.439 0 00-8.311-1.032A9.179 9.179 0 0034.942 12a9.278 9.278 0 00-7.29 3.584 6.661 6.661 0 00-5.688.943 6.639 6.639 0 00-2.814 5.025 5.488 5.488 0 00-3.367 5.056c.004.383.05.764.134 1.137a10.716 10.716 0 00-1.281 9.2c-.358.05-.724.094-1.068.144a2.685 2.685 0 00-2.25 2.208l-.19 1.139H8.543a2.67 2.67 0 00-2.62 2.159L.074 72.57a3.995 3.995 0 00.844 3.31 4.01 4.01 0 003.097 1.452h27.851C32.972 79.155 36.332 80 39.5 80c3.135 0 6.463-.825 7.6-2.667h27.886a4.01 4.01 0 003.096-1.452 3.995 3.995 0 00.845-3.309L73.08 42.604zM19.82 29.021a2.814 2.814 0 011.443-5.229 2.771 2.771 0 012.243 1.13 1.337 1.337 0 002.298-.264c.19-.437.13-.942-.153-1.325a5.398 5.398 0 00-3.788-2.133 4.058 4.058 0 013.96-3.21c.163.009.325.027.486.054a8.749 8.749 0 00-.28.835 1.336 1.336 0 002.586.667 6.478 6.478 0 01.692-1.67 6.597 6.597 0 015.634-3.21 6.494 6.494 0 013.537 1.067 5.412 5.412 0 00-.313 1.748 1.334 1.334 0 002.671 0 2.807 2.807 0 012.809-2.804 2.807 2.807 0 012.81 2.804 1.334 1.334 0 002.671 0c0-.102-.026-.2-.031-.302a8.665 8.665 0 017.909 6.674 5.423 5.423 0 00-1.728.86 1.332 1.332 0 00.276 2.293c.44.187.945.127 1.326-.16a2.819 2.819 0 013.538.152 2.807 2.807 0 01.592 3.485c-.291.51-.733.918-1.265 1.168a1.333 1.333 0 00.569 2.533c.196 0 .39-.043.566-.127.354-.17.689-.38.998-.622a5.688 5.688 0 01-1.13 5.686l-.032.034a5.775 5.775 0 01-6.811 1.248 5.302 5.302 0 01-.647-.403 4.535 4.535 0 00.353-4.693 1.336 1.336 0 00-2.387 1.2c.44.881.165 1.95-.644 2.513a2.018 2.018 0 01-2.9-.739 1.336 1.336 0 00-2.39 1.194 4.631 4.631 0 004.162 2.57 4.588 4.588 0 001.676-.329 7.906 7.906 0 001.565 1.067 8.24 8.24 0 006.17.569 8.515 8.515 0 01-5.5 3.367 1.334 1.334 0 00.421 2.633 10.99 10.99 0 002.37-.69c.411.726.745 1.493.996 2.289.046.139.07.284.07.43 0 .577-.346 1.097-.877 1.323a1.513 1.513 0 01-1.724-.463 8.526 8.526 0 00-3.909-2.593c-2.886-.965-4-1.828-4.473-2.767a12.84 12.84 0 002.048-.426 1.334 1.334 0 10-.786-2.55c-.749.23-1.523.372-2.305.423a9.927 9.927 0 01-4.426-.667 1.337 1.337 0 00-1.497.372 5.725 5.725 0 01-7.67.874 5.703 5.703 0 01-1.553-7.55 1.336 1.336 0 00-1.128-2.024 1.34 1.34 0 00-1.17.65 8.32 8.32 0 00-.765 1.716 2.002 2.002 0 01-1.897-1.966V35.7a1.318 1.318 0 00-1.336-1.316c-.74.007-1.337.61-1.335 1.35a4.643 4.643 0 004.146 4.6c.005.448.046.894.122 1.334a8.17 8.17 0 01-8.018-2.774 8.137 8.137 0 01-1.216-8.385c.299.302.632.568.994.791.63.369 1.441.163 1.819-.462a1.332 1.332 0 00-.441-1.822v.005zm-5.876 10.711c.616-.09 1.252-.17 1.884-.253a10.791 10.791 0 0011.712 4.744 8.375 8.375 0 0013.104 2.217c.908.27 1.843.44 2.788.504.645 2.443 2.51 3.923 6.427 5.233a5.92 5.92 0 012.719 1.788 4.257 4.257 0 003.226 1.514c.545 0 1.084-.11 1.586-.323a4.105 4.105 0 002.496-3.775 3.95 3.95 0 00-.203-1.261c-.3-.942-.696-1.851-1.18-2.713a11.239 11.239 0 004.437-6.776c.285-.338.542-.697.77-1.075.447.057.894.108 1.344.183l4.822 28.952a45.916 45.916 0 00-29.04 0V52c0-.736-.598-1.333-1.336-1.333-.737 0-1.335.597-1.335 1.333v16.696a45.924 45.924 0 00-29.04-.01l4.82-28.954zM2.974 74.176a1.321 1.321 0 01-.28-1.093l5.848-29.976h2.137L6.49 68.252c-.148.915.19 1.841.891 2.448a2.684 2.684 0 002.555.53 44.752 44.752 0 0122.06-1.397l-.399 4.834H4.015c-.403 0-.785-.18-1.04-.491zM39.5 77.333c-3.217 0-5.063-.949-5.334-1.372l.46-5.533c1.468.365 2.905.846 4.297 1.439a1.33 1.33 0 001.155 0 28.48 28.48 0 014.297-1.448l.46 5.541c-.272.424-2.118 1.373-5.335 1.373zm36.526-3.157c-.256.31-.638.49-1.04.49H47.408l-.4-4.842a44.765 44.765 0 0122.068 1.41c.886.273 1.85.069 2.55-.539a2.672 2.672 0 00.885-2.447l-4.187-25.14h2.137l5.85 29.973c.073.39-.03.791-.285 1.095z"/><path d="M34.433 30.807a1.484 1.484 0 00-.094 1.992c1.116 1.322 2.59 2.234 4.215 2.608-.736 1.113-1.93 1.773-3.2 1.77-.727 0-1.316.633-1.316 1.412 0 .78.589 1.411 1.315 1.411 2.722.012 5.165-1.793 6.127-4.525 3.27-.582 5.858-3.282 6.492-6.773a1.473 1.473 0 00-.421-1.353 1.247 1.247 0 00-1.305-.268c-.448.17-.776.587-.857 1.09-.258 1.455-1.04 2.743-2.177 3.583-2.188 1.58-5.122 1.222-6.923-.847a1.253 1.253 0 00-1.856-.1zM30.25 29c.69 0 1.25-.56 1.25-1.25a3.25 3.25 0 013.25-3.25 1.25 1.25 0 000-2.5A5.756 5.756 0 0029 27.75 1.25 1.25 0 0030.25 29zM41 2.667V1.333C41 .597 40.552 0 40 0s-1 .597-1 1.333v1.334C39 3.403 39.448 4 40 4s1-.597 1-1.333zm20.726 7.737l-1.322 1.322a1.322 1.322 0 101.87 1.87l1.322-1.322a1.322 1.322 0 10-1.87-1.87zM17.672 14a1.328 1.328 0 00.94-2.267l-1.329-1.328a1.328 1.328 0 10-1.878 1.878l1.328 1.328c.25.249.587.389.94.389zm11.06-6a1.26 1.26 0 001.171-.773 1.239 1.239 0 000-.959l-1.455-3.47a1.274 1.274 0 00-2.191-.3 1.24 1.24 0 00-.15 1.259l1.455 3.47c.196.468.658.773 1.17.773zm23.484-5.904a1.275 1.275 0 00-1.66.68L49.098 6.26c-.13.308-.13.655 0 .963A1.264 1.264 0 0050.27 8a1.27 1.27 0 001.174-.776l1.458-3.484c.13-.308.13-.655 0-.963a1.264 1.264 0 00-.687-.681zM66.26 24c.165 0 .328-.034.48-.098l3.483-1.458a1.277 1.277 0 00.285-2.181 1.246 1.246 0 00-1.246-.166l-3.484 1.458c-.556.23-.872.827-.755 1.423A1.26 1.26 0 0066.261 24zm-54-.097a1.253 1.253 0 001.643-.687 1.275 1.275 0 00-.68-1.66l-3.485-1.46a1.253 1.253 0 00-1.643.689c-.266.648.04 1.391.68 1.66l3.485 1.458z"/></g></svg>