<svg xmlns="http://www.w3.org/2000/svg" width="105" height="76"><g fill="#01171A"><path d="M78.4 44.25c-1.253 0-2.504.117-3.735.352C69.47 35.412 59.651 29.72 49 29.72c-10.652 0-20.471 5.694-25.665 14.884A19.777 19.777 0 007.13 48.675C2.616 52.354 0 57.834 0 63.616c0 2.86.68 8.406 2.138 11.225.28.54.84.88 1.454.88h42.141v-3.229H4.67c-.843-2.306-1.402-6.262-1.402-8.876 0-8.913 7.312-16.139 16.333-16.139 9.02 0 16.333 7.226 16.333 16.139H39.2c-.01-8.036-5.033-15.235-12.631-18.1 6.032-9.971 18.06-14.735 29.391-11.64 11.332 3.093 19.178 13.282 19.173 24.898H78.4a28.46 28.46 0 00-2.243-11.144 16.47 16.47 0 0112.97 3.816 16.06 16.06 0 015.606 12.17c0 2.614-.56 6.57-1.402 8.876H65.333v3.228h29.074c.613 0 1.175-.34 1.454-.88C97.32 72.023 98 66.477 98 63.617c-.012-10.69-8.78-19.354-19.6-19.367z"/><path d="M15.696 25.503l9.417 12.556a1.652 1.652 0 002.961-1.196l-1.42-11.36h3.085A8.27 8.27 0 0038 17.242V8.98A8.27 8.27 0 0029.74.72H8.26A8.27 8.27 0 000 8.98v8.26a8.27 8.27 0 008.26 8.262h7.436zM9.913 13.937v-3.304h3.304v3.304H9.913zm13.217 0v-3.304h3.305v3.304H23.13zm-3.304 0h-3.304v-3.304h3.304v3.304zM96.74.72H75.261A8.27 8.27 0 0067 8.981v8.26a8.27 8.27 0 008.26 8.262h3.086l-1.42 11.36a1.652 1.652 0 002.961 1.196l9.417-12.556h7.435A8.27 8.27 0 00105 17.242V8.98a8.27 8.27 0 00-8.26-8.26zm-1.652 9.913v3.305h-3.304v-3.305h3.304zm-16.522 3.305v-3.305h3.305v3.305h-3.305zm6.609 0v-3.305h3.304v3.305h-3.304zm-10.435 30h-7.435L57.887 31.38a1.652 1.652 0 00-2.961 1.197l1.42 11.36H53.26A8.27 8.27 0 0045 52.198v8.261a8.27 8.27 0 008.26 8.261h21.48A8.27 8.27 0 0083 60.46v-8.261a8.27 8.27 0 00-8.26-8.261zm-3.304 9.913v3.304H68.13v-3.304h3.305zm-6.609 0v3.304h-3.304v-3.304h3.304zm-6.609 0v3.304h-3.304v-3.304h3.304z"/></g></svg>