<svg xmlns="http://www.w3.org/2000/svg" viewBox="0 0 512.001 512.001"><path d="M375.22 475.903a7.497 7.497 0 00-10.55-1.064 87.617 87.617 0 01-79.953 16.274 102.451 102.451 0 00-57.434 0 88.25 88.25 0 01-24.718 3.546c-28.696-.001-56.059-14.14-72.663-38.99a102.457 102.457 0 00-43.997-36.917c-35.176-15.478-55.998-51.544-51.814-89.746a102.459 102.459 0 00-9.974-56.562c-16.998-34.468-9.766-75.48 17.995-102.054a102.472 102.472 0 0028.718-49.74 87.494 87.494 0 019.708-23.787 7.498 7.498 0 00-12.905-7.637 102.525 102.525 0 00-11.369 27.861 87.477 87.477 0 01-24.521 42.471C-.768 190.68-9.238 238.712 10.669 279.078a87.457 87.457 0 018.516 48.295c-4.899 44.74 19.486 86.977 60.682 105.104A87.48 87.48 0 01117.436 464c19.447 29.104 51.487 45.662 85.097 45.661 9.607 0 19.343-1.354 28.948-4.153a87.5 87.5 0 0149.043 0 102.474 102.474 0 0028.701 4.101 102.64 102.64 0 0064.932-23.157 7.497 7.497 0 001.063-10.549zM480.258 159.556a87.479 87.479 0 01-24.521-42.471c-10.698-43.717-48.06-75.067-92.97-78.011A87.48 87.48 0 01316.682 22.3c-36.295-26.614-85.068-26.613-121.363 0a87.48 87.48 0 01-46.084 16.774c-22.344 1.464-43.946 10.401-60.831 25.164a7.498 7.498 0 009.871 11.289c14.627-12.79 32.589-20.222 51.941-21.49a102.446 102.446 0 0053.97-19.644c30.992-22.725 72.638-22.725 103.63 0a102.458 102.458 0 0053.971 19.644c38.348 2.513 70.25 29.283 79.385 66.612a102.442 102.442 0 0028.718 49.74c27.761 26.574 34.993 67.587 17.995 102.055a102.457 102.457 0 00-9.974 56.562c4.185 38.202-16.639 74.268-51.815 89.746a102.593 102.593 0 00-42.86 35.278 7.499 7.499 0 0012.304 8.573 87.602 87.602 0 0136.595-30.124c41.196-18.126 65.582-60.364 60.683-105.103a87.49 87.49 0 018.516-48.298c19.905-40.368 11.435-88.399-21.076-119.522z"/><path d="M147.791 233.51a7.498 7.498 0 00-7.498 7.498v19.584a7.498 7.498 0 0014.996 0v-19.584a7.5 7.5 0 00-7.498-7.498zM364.208 233.51a7.498 7.498 0 00-7.498 7.498v19.584a7.498 7.498 0 0014.996 0v-19.584a7.498 7.498 0 00-7.498-7.498zM287.642 253.583a7.5 7.5 0 00-10.58.71c-5.141 5.88-12.818 9.253-21.062 9.253-8.245 0-15.923-3.373-21.062-9.253a7.498 7.498 0 00-11.291 9.869c7.988 9.139 19.78 14.38 32.353 14.38 12.572 0 24.364-5.241 32.352-14.379a7.499 7.499 0 00-.71-10.58zM368.188 101.934l-5.828-2.637a42.269 42.269 0 00-17.537-3.783 42.55 42.55 0 00-22.012 6.135l-10.283 6.215c-15.084 9.116-23.05 26.883-19.822 44.21 3.751 20.141 21.345 34.76 41.833 34.76h16.111c23.464 0 42.552-19.089 42.552-42.552v-3.578c0-16.678-9.819-31.896-25.014-38.77zm10.02 42.346c0 15.195-12.362 27.557-27.557 27.557H334.54c-13.269.001-24.662-9.467-27.092-22.511-2.09-11.221 3.068-22.727 12.837-28.631l10.283-6.215c7.703-4.657 17.414-5.231 25.613-1.523l5.828 2.636c9.841 4.453 16.2 14.307 16.2 25.108v3.579zM166.075 111.014c-5.599-2.985-11.142-5.214-17.605-5.214a31.27 31.27 0 00-16.738 4.848l-5.776 3.652a31.363 31.363 0 00-14.12 21.131 31.369 31.369 0 006.205 24.647l4.78 6.102c5.977 7.631 14.946 12.007 24.607 12.008 12.291 0 23.17-6.896 28.387-17.996l3.864-8.225c7.101-15.108 1.125-33.097-13.604-40.953zm.033 34.574l-3.866 8.224c-2.72 5.786-8.397 9.38-14.816 9.38-5.093 0-9.64-2.223-12.802-6.259l-4.781-6.102c-2.881-3.679-4.03-8.24-3.233-12.845.797-4.604 3.41-8.515 7.359-11.013l5.776-3.652a16.306 16.306 0 018.724-2.526c3.941 0 7.173 1.65 10.55 3.451 7.676 4.093 10.79 13.468 7.089 21.342zM314.003 412.011c-1.23-10.885-7.882-20.164-17.795-24.825l-8.224-3.866a31.055 31.055 0 00-13.307-2.979 31.273 31.273 0 00-27.646 16.583l-1.531 2.87c-5.288 9.916-4.842 21.976 1.164 31.474l3.652 5.776c5.773 9.13 15.678 14.58 26.495 14.581h.001c7.048 0 13.716-2.305 19.283-6.665l6.102-4.78c8.622-6.755 13.036-17.286 11.806-28.169zm-21.055 16.363l-6.102 4.781c-2.902 2.273-6.373 3.475-10.036 3.475-5.645 0-10.813-2.841-13.822-7.601l-3.653-5.776a16.354 16.354 0 01-.606-16.403l1.531-2.87a16.305 16.305 0 0114.415-8.644c2.402 0 4.732.523 6.928 1.555l8.224 3.866c5.166 2.428 8.633 7.265 9.274 12.937s-1.658 11.159-6.153 14.68zM423.367 339.906c-5.531-6.244-13.433-9.826-21.677-9.826-3.344 0-6.665.586-9.872 1.742l-7.706 2.777c-14.526 5.236-22.385 20.91-17.888 35.684l.854 2.805a29.02 29.02 0 0021.347 19.825l6.009 1.354c2.104.474 4.256.714 6.394.714 14.611 0 26.96-10.953 28.725-25.478l.843-6.937c1.015-8.351-1.481-16.398-7.029-22.66zm-7.856 20.851l-.843 6.936c-.852 7.008-6.801 12.292-13.84 12.292-1.032 0-2.074-.117-3.099-.348l-6.009-1.354a13.998 13.998 0 01-10.296-9.561l-.854-2.805a13.96 13.96 0 018.627-17.21l7.706-2.778a14.098 14.098 0 014.786-.854c3.956 0 7.766 1.74 10.453 4.773 2.662 3.005 3.858 6.878 3.369 10.909zM169.181 351.75l-5.929-15.063c-5.513-14.005-18.776-23.755-33.788-24.839l-12.135-.876a39.392 39.392 0 00-32.19 13.042l-2.266 2.537c-9.085 10.176-12.265 24.604-8.297 37.656l3.704 12.185c4.696 15.453 18.674 26.628 34.783 27.807l16.627 1.217c.956.07 1.925.105 2.882.105h.002c15.386 0 29.446-9.056 35.817-23.072 4.384-9.649 4.672-20.838.79-30.699zm-14.444 24.494c-3.944 8.676-12.645 14.281-22.166 14.281-.594 0-1.196-.022-1.789-.065l-16.627-1.217c-9.971-.73-18.623-7.647-21.53-17.211l-3.704-12.185c-2.455-8.078-.487-17.011 5.136-23.308l2.265-2.537a24.387 24.387 0 0119.924-8.073l12.136.876c9.293.67 17.502 6.705 20.915 15.374l5.929 15.063a24.476 24.476 0 01-.489 19.002z"/></svg>