<svg xmlns="http://www.w3.org/2000/svg" width="866" height="866"><g fill="none"><g transform="translate(1 1.469)"><circle cx="432" cy="432" r="228.418" fill="#C7B500" fill-opacity=".2"/><circle cx="432" cy="432" r="432" fill="#F4F0CC" stroke="#C7B500" stroke-opacity=".5"/></g><g transform="translate(101 111.469)"><ellipse cx="246.058" cy="182.521" fill="#EC1C4B" rx="1.938" ry="1.937"/><ellipse cx="349.075" cy="554.068" fill="#F16A43" rx="1.938" ry="1.937"/><ellipse cx="285.467" cy="237.529" fill="#56BFBF" rx="1.938" ry="1.937"/><ellipse cx="451.687" cy="468.878" fill="#A6206A" rx="1.938" ry="1.937"/><ellipse cx="465.23" cy="465.635" fill="#BF7222" rx="1.938" ry="1.937"/><ellipse cx="243.708" cy="202.816" fill="#EC1C4B" rx="10.588" ry="10.609"/><ellipse cx="312.358" cy="302.199" fill="#F16A43" rx="7.622" ry="7.637"/><ellipse cx="386.142" cy="618.037" fill="#56BFBF" rx="61.411" ry="61.531"/><ellipse cx="366.121" cy="536.785" fill="#A6206A" rx="14.44" ry="14.468"/><ellipse cx="428.474" cy="228.955" fill="#BF7222" rx="11.164" ry="11.186"/><ellipse cx="307.467" cy="399.807" fill="#EC1C4B" rx="1.938" ry="1.937"/><ellipse cx="293.948" cy="71.251" fill="#F16A43" rx="1.938" ry="1.937"/><ellipse cx="425.719" cy="212.055" fill="#56BFBF" rx="1.938" ry="1.937"/><ellipse cx="303.091" cy="405.21" fill="#A6206A" rx="1.938" ry="1.937"/><ellipse cx="532.442" cy="357.097" fill="#BF7222" rx="1.938" ry="1.937"/><ellipse cx="96.491" cy="443.602" fill="#EC1C4B" rx="5.933" ry="5.944"/><ellipse cx="303.515" cy="252.179" fill="#F16A43" rx="7.521" ry="7.534"/><ellipse cx="381.862" cy="494.709" fill="#56BFBF" rx="21.745" ry="21.785"/><ellipse cx="398.197" cy="537.438" fill="#A6206A" rx="11.797" ry="11.822"/><ellipse cx="563.037" cy="255.149" fill="#BF7222" rx="8.223" ry="8.237"/><ellipse cx="309.052" cy="285.889" fill="#EC1C4B" rx="1.938" ry="1.937"/><ellipse cx="369.987" cy="466.567" fill="#F16A43" rx="1.938" ry="1.937"/><ellipse cx="356.839" cy="256.654" fill="#56BFBF" rx="1.938" ry="1.937"/><ellipse cx="527.3" cy="324.25" fill="#A6206A" rx="1.938" ry="1.937"/><ellipse cx="439.396" cy="185.828" fill="#BF7222" rx="1.938" ry="1.937"/><ellipse cx="256.097" cy="63.132" fill="#EC1C4B" rx="28.627" ry="28.682"/><ellipse cx="439.979" cy="204.546" fill="#F16A43" rx="7.998" ry="8.013"/><ellipse cx="611.61" cy="325.666" fill="#56BFBF" rx="67.721" ry="67.853"/><ellipse cx="557.481" cy="156.977" fill="#A6206A" rx="29.983" ry="30.04"/><ellipse cx="570.719" cy="218.755" fill="#BF7222" rx="19.855" ry="19.892"/><ellipse cx="299.293" cy="335.091" fill="#EC1C4B" rx="3.162" ry="3.168"/><ellipse cx="464.186" cy="477.197" fill="#F16A43" rx="1.938" ry="1.937"/><ellipse cx="40.497" cy="249.982" fill="#56BFBF" rx="23.227" ry="23.271"/><ellipse cx="339.967" cy="261.583" fill="#A6206A" rx="7.729" ry="7.743"/><ellipse cx="412.879" cy="514.564" fill="#BF7222" rx="8.901" ry="8.917"/><ellipse cx="413.431" cy="491.745" fill="#F16A43" rx="2.03" ry="2.034"/><ellipse cx="153.676" cy="141.13" fill="#56BFBF" rx="90.125" ry="90.299"/><ellipse cx="531.194" cy="296.125" fill="#A6206A" rx="13.716" ry="13.743"/><ellipse cx="448.554" cy="142.786" fill="#BF7222" rx="13.741" ry="13.769"/><ellipse cx="146.262" cy="398.164" fill="#EC1C4B" rx="1.938" ry="1.937"/><ellipse cx="517.884" cy="410.656" fill="#F16A43" rx="1.938" ry="1.937"/><ellipse cx="443.244" cy="242.934" fill="#56BFBF" rx="1.938" ry="1.937"/><ellipse cx="545.565" cy="281.555" fill="#A6206A" rx="1.938" ry="1.937"/><ellipse cx="537.29" cy="313.294" fill="#BF7222" rx="1.938" ry="1.937"/><ellipse cx="485.839" cy="178.11" fill="#EC1C4B" rx="35.102" ry="35.17"/><ellipse cx="144.471" cy="319.11" fill="#F16A43" rx="18.426" ry="18.461"/><ellipse cx="220.346" cy="511.467" fill="#56BFBF" rx="125.434" ry="125.678"/><ellipse cx="499.648" cy="581.336" fill="#A6206A" rx="37.157" ry="37.23"/><ellipse cx="535.842" cy="408.043" fill="#BF7222" rx="12.803" ry="12.829"/><ellipse cx="262.589" cy="372.594" fill="#EC1C4B" rx="11.263" ry="11.285"/><ellipse cx="488.846" cy="458.376" fill="#F16A43" rx="8.975" ry="8.991"/><ellipse cx="66.628" cy="367.121" fill="#56BFBF" rx="66.458" ry="66.588"/><ellipse cx="440.539" cy="491.683" fill="#A6206A" rx="17.947" ry="17.982"/><ellipse cx="584.892" cy="487.093" fill="#BF7222" rx="16.889" ry="16.923"/><ellipse cx="302.257" cy="327.471" fill="#EC1C4B" rx="1.938" ry="1.937"/><ellipse cx="316.517" cy="422.987" fill="#F16A43" rx="1.938" ry="1.937"/><ellipse cx="352.979" cy="484.433" fill="#56BFBF" rx="1.938" ry="1.937"/><ellipse cx="533.467" cy="320.987" fill="#A6206A" rx="1.938" ry="1.937"/><ellipse cx="530.613" cy="183.629" fill="#BF7222" rx="1.938" ry="1.937"/><ellipse cx="291.685" cy="242.52" fill="#EC1C4B" rx="1.938" ry="1.937"/><ellipse cx="401.99" cy="239.596" fill="#F16A43" rx="1.938" ry="1.937"/><ellipse cx="291.078" cy="340.101" fill="#56BFBF" rx="1.938" ry="1.937"/><ellipse cx="536.761" cy="337.073" fill="#A6206A" rx="1.938" ry="1.937"/><ellipse cx="517.084" cy="415.759" fill="#BF7222" rx="1.938" ry="1.937"/><ellipse cx="152.758" cy="250.684" fill="#EC1C4B" rx="11.547" ry="11.57"/><ellipse cx="413.259" cy="479.927" fill="#F16A43" rx="3.358" ry="3.365"/><ellipse cx="46.168" cy="482.99" fill="#56BFBF" rx="41.141" ry="41.22"/><ellipse cx="463.529" cy="233.624" fill="#A6206A" rx="14.035" ry="14.063"/><ellipse cx="517.254" cy="434.15" fill="#BF7222" rx="9.796" ry="9.814"/><ellipse cx="171.162" cy="246.433" fill="#EC1C4B" rx="1.938" ry="1.937"/><ellipse cx="409.316" cy="498.913" fill="#F16A43" rx="1.938" ry="1.937"/><ellipse cx="458.652" cy="468.627" fill="#56BFBF" rx="1.938" ry="1.937"/><ellipse cx="527.029" cy="316.789" fill="#A6206A" rx="1.938" ry="1.937"/><ellipse cx="529.555" cy="331.78" fill="#BF7222" rx="1.938" ry="1.937"/><ellipse cx="144.762" cy="283.103" fill="#EC1C4B" rx="11.263" ry="11.285"/><ellipse cx="355.471" cy="470.572" fill="#F16A43" rx="8.975" ry="8.991"/><ellipse cx="484.789" cy="66.661" fill="#56BFBF" rx="66.458" ry="66.588"/><ellipse cx="552.552" cy="517.263" fill="#A6206A" rx="17.947" ry="17.982"/><ellipse cx="543.871" cy="473.861" fill="#BF7222" rx="16.889" ry="16.923"/><ellipse cx="318.844" cy="279.087" fill="#EC1C4B" rx="11.284" ry="11.306"/><ellipse cx="341.864" cy="451.14" fill="#F16A43" rx="2.03" ry="2.034"/><ellipse cx="342.935" cy="158.054" fill="#56BFBF" rx="90.125" ry="90.299"/><ellipse cx="575.792" cy="445.741" fill="#A6206A" rx="13.716" ry="13.743"/><ellipse cx="572.056" cy="408.188" fill="#BF7222" rx="13.741" ry="13.769"/><ellipse cx="288.74" cy="370.29" fill="#EC1C4B" rx="7.609" ry="7.623"/><ellipse cx="312.918" cy="415.935" fill="#F16A43" rx="1.938" ry="1.937"/><ellipse cx="443.275" cy="540.918" fill="#56BFBF" rx="22.084" ry="22.126"/><ellipse cx="536.36" cy="201.708" fill="#A6206A" rx="9.643" ry="9.661"/><ellipse cx="553.931" cy="557.338" fill="#BF7222" rx="12.39" ry="12.414"/><ellipse cx="243.623" cy="378.032" fill="#EC1C4B" rx="1.938" ry="1.937"/><ellipse cx="154.595" cy="393.478" fill="#F16A43" rx="1.938" ry="1.937"/><ellipse cx="340.891" cy="459.947" fill="#56BFBF" rx="1.938" ry="1.937"/><ellipse cx="548.473" cy="272.132" fill="#A6206A" rx="1.938" ry="1.937"/><ellipse cx="554.181" cy="421.276" fill="#BF7222" rx="1.938" ry="1.937"/><ellipse cx="177.004" cy="236.766" fill="#EC1C4B" rx="1.938" ry="1.937"/><ellipse cx="280.317" cy="391.996" fill="#F16A43" rx="1.938" ry="1.937"/><ellipse cx="225.424" cy="211.72" fill="#56BFBF" rx="1.938" ry="1.937"/><ellipse cx="538.307" cy="384.952" fill="#A6206A" rx="1.938" ry="1.937"/><ellipse cx="568.499" cy="468.204" fill="#BF7222" rx="1.938" ry="1.937"/><ellipse cx="86.769" cy="219.778" fill="#EC1C4B" rx="3.203" ry="3.21"/><ellipse cx="230.905" cy="372.222" fill="#F16A43" rx="3.772" ry="3.78"/><ellipse cx="293.076" cy="392.701" fill="#56BFBF" rx="8.676" ry="8.693"/><ellipse cx="544.067" cy="437.554" fill="#A6206A" rx="9.234" ry="9.251"/><ellipse cx="539.33" cy="368.674" fill="#BF7222" rx="6.113" ry="6.124"/><ellipse cx="70.943" cy="287.75" fill="#EC1C4B" rx="3.162" ry="3.168"/><ellipse cx="303.885" cy="319.703" fill="#F16A43" rx="1.938" ry="1.937"/><ellipse cx="165.53" cy="362.957" fill="#56BFBF" rx="23.227" ry="23.271"/><ellipse cx="512.073" cy="459.711" fill="#A6206A" rx="7.729" ry="7.743"/><ellipse cx="608.204" cy="461.515" fill="#BF7222" rx="8.901" ry="8.917"/><ellipse cx="118.788" cy="302.261" fill="#EC1C4B" rx="8.583" ry="8.6"/><ellipse cx="314.386" cy="260.866" fill="#F16A43" rx="6.427" ry="6.44"/><ellipse cx="415.597" cy="357.591" fill="#56BFBF" rx="108.783" ry="108.994"/><ellipse cx="516.283" cy="247.41" fill="#A6206A" rx="30.378" ry="30.437"/><ellipse cx="553.925" cy="385.264" fill="#BF7222" rx="6.649" ry="6.662"/><ellipse cx="145.81" cy="388.472" fill="#EC1C4B" rx="1.938" ry="1.937"/><ellipse cx="307.529" cy="314.679" fill="#F16A43" rx="1.938" ry="1.937"/><ellipse cx="272.713" cy="388.501" fill="#56BFBF" rx="1.938" ry="1.937"/><ellipse cx="533.279" cy="350.13" fill="#A6206A" rx="1.938" ry="1.937"/><ellipse cx="535.616" cy="327.888" fill="#BF7222" rx="1.938" ry="1.937"/><ellipse cx="101.069" cy="258.468" fill="#EC1C4B" rx="28.627" ry="28.682"/><ellipse cx="291.867" cy="351.965" fill="#F16A43" rx="7.998" ry="8.013"/><ellipse cx="233.997" cy="288.678" fill="#56BFBF" rx="67.721" ry="67.853"/><ellipse cx="495.976" cy="504.668" fill="#A6206A" rx="29.983" ry="30.04"/><ellipse cx="612.746" cy="422.995" fill="#BF7222" rx="19.855" ry="19.892"/><ellipse cx="168.733" cy="238.618" fill="#EC1C4B" rx="1.938" ry="1.937"/><ellipse cx="279.951" cy="381.649" fill="#F16A43" rx="1.938" ry="1.937"/><ellipse cx="308.043" cy="407.855" fill="#56BFBF" rx="1.938" ry="1.937"/><ellipse cx="533.407" cy="341.219" fill="#A6206A" rx="1.938" ry="1.937"/><ellipse cx="530.904" cy="386.709" fill="#BF7222" rx="1.938" ry="1.937"/><ellipse cx="158.53" cy="271.097" fill="#EC1C4B" rx="1.938" ry="1.937"/><ellipse cx="219.414" cy="365.28" fill="#F16A43" rx="1.938" ry="1.937"/><ellipse cx="243.164" cy="366.148" fill="#56BFBF" rx="1.938" ry="1.937"/><ellipse cx="470.99" cy="463.047" fill="#A6206A" rx="1.938" ry="1.937"/><ellipse cx="540.33" cy="354.342" fill="#BF7222" rx="1.938" ry="1.937"/></g></g></svg>