<svg xmlns="http://www.w3.org/2000/svg" width="30" height="40"><g fill="#030226"><path d="M14.954 0C6.713 0 .009 6.613.009 14.743c0 2.676 1.216 5.554 1.267 5.675a23.67 23.67 0 001.728 3.187l10.247 15.316c.42.628 1.04.988 1.703.988s1.283-.36 1.703-.987l10.248-15.317a23.572 23.572 0 001.727-3.187c.051-.12 1.267-2.998 1.267-5.675C29.899 6.613 23.195 0 14.954 0zM27.01 19.745a21.688 21.688 0 01-1.575 2.906L15.19 37.967c-.203.303-.267.303-.469 0L4.472 22.651a21.698 21.698 0 01-1.574-2.906c-.015-.036-1.131-2.685-1.131-5.002 0-7.173 5.916-13.009 13.187-13.009 7.271 0 13.187 5.836 13.187 13.009 0 2.32-1.119 4.976-1.13 5.002z"/><path d="M14.954 6.939c-4.363 0-7.912 3.501-7.912 7.804 0 4.304 3.549 7.805 7.912 7.805 4.363 0 7.912-3.501 7.912-7.805 0-4.303-3.55-7.804-7.912-7.804zm0 13.875c-3.393 0-6.154-2.723-6.154-6.07 0-3.348 2.761-6.071 6.154-6.071 3.392 0 6.154 2.723 6.154 6.07 0 3.348-2.762 6.07-6.154 6.07z"/></g></svg>