<svg xmlns="http://www.w3.org/2000/svg" width="106" height="107"><path d="M103.701 0H13.313c-.48 0-.952.19-1.26.558-.673.803-.373 1.95.454 2.395L33.59 14.305a.008.008 0 01.004.006l4.908 32.723c.176 1.134 1.522 1.715 2.463 1.047l20.59-14.63a.008.008 0 01.007 0l14.591 8.025a1.585 1.585 0 002.046-.48l15.342-22.052a1.57 1.57 0 00-2.58-1.794l-14.53 20.887a.008.008 0 01-.009.003L47.324 22.036c-.006-.003-.005-.012.002-.014L99.7 4.563c.007-.002.013.006.009.012l-4.342 6.242c-.494.71-.38 1.711.318 2.222a1.57 1.57 0 002.219-.369l7.098-10.203a1.6 1.6 0 00.118-.204c.51-1.035-.276-2.263-1.42-2.263zm-45.21 31.762a.008.008 0 010 .013L42.103 43.419a.008.008 0 01-.012-.007l2.566-19.246c.001-.006.007-.008.012-.006l13.822 7.602zM83.638 6.607l-40.73 13.576a1.59 1.59 0 00-1.06 1.282l-1.877 14.086c-.002.009-.014.009-.015 0l-3.144-20.958c0-.004.002-.008.006-.008l46.817-7.993c.009-.002.012.011.003.015zm1.456-3.45l-49.793 8.5h-.005L19.508 3.155c-.007-.003-.004-.014.003-.014h65.581c.01 0 .01.014.002.015zM28.24 62.853c-.44.007-.89.025-1.334.053a1.57 1.57 0 00.203 3.135 24.04 24.04 0 011.178-.047 1.57 1.57 0 10-.047-3.14zm7.718 1.107a21.916 21.916 0 00-2.542-.656 1.57 1.57 0 10-.605 3.083c.75.147 1.482.336 2.177.561a1.586 1.586 0 001.979-1.009 1.571 1.571 0 00-1.01-1.979zM19.606 78.497a15.118 15.118 0 01-.211-2.196 1.57 1.57 0 00-3.14.073c.02.894.106 1.786.255 2.653.144.843.97 1.428 1.813 1.283a1.57 1.57 0 001.283-1.813zm7.662 9.699a10.71 10.71 0 01-1.92-.905 1.571 1.571 0 00-1.613 2.695 13.89 13.89 0 002.483 1.17 1.586 1.586 0 002.04-1.067 1.586 1.586 0 00-.99-1.893zm2.039-31.411a1.57 1.57 0 00-2.207-.254c-.666.529-1.32 1.09-1.942 1.67a1.57 1.57 0 00-.079 2.22 1.586 1.586 0 002.22.079 29.24 29.24 0 011.754-1.508 1.57 1.57 0 00.254-2.207zM22.17 84.448a12.667 12.667 0 01-1.172-1.82 1.57 1.57 0 00-2.776 1.468 15.82 15.82 0 001.463 2.274c.565.73 1.672.81 2.336.167a1.586 1.586 0 00.149-2.089zm-2.356-16.683a1.57 1.57 0 00-2.06.83c-.375.88-.682 1.745-.887 2.502a1.57 1.57 0 003.031.822 16.34 16.34 0 01.745-2.093 1.57 1.57 0 00-.829-2.06zm4.09-6.06a1.57 1.57 0 00-2.205.272 31.82 31.82 0 00-1.494 2.085 1.57 1.57 0 00.45 2.175c.715.47 1.704.265 2.174-.45a28.78 28.78 0 011.347-1.878 1.571 1.571 0 00-.273-2.204zm18.918 6.376a14.339 14.339 0 00-2.081-1.774 1.57 1.57 0 10-1.806 2.57c.6.422 1.147.887 1.625 1.383a1.586 1.586 0 002.22.042 1.57 1.57 0 00.042-2.221zM35.486 89.72a1.57 1.57 0 00-1.865-1.207c-.654.14-1.34.233-2.04.276l-.122.007a1.57 1.57 0 00.156 3.137l.16-.009a16.908 16.908 0 002.505-.34 1.57 1.57 0 001.206-1.864zm10.71-14.14a12.492 12.492 0 00-.518-2.735 1.57 1.57 0 10-2.999.934c.2.64.329 1.328.385 2.046.067.853.835 1.51 1.688 1.444a1.586 1.586 0 001.444-1.689zm-1.653 3.437a1.571 1.571 0 00-1.952 1.062c-.204.693-.47 1.372-.788 2.02a1.57 1.57 0 00.716 2.102 1.585 1.585 0 002.102-.716c.397-.807.728-1.654.983-2.517a1.57 1.57 0 00-1.061-1.95zm-8.84-25.761a1.57 1.57 0 00-2.09-.754c-.77.362-1.535.757-2.27 1.173a1.585 1.585 0 00-.765 1.685c.15.721.803 1.253 1.54 1.253.262 0 .527-.066.772-.204.666-.377 1.36-.735 2.059-1.064a1.57 1.57 0 00.754-2.09zm5.783 32.369a1.57 1.57 0 00-2.22-.058c-.52.493-1.085.939-1.683 1.325a1.57 1.57 0 00-.468 2.17 1.585 1.585 0 002.172.468 14.699 14.699 0 002.142-1.685 1.57 1.57 0 00.057-2.22zm.086-34.204a1.571 1.571 0 00-1.922-1.112 38.77 38.77 0 00-1.261.36 1.586 1.586 0 00-1.068 1.876 1.585 1.585 0 001.984 1.129c.378-.115.767-.226 1.155-.33a1.571 1.571 0 001.112-1.923zm-35.3 53.292a29.682 29.682 0 01-.527-1.071 1.57 1.57 0 00-2.846 1.327c.184.396.38.795.581 1.184a1.585 1.585 0 002.116.676 1.57 1.57 0 00.675-2.116zm-2.085-5.24a26.563 26.563 0 01-.516-2.158 1.57 1.57 0 10-3.083.602c.157.806.352 1.618.578 2.415a1.585 1.585 0 001.94 1.082 1.57 1.57 0 001.081-1.94zM1.775 89.027a1.573 1.573 0 00-1.668 1.467c-.039.616-.059 1.24-.059 1.856 0 .565-.02 1.114.352 1.578.302.376.774.6 1.259.587a1.58 1.58 0 001.224-.63c.348-.466.306-.984.306-1.535 0-.55.018-1.106.053-1.656a1.57 1.57 0 00-1.467-1.667zm1.705-6.84A1.57 1.57 0 001.503 83.2c-.253.785-.477 1.589-.665 2.388a1.57 1.57 0 001.17 1.888 1.585 1.585 0 001.888-1.17c.168-.716.37-1.436.597-2.141a1.57 1.57 0 00-1.013-1.977zm8.01-11.468a1.57 1.57 0 00-2.22-.052 27.398 27.398 0 00-1.725 1.801 1.57 1.57 0 00.148 2.216 1.586 1.586 0 002.216-.149 24.281 24.281 0 011.528-1.596 1.57 1.57 0 00.053-2.22zM6.768 75.95a1.571 1.571 0 00-2.16.515c-.431.7-.839 1.426-1.213 2.16a1.57 1.57 0 00.685 2.112c.764.39 1.724.077 2.113-.685.336-.66.703-1.313 1.09-1.942a1.57 1.57 0 00-.515-2.16zm9.67-8.558a1.57 1.57 0 00-2.154-.542c-.379.226-.757.464-1.126.708a1.57 1.57 0 00-.44 2.177 1.586 1.586 0 002.177.44c.327-.216.663-.428 1-.629a1.57 1.57 0 00.542-2.154z" fill="#01171A"/></svg>