<svg xmlns="http://www.w3.org/2000/svg" width="461" height="213" viewBox="0 0 461 213">
  <g fill="none">
    <circle cx="367.221" cy="10.756" r="10.6" fill="#F25857" fill-opacity=".294" transform="rotate(90 367.221 10.756)"/>
    <circle cx="401.673" cy="58.974" r="58.974" fill="#F25857" fill-opacity=".601" transform="rotate(90 401.673 58.974)"/>
    <circle cx="192.392" cy="37.333" r="8.254" fill="#F25857" fill-opacity=".7" transform="rotate(90 192.392 37.333)"/>
    <circle cx="171.896" cy="35.361" r="8.035" fill="#F25857" fill-opacity=".2" transform="rotate(90 171.896 35.36)"/>
    <circle cx="197.541" cy="49.809" r="8.038" fill="#F25C69" fill-opacity=".5" transform="rotate(90 197.541 49.809)"/>
    <circle cx="104.31" cy="10.565" r="8.003" fill="#5397A6" fill-opacity=".2" transform="rotate(90 104.31 10.565)"/>
    <circle cx="348.323" cy="39.759" r="8.027" fill="#5397A6" fill-opacity=".875" transform="rotate(90 348.323 39.76)"/>
    <circle cx="165.646" cy="86.423" r="34" fill="#F2BB9C" fill-opacity=".7" transform="rotate(90 165.646 86.423)"/>
    <circle cx="204.996" cy="30.729" r="8.65" fill="#F25C69" transform="rotate(90 204.996 30.73)"/>
    <circle cx="265.782" cy="58.094" r="23.6" fill="#F25C69" fill-opacity=".763" transform="rotate(90 265.782 58.094)"/>
    <circle cx="183.646" cy="44.079" r="5" fill="#F2BB9C" fill-opacity=".6" transform="rotate(90 183.646 44.08)"/>
    <circle cx="34" cy="178.324" r="34" fill="#F2BB9C" fill-opacity=".803" transform="rotate(90 34 178.324)"/>
    <circle cx="152.05" cy="183.956" r="13.2" fill="#5397A6" transform="rotate(90 152.05 183.956)"/>
    <circle cx="82.282" cy="37.609" r="10.6" fill="#F2BB9C" fill-opacity=".8" transform="rotate(90 82.282 37.609)"/>
    <circle cx="116.581" cy="43.049" r="34" fill="#F25C69" fill-opacity=".704" transform="rotate(90 116.581 43.05)"/>
    <circle cx="107.88" cy="138.949" r="60" fill="#5397A6" fill-opacity=".568" transform="rotate(90 107.88 138.949)"/>
    <circle cx="68.294" cy="38.659" r="5" fill="#5397A6" fill-opacity=".7" transform="rotate(90 68.294 38.659)"/>
  </g>
</svg>
