<svg xmlns="http://www.w3.org/2000/svg" xmlns:xlink="http://www.w3.org/1999/xlink" width="370" height="381"><defs><path id="a" d="M0 0h370v380H0z"/></defs><g fill="none" fill-rule="evenodd" transform="translate(0 .807)"><mask id="b" fill="#fff"><use xlink:href="#a"/></mask><use fill="#FFF" xlink:href="#a"/><g fill-rule="nonzero" mask="url(#b)"><g fill-opacity=".2" fill="#C7B500" transform="translate(-76 25.193)"><circle cx="223" cy="223" r="117.91"/><circle cx="223" cy="223" r="223" stroke="#C7B500" stroke-opacity=".5"/></g><g transform="translate(-26 82.193)"><circle cx="128.514" cy="94.213" fill="#EC1C4B" r="1"/><circle cx="181.684" cy="285.997" fill="#F16A43" r="1"/><circle cx="148.854" cy="122.607" fill="#56BFBF" r="1"/><circle cx="234.645" cy="242.024" fill="#A6206A" r="1"/><circle cx="241.635" cy="240.35" fill="#BF7222" r="1"/><ellipse cx="127.301" cy="104.689" fill="#EC1C4B" rx="5.465" ry="5.476"/><ellipse cx="162.733" cy="155.988" fill="#F16A43" rx="3.934" ry="3.942"/><ellipse cx="200.815" cy="319.016" fill="#56BFBF" rx="31.696" ry="31.761"/><ellipse cx="190.482" cy="277.076" fill="#A6206A" rx="7.453" ry="7.468"/><ellipse cx="222.664" cy="118.181" fill="#BF7222" rx="5.762" ry="5.774"/><circle cx="160.209" cy="206.371" fill="#EC1C4B" r="1"/><circle cx="153.231" cy="36.778" fill="#F16A43" r="1"/><circle cx="221.242" cy="109.458" fill="#56BFBF" r="1"/><circle cx="157.95" cy="209.16" fill="#A6206A" r="1"/><circle cx="276.325" cy="184.325" fill="#BF7222" r="1"/><ellipse cx="51.318" cy="228.977" fill="#EC1C4B" rx="3.062" ry="3.068"/><ellipse cx="158.169" cy="130.169" fill="#F16A43" rx="3.882" ry="3.889"/><ellipse cx="198.606" cy="255.357" fill="#56BFBF" rx="11.223" ry="11.245"/><ellipse cx="207.037" cy="277.413" fill="#A6206A" rx="6.089" ry="6.102"/><ellipse cx="292.116" cy="131.702" fill="#BF7222" rx="4.244" ry="4.252"/><circle cx="161.027" cy="147.569" fill="#EC1C4B" r="1"/><circle cx="192.477" cy="240.831" fill="#F16A43" r="1"/><circle cx="185.691" cy="132.479" fill="#56BFBF" r="1"/><circle cx="273.671" cy="167.37" fill="#A6206A" r="1"/><circle cx="228.301" cy="95.92" fill="#BF7222" r="1"/><ellipse cx="133.695" cy="32.587" fill="#EC1C4B" rx="14.775" ry="14.805"/><ellipse cx="228.602" cy="105.582" fill="#F16A43" rx="4.128" ry="4.136"/><ellipse cx="317.186" cy="168.101" fill="#56BFBF" rx="34.953" ry="35.024"/><ellipse cx="289.248" cy="81.028" fill="#A6206A" rx="15.475" ry="15.506"/><ellipse cx="296.081" cy="112.916" fill="#BF7222" rx="10.248" ry="10.268"/><ellipse cx="155.99" cy="172.966" fill="#EC1C4B" rx="1.632" ry="1.635"/><circle cx="241.096" cy="246.318" fill="#F16A43" r="1"/><ellipse cx="22.418" cy="129.035" fill="#56BFBF" rx="11.988" ry="12.012"/><ellipse cx="176.983" cy="135.023" fill="#A6206A" rx="3.989" ry="3.997"/><ellipse cx="214.615" cy="265.606" fill="#BF7222" rx="4.594" ry="4.603"/><ellipse cx="214.9" cy="253.827" fill="#F16A43" rx="1.048" ry="1.05"/><ellipse cx="80.833" cy="72.848" fill="#56BFBF" rx="46.516" ry="46.61"/><ellipse cx="275.681" cy="152.853" fill="#A6206A" rx="7.079" ry="7.094"/><ellipse cx="233.028" cy="73.703" fill="#BF7222" rx="7.092" ry="7.107"/><circle cx="77.006" cy="205.523" fill="#EC1C4B" r="1"/><circle cx="268.811" cy="211.971" fill="#F16A43" r="1"/><circle cx="230.287" cy="125.397" fill="#56BFBF" r="1"/><circle cx="283.098" cy="145.332" fill="#A6206A" r="1"/><circle cx="278.827" cy="161.715" fill="#BF7222" r="1"/><ellipse cx="252.272" cy="91.936" fill="#EC1C4B" rx="18.117" ry="18.154"/><ellipse cx="76.082" cy="164.717" fill="#F16A43" rx="9.51" ry="9.529"/><ellipse cx="115.243" cy="264.007" fill="#56BFBF" rx="64.74" ry="64.872"/><ellipse cx="259.399" cy="300.072" fill="#A6206A" rx="19.178" ry="19.217"/><ellipse cx="278.08" cy="210.622" fill="#BF7222" rx="6.608" ry="6.622"/><ellipse cx="137.046" cy="192.324" fill="#EC1C4B" rx="5.813" ry="5.825"/><ellipse cx="253.824" cy="236.603" fill="#F16A43" rx="4.632" ry="4.641"/><ellipse cx="35.905" cy="189.499" fill="#56BFBF" rx="34.301" ry="34.371"/><ellipse cx="228.891" cy="253.795" fill="#A6206A" rx="9.263" ry="9.282"/><ellipse cx="303.396" cy="251.426" fill="#BF7222" rx="8.717" ry="8.735"/><circle cx="157.52" cy="169.033" fill="#EC1C4B" r="1"/><circle cx="164.88" cy="218.336" fill="#F16A43" r="1"/><circle cx="183.699" cy="250.053" fill="#56BFBF" r="1"/><circle cx="276.854" cy="165.686" fill="#A6206A" r="1"/><circle cx="275.381" cy="94.785" fill="#BF7222" r="1"/><circle cx="152.063" cy="125.183" fill="#EC1C4B" r="1"/><circle cx="208.995" cy="123.674" fill="#F16A43" r="1"/><circle cx="151.75" cy="175.552" fill="#56BFBF" r="1"/><circle cx="278.554" cy="173.989" fill="#A6206A" r="1"/><circle cx="268.398" cy="214.605" fill="#BF7222" r="1"/><ellipse cx="80.359" cy="129.397" fill="#EC1C4B" rx="5.96" ry="5.972"/><ellipse cx="214.811" cy="247.727" fill="#F16A43" rx="1.733" ry="1.737"/><ellipse cx="25.345" cy="249.308" fill="#56BFBF" rx="21.234" ry="21.277"/><ellipse cx="240.757" cy="120.591" fill="#A6206A" rx="7.244" ry="7.259"/><ellipse cx="268.486" cy="224.098" fill="#BF7222" rx="5.056" ry="5.066"/><circle cx="89.858" cy="127.203" fill="#EC1C4B" r="1"/><circle cx="212.776" cy="257.527" fill="#F16A43" r="1"/><circle cx="238.24" cy="241.894" fill="#56BFBF" r="1"/><circle cx="273.531" cy="163.519" fill="#A6206A" r="1"/><circle cx="274.835" cy="171.257" fill="#BF7222" r="1"/><ellipse cx="76.232" cy="146.131" fill="#EC1C4B" rx="5.813" ry="5.825"/><ellipse cx="184.985" cy="242.898" fill="#F16A43" rx="4.632" ry="4.641"/><ellipse cx="251.73" cy="34.409" fill="#56BFBF" rx="34.301" ry="34.371"/><ellipse cx="286.704" cy="266.999" fill="#A6206A" rx="9.263" ry="9.282"/><ellipse cx="282.224" cy="244.596" fill="#BF7222" rx="8.717" ry="8.735"/><ellipse cx="166.081" cy="144.058" fill="#EC1C4B" rx="5.824" ry="5.836"/><ellipse cx="177.962" cy="232.868" fill="#F16A43" rx="1.048" ry="1.05"/><ellipse cx="178.515" cy="81.584" fill="#56BFBF" rx="46.516" ry="46.61"/><ellipse cx="298.699" cy="230.081" fill="#A6206A" rx="7.079" ry="7.094"/><ellipse cx="296.771" cy="210.697" fill="#BF7222" rx="7.092" ry="7.107"/><ellipse cx="150.543" cy="191.135" fill="#EC1C4B" rx="3.927" ry="3.935"/><circle cx="163.022" cy="214.696" fill="#F16A43" r="1"/><ellipse cx="230.303" cy="279.209" fill="#56BFBF" rx="11.398" ry="11.421"/><ellipse cx="278.347" cy="104.117" fill="#A6206A" rx="4.977" ry="4.987"/><ellipse cx="287.416" cy="287.685" fill="#BF7222" rx="6.395" ry="6.408"/><circle cx="127.257" cy="195.131" fill="#EC1C4B" r="1"/><circle cx="81.307" cy="203.104" fill="#F16A43" r="1"/><circle cx="177.46" cy="237.414" fill="#56BFBF" r="1"/><circle cx="284.599" cy="140.468" fill="#A6206A" r="1"/><circle cx="287.545" cy="217.453" fill="#BF7222" r="1"/><circle cx="92.873" cy="122.213" fill="#EC1C4B" r="1"/><circle cx="146.196" cy="202.339" fill="#F16A43" r="1"/><circle cx="117.864" cy="109.285" fill="#56BFBF" r="1"/><circle cx="279.352" cy="198.703" fill="#A6206A" r="1"/><circle cx="294.935" cy="241.676" fill="#BF7222" r="1"/><ellipse cx="46.3" cy="113.444" fill="#EC1C4B" rx="1.653" ry="1.657"/><ellipse cx="120.693" cy="192.132" fill="#F16A43" rx="1.947" ry="1.951"/><ellipse cx="152.781" cy="202.703" fill="#56BFBF" rx="4.478" ry="4.487"/><ellipse cx="282.325" cy="225.855" fill="#A6206A" rx="4.766" ry="4.775"/><ellipse cx="279.88" cy="190.301" fill="#BF7222" rx="3.155" ry="3.161"/><ellipse cx="38.132" cy="148.53" fill="#EC1C4B" rx="1.632" ry="1.635"/><circle cx="158.36" cy="165.023" fill="#F16A43" r="1"/><ellipse cx="86.951" cy="187.35" fill="#56BFBF" rx="11.988" ry="12.012"/><ellipse cx="265.812" cy="237.292" fill="#A6206A" rx="3.989" ry="3.997"/><ellipse cx="315.428" cy="238.223" fill="#BF7222" rx="4.594" ry="4.603"/><ellipse cx="62.826" cy="156.02" fill="#EC1C4B" rx="4.43" ry="4.439"/><ellipse cx="163.78" cy="134.653" fill="#F16A43" rx="3.317" ry="3.324"/><ellipse cx="216.018" cy="184.58" fill="#56BFBF" rx="56.146" ry="56.26"/><ellipse cx="267.985" cy="127.707" fill="#A6206A" rx="15.679" ry="15.711"/><ellipse cx="287.413" cy="198.864" fill="#BF7222" rx="3.432" ry="3.439"/><circle cx="76.773" cy="200.52" fill="#EC1C4B" r="1"/><circle cx="160.241" cy="162.43" fill="#F16A43" r="1"/><circle cx="142.271" cy="200.535" fill="#56BFBF" r="1"/><circle cx="276.757" cy="180.729" fill="#A6206A" r="1"/><circle cx="277.963" cy="169.248" fill="#BF7222" r="1"/><ellipse cx="53.681" cy="133.415" fill="#EC1C4B" rx="14.775" ry="14.805"/><ellipse cx="152.157" cy="181.676" fill="#F16A43" rx="4.128" ry="4.136"/><ellipse cx="122.289" cy="149.009" fill="#56BFBF" rx="34.953" ry="35.024"/><ellipse cx="257.504" cy="260.498" fill="#A6206A" rx="15.475" ry="15.506"/><ellipse cx="317.772" cy="218.34" fill="#BF7222" rx="10.248" ry="10.268"/><circle cx="88.604" cy="123.169" fill="#EC1C4B" r="1"/><circle cx="146.007" cy="196.998" fill="#F16A43" r="1"/><circle cx="160.506" cy="210.525" fill="#56BFBF" r="1"/><circle cx="276.823" cy="176.129" fill="#A6206A" r="1"/><circle cx="275.531" cy="199.61" fill="#BF7222" r="1"/><circle cx="83.338" cy="139.934" fill="#EC1C4B" r="1"/><circle cx="114.762" cy="188.549" fill="#F16A43" r="1"/><circle cx="127.02" cy="188.997" fill="#56BFBF" r="1"/><circle cx="244.608" cy="239.014" fill="#A6206A" r="1"/><circle cx="280.396" cy="182.903" fill="#BF7222" r="1"/></g></g></g></svg>