<svg xmlns="http://www.w3.org/2000/svg" xmlns:xlink="http://www.w3.org/1999/xlink" width="446" height="279" viewBox="0 0 446 279">
  <defs>
    <rect id="project-oscars-a" width="446" height="279"/>
  </defs>
  <g fill="none" fill-rule="evenodd">
    <rect width="446" height="279" fill="#F1FAEF"/>
    <mask id="project-oscars-b" fill="#fff">
      <use xlink:href="#project-oscars-a"/>
    </mask>
    <g mask="url(#project-oscars-b)">
      <g transform="translate(-1127.643 -368)">
        <path fill="#BFD3C1" fill-rule="nonzero" d="M0,420.634361 C0,420.634361 8.81442237,161.87422 17.0978261,161.339207 C21.9209884,161.027686 27.251701,224.159341 34.1956522,247.770925 C39.2384906,264.918137 46.1175187,274.540758 51.2934783,290.986784 C57.8264391,311.744528 61.0333983,361.895131 68.3913043,363.013216 C73.3402309,363.76524 80.1851567,345.011741 85.4891304,334.202643 C91.7369059,321.470149 96.8876812,305.39207 102.586957,290.986784 C108.286232,276.581498 114.923511,267.42453 119.684783,247.770925 C128.890756,209.770449 121.579522,88.6587362 136.782609,74.907489 C141.548095,70.5970892 148.181159,74.907489 153.880435,74.907489 C159.57971,74.907489 165.278986,74.907489 170.978261,74.907489 C176.677536,74.907489 183.337898,78.6474117 188.076087,74.907489 C197.943636,67.1188867 195.306364,10.6696595 205.173913,2.88105727 C209.912102,-0.858865405 216.572464,2.88105727 222.271739,2.88105727 C227.971014,2.88105727 233.67029,2.88105727 239.369565,2.88105727 C245.068841,2.88105727 251.729202,-0.858865405 256.467391,2.88105727 C266.33494,10.6696595 263.697669,67.1188867 273.565217,74.907489 C278.303406,78.6474117 284.963768,74.907489 290.663043,74.907489 C296.362319,74.907489 302.061594,74.907489 307.76087,74.907489 C313.460145,74.907489 320.084875,71.3490462 324.858696,74.907489 C333.816617,81.5847924 336.257246,132.528634 341.956522,132.528634 C347.655797,132.528634 350.096426,81.5847924 359.054348,74.907489 C363.828169,71.3490462 370.452899,74.907489 376.152174,74.907489 C381.851449,74.907489 387.550725,74.907489 393.25,74.907489 C398.949275,74.907489 404.648551,74.907489 410.347826,74.907489 C416.047101,74.907489 421.746377,74.907489 427.445652,74.907489 C433.144928,74.907489 438.844203,74.907489 444.543478,74.907489 C450.242754,74.907489 455.942029,74.907489 461.641304,74.907489 C467.34058,74.907489 473.039855,74.907489 478.73913,74.907489 C484.438406,74.907489 490.137681,74.907489 495.836957,74.907489 C501.536232,74.907489 507.235507,74.907489 512.934783,74.907489 C518.634058,74.907489 524.333333,74.907489 530.032609,74.907489 C535.731884,74.907489 541.431159,74.907489 547.130435,74.907489 C552.82971,74.907489 558.528986,74.907489 564.228261,74.907489 C569.927536,74.907489 575.626812,74.907489 581.326087,74.907489 C587.025362,74.907489 592.724638,74.907489 598.423913,74.907489 C604.123188,74.907489 609.822464,74.907489 615.521739,74.907489 C621.221014,74.907489 626.92029,74.907489 632.619565,74.907489 C638.318841,74.907489 644.018116,74.907489 649.717391,74.907489 C655.416667,74.907489 661.115942,74.907489 666.815217,74.907489 C672.514493,74.907489 678.213768,74.907489 683.913043,74.907489 C689.612319,74.907489 695.311594,74.907489 701.01087,74.907489 C706.710145,74.907489 712.40942,74.907489 718.108696,74.907489 C723.807971,74.907489 729.507246,74.907489 735.206522,74.907489 C740.905797,74.907489 746.605072,74.907489 752.304348,74.907489 C758.003623,74.907489 763.702899,74.907489 769.402174,74.907489 C775.101449,74.907489 780.800725,74.907489 786.5,74.907489 C792.199275,74.907489 797.898551,74.907489 803.597826,74.907489 C809.297101,74.907489 814.996377,74.907489 820.695652,74.907489 C826.394928,74.907489 832.094203,74.907489 837.793478,74.907489 C843.492754,74.907489 849.192029,74.907489 854.891304,74.907489 C860.59058,74.907489 866.289855,74.907489 871.98913,74.907489 C877.688406,74.907489 883.387681,74.907489 889.086957,74.907489 C894.786232,74.907489 900.485507,74.907489 906.184783,74.907489 C911.884058,74.907489 917.583333,74.907489 923.282609,74.907489 C928.981884,74.907489 934.681159,74.907489 940.380435,74.907489 C946.07971,74.907489 951.778986,74.907489 957.478261,74.907489 C963.177536,74.907489 968.876812,74.907489 974.576087,74.907489 C980.275362,74.907489 985.974638,74.907489 991.673913,74.907489 C997.373188,74.907489 1003.07246,74.907489 1008.77174,74.907489 C1014.47101,74.907489 1020.17029,74.907489 1025.86957,74.907489 C1031.56884,74.907489 1037.26812,74.907489 1042.96739,74.907489 C1048.66667,74.907489 1054.36594,74.907489 1060.06522,74.907489 C1065.76449,74.907489 1071.46377,74.907489 1077.16304,74.907489 C1082.86232,74.907489 1088.56159,74.907489 1094.26087,74.907489 C1099.96014,74.907489 1105.65942,74.907489 1111.3587,74.907489 C1117.05797,74.907489 1122.75725,74.907489 1128.45652,74.907489 C1134.1558,74.907489 1139.85507,74.907489 1145.55435,74.907489 C1151.25362,74.907489 1156.9529,74.907489 1162.65217,74.907489 C1168.35145,74.907489 1174.05072,74.907489 1179.75,74.907489 C1185.44928,74.907489 1191.14855,74.907489 1196.84783,74.907489 C1202.5471,74.907489 1208.24638,74.907489 1213.94565,74.907489 C1219.64493,74.907489 1225.3442,74.907489 1231.04348,74.907489 C1236.74275,74.907489 1242.44203,74.907489 1248.1413,74.907489 C1253.84058,74.907489 1259.53986,74.907489 1265.23913,74.907489 C1270.93841,74.907489 1276.63768,74.907489 1282.33696,74.907489 C1288.03623,74.907489 1293.73551,74.907489 1299.43478,74.907489 C1305.13406,74.907489 1310.83333,74.907489 1316.53261,74.907489 C1322.23188,74.907489 1327.93116,74.907489 1333.63043,74.907489 C1339.32971,74.907489 1345.02899,74.907489 1350.72826,74.907489 C1356.42754,74.907489 1363.0879,78.6474117 1367.82609,74.907489 C1377.69364,67.1188867 1375.05636,10.6696595 1384.92391,2.88105727 C1389.6621,-0.858865405 1396.65695,0.923168819 1402.02174,2.88105727 C1408.15871,5.1207535 1412.98259,15.0466474 1419.11957,17.2863436 C1424.48436,19.2442321 1430.51812,17.2863436 1436.21739,17.2863436 C1441.91667,17.2863436 1447.95042,15.3284552 1453.31522,17.2863436 C1459.45219,19.5260398 1464.27607,29.4519337 1470.41304,31.69163 C1475.77784,33.6495184 1482.14608,33.6495184 1487.51087,31.69163 C1493.64784,29.4519337 1498.47172,19.5260398 1504.6087,17.2863436 C1509.97349,15.3284552 1516.34173,15.3284552 1521.70652,17.2863436 C1527.84349,19.5260398 1533.10507,31.69163 1538.80435,31.69163 C1544.50362,31.69163 1550.2029,17.2863436 1555.90217,17.2863436 C1561.60145,17.2863436 1573,31.69163 1573,31.69163 L1573,363.013216 C1573,363.013216 1563.58015,578.646974 1555.90217,579.092511 C1551.00716,579.376559 1548.24175,508.652109 1538.80435,492.660793 C1534.0527,484.609307 1526.69012,485.180401 1521.70652,478.255507 C1514.51833,468.267249 1509.36997,434.375427 1504.6087,435.039648 C1495.40272,436.323927 1500.71441,602.551875 1487.51087,607.903084 C1482.77645,609.821878 1475.26968,600.915587 1470.41304,593.497797 C1462.4464,581.329931 1459.43078,536.145926 1453.31522,535.876652 C1447.93781,535.63988 1444.22316,573.656505 1436.21739,579.092511 C1431.36534,582.387107 1423.97162,575.797915 1419.11957,579.092511 C1411.11379,584.528517 1407.06458,622.765607 1402.02174,622.30837 C1395.07779,621.678758 1390.8937,535.989022 1384.92391,535.876652 C1379.45191,535.773652 1376.54376,593.748509 1367.82609,607.903084 C1363.03753,615.678096 1355.45629,624.200204 1350.72826,622.30837 C1338.09813,617.254649 1339.32971,463.85022 1333.63043,463.85022 C1327.93116,463.85022 1323.01773,622.112903 1316.53261,622.30837 C1311.33761,622.464952 1307.84412,523.029843 1299.43478,521.471366 C1294.62285,520.579585 1288.03623,540.678414 1282.33696,550.281938 C1276.63768,559.885463 1271.64265,571.538808 1265.23913,579.092511 C1260.00955,585.261407 1253.84058,593.497797 1248.1413,593.497797 C1242.44203,593.497797 1237.18045,581.332207 1231.04348,579.092511 C1225.67868,577.134623 1218.71947,575.534068 1213.94565,579.092511 C1204.98773,585.769814 1204.81447,634.332729 1196.84783,636.713656 C1191.99119,638.16512 1185.88697,624.548066 1179.75,622.30837 C1174.38521,620.350482 1167.67229,619.452529 1162.65217,622.30837 C1155.62036,626.308626 1151.25362,651.118943 1145.55435,651.118943 C1139.85507,651.118943 1134.1558,631.911894 1128.45652,622.30837 C1122.75725,612.704846 1117.76222,594.578485 1111.3587,593.497797 C1106.12912,592.615231 1099.96014,607.903084 1094.26087,607.903084 C1088.56159,607.903084 1082.39262,592.615231 1077.16304,593.497797 C1070.75952,594.578485 1066.46874,621.227683 1060.06522,622.30837 C1054.83564,623.190937 1048.19697,607.020517 1042.96739,607.903084 C1036.56387,608.983771 1031.56884,636.713656 1025.86957,636.713656 C1020.17029,636.713656 1015.17526,608.983771 1008.77174,607.903084 C1003.54216,607.020517 996.46247,623.884734 991.673913,622.30837 C982.956245,619.438566 983.293755,553.151743 974.576087,550.281938 C969.78753,548.705574 962.266817,556.912212 957.478261,564.687225 C948.760592,578.841799 949.098103,633.843852 940.380435,636.713656 C935.591878,638.290021 928.981884,622.30837 923.282609,622.30837 C917.583333,622.30837 911.884058,631.911894 906.184783,636.713656 C900.485507,641.515419 895.22393,648.879247 889.086957,651.118943 C883.722163,653.076831 877.688406,651.118943 871.98913,651.118943 C866.289855,651.118943 860.256098,653.076831 854.891304,651.118943 C848.754331,648.879247 843.492754,636.713656 837.793478,636.713656 C832.094203,636.713656 826.832625,648.879247 820.695652,651.118943 C815.330858,653.076831 808.96262,653.076831 803.597826,651.118943 C797.460853,648.879247 792.199275,636.713656 786.5,636.713656 C780.800725,636.713656 774.153822,652.782946 769.402174,651.118943 C759.964773,647.814012 758.27413,564.799595 752.304348,564.687225 C746.832348,564.584224 745.074071,628.925054 735.206522,636.713656 C730.468333,640.453579 723.47349,638.671545 718.108696,636.713656 C711.971723,634.47396 706.240445,621.425803 701.01087,622.30837 C694.607347,623.389057 689.612319,651.118943 683.913043,651.118943 C678.213768,651.118943 673.21874,623.389057 666.815217,622.30837 C661.585642,621.425803 655.854364,634.47396 649.717391,636.713656 C644.352597,638.671545 638.318841,636.713656 632.619565,636.713656 C626.92029,636.713656 621.221014,636.713656 615.521739,636.713656 C609.822464,636.713656 603.788707,634.755768 598.423913,636.713656 C592.28694,638.953353 587.025362,651.118943 581.326087,651.118943 C575.626812,651.118943 569.927536,636.713656 564.228261,636.713656 C558.528986,636.713656 552.360011,652.001509 547.130435,651.118943 C540.726912,650.038255 536.436131,623.389057 530.032609,622.30837 C524.803033,621.425803 518.164358,637.596223 512.934783,636.713656 C506.53126,635.632969 502.240479,608.983771 495.836957,607.903084 C490.607381,607.020517 483.968706,616.139474 478.73913,622.30837 C472.335608,629.862073 467.34058,651.118943 461.641304,651.118943 C455.942029,651.118943 450.242754,622.30837 444.543478,622.30837 C438.844203,622.30837 433.144928,651.118943 427.445652,651.118943 C421.746377,651.118943 416.047101,622.30837 410.347826,622.30837 C404.648551,622.30837 399.653523,650.038255 393.25,651.118943 C388.020424,652.001509 382.289147,638.953353 376.152174,636.713656 C370.78738,634.755768 364.753623,636.713656 359.054348,636.713656 C353.355072,636.713656 347.655797,636.713656 341.956522,636.713656 C336.257246,636.713656 330.22349,634.755768 324.858696,636.713656 C318.721723,638.953353 313.897843,648.879247 307.76087,651.118943 C302.396076,653.076831 296.362319,651.118943 290.663043,651.118943 C284.963768,651.118943 279.264493,651.118943 273.565217,651.118943 C267.865942,651.118943 262.166667,651.118943 256.467391,651.118943 C250.768116,651.118943 245.068841,651.118943 239.369565,651.118943 C233.67029,651.118943 227.971014,651.118943 222.271739,651.118943 C216.572464,651.118943 210.538707,653.076831 205.173913,651.118943 C199.03694,648.879247 193.775362,636.713656 188.076087,636.713656 C182.376812,636.713656 177.115234,648.879247 170.978261,651.118943 C165.613467,653.076831 159.57971,651.118943 153.880435,651.118943 C148.181159,651.118943 142.147403,653.076831 136.782609,651.118943 C130.645636,648.879247 125.384058,636.713656 119.684783,636.713656 C113.985507,636.713656 108.72393,648.879247 102.586957,651.118943 C97.2221626,653.076831 91.1884058,651.118943 85.4891304,651.118943 C79.7898551,651.118943 74.0905797,651.118943 68.3913043,651.118943 C62.692029,651.118943 56.9927536,651.118943 51.2934783,651.118943 C45.5942029,651.118943 39.8949275,651.118943 34.1956522,651.118943 C28.4963768,651.118943 22.7971014,651.118943 17.0978261,651.118943 C11.3985507,651.118943 0,651.118943 0,651.118943 L0,420.634361 Z"/>
        <path fill="#68A691" fill-rule="nonzero" d="M0,651.118943 C0,651.118943 11.3985507,651.118943 17.0978261,651.118943 C22.7971014,651.118943 28.4963768,651.118943 34.1956522,651.118943 C39.8949275,651.118943 45.5942029,651.118943 51.2934783,651.118943 C56.9927536,651.118943 62.692029,651.118943 68.3913043,651.118943 C74.0905797,651.118943 79.7898551,651.118943 85.4891304,651.118943 C91.1884058,651.118943 97.2221626,653.076831 102.586957,651.118943 C108.72393,648.879247 113.985507,636.713656 119.684783,636.713656 C125.384058,636.713656 130.645636,648.879247 136.782609,651.118943 C142.147403,653.076831 148.181159,651.118943 153.880435,651.118943 C159.57971,651.118943 165.613467,653.076831 170.978261,651.118943 C177.115234,648.879247 182.376812,636.713656 188.076087,636.713656 C193.775362,636.713656 199.03694,648.879247 205.173913,651.118943 C210.538707,653.076831 216.572464,651.118943 222.271739,651.118943 C227.971014,651.118943 233.67029,651.118943 239.369565,651.118943 C245.068841,651.118943 250.768116,651.118943 256.467391,651.118943 C262.166667,651.118943 267.865942,651.118943 273.565217,651.118943 C279.264493,651.118943 284.963768,651.118943 290.663043,651.118943 C296.362319,651.118943 302.396076,653.076831 307.76087,651.118943 C313.897843,648.879247 318.721723,638.953353 324.858696,636.713656 C330.22349,634.755768 336.257246,636.713656 341.956522,636.713656 C347.655797,636.713656 353.355072,636.713656 359.054348,636.713656 C364.753623,636.713656 370.78738,634.755768 376.152174,636.713656 C382.289147,638.953353 388.020424,652.001509 393.25,651.118943 C399.653523,650.038255 404.648551,622.30837 410.347826,622.30837 C416.047101,622.30837 421.746377,651.118943 427.445652,651.118943 C433.144928,651.118943 438.844203,622.30837 444.543478,622.30837 C450.242754,622.30837 455.942029,651.118943 461.641304,651.118943 C467.34058,651.118943 472.335608,629.862073 478.73913,622.30837 C483.968706,616.139474 490.607381,607.020517 495.836957,607.903084 C502.240479,608.983771 506.53126,635.632969 512.934783,636.713656 C518.164358,637.596223 524.803033,621.425803 530.032609,622.30837 C536.436131,623.389057 540.726912,650.038255 547.130435,651.118943 C552.360011,652.001509 558.528986,636.713656 564.228261,636.713656 C569.927536,636.713656 575.626812,651.118943 581.326087,651.118943 C587.025362,651.118943 592.28694,638.953353 598.423913,636.713656 C603.788707,634.755768 609.822464,636.713656 615.521739,636.713656 C621.221014,636.713656 626.92029,636.713656 632.619565,636.713656 C638.318841,636.713656 644.352597,638.671545 649.717391,636.713656 C655.854364,634.47396 661.585642,621.425803 666.815217,622.30837 C673.21874,623.389057 678.213768,651.118943 683.913043,651.118943 C689.612319,651.118943 694.607347,623.389057 701.01087,622.30837 C706.240445,621.425803 711.971723,634.47396 718.108696,636.713656 C723.47349,638.671545 730.468333,640.453579 735.206522,636.713656 C745.074071,628.925054 746.832348,564.584224 752.304348,564.687225 C758.27413,564.799595 759.964773,647.814012 769.402174,651.118943 C774.153822,652.782946 780.800725,636.713656 786.5,636.713656 C792.199275,636.713656 797.460853,648.879247 803.597826,651.118943 C808.96262,653.076831 815.330858,653.076831 820.695652,651.118943 C826.832625,648.879247 832.094203,636.713656 837.793478,636.713656 C843.492754,636.713656 848.754331,648.879247 854.891304,651.118943 C860.256098,653.076831 866.289855,651.118943 871.98913,651.118943 C877.688406,651.118943 883.722163,653.076831 889.086957,651.118943 C895.22393,648.879247 900.485507,641.515419 906.184783,636.713656 C911.884058,631.911894 917.583333,622.30837 923.282609,622.30837 C928.981884,622.30837 935.591878,638.290021 940.380435,636.713656 C949.098103,633.843852 948.760592,578.841799 957.478261,564.687225 C962.266817,556.912212 969.78753,548.705574 974.576087,550.281938 C983.293755,553.151743 982.956245,619.438566 991.673913,622.30837 C996.46247,623.884734 1003.54216,607.020517 1008.77174,607.903084 C1015.17526,608.983771 1020.17029,636.713656 1025.86957,636.713656 C1031.56884,636.713656 1036.56387,608.983771 1042.96739,607.903084 C1048.19697,607.020517 1054.83564,623.190937 1060.06522,622.30837 C1066.46874,621.227683 1070.75952,594.578485 1077.16304,593.497797 C1082.39262,592.615231 1088.56159,607.903084 1094.26087,607.903084 C1099.96014,607.903084 1106.12912,592.615231 1111.3587,593.497797 C1117.76222,594.578485 1122.75725,612.704846 1128.45652,622.30837 C1134.1558,631.911894 1139.85507,651.118943 1145.55435,651.118943 C1151.25362,651.118943 1155.62036,626.308626 1162.65217,622.30837 C1167.67229,619.452529 1174.38521,620.350482 1179.75,622.30837 C1185.88697,624.548066 1191.99119,638.16512 1196.84783,636.713656 C1204.81447,634.332729 1204.98773,585.769814 1213.94565,579.092511 C1218.71947,575.534068 1225.67868,577.134623 1231.04348,579.092511 C1237.18045,581.332207 1242.44203,593.497797 1248.1413,593.497797 C1253.84058,593.497797 1260.00955,585.261407 1265.23913,579.092511 C1271.64265,571.538808 1276.63768,559.885463 1282.33696,550.281938 C1288.03623,540.678414 1294.62285,520.579585 1299.43478,521.471366 C1307.84412,523.029843 1311.33761,622.464952 1316.53261,622.30837 C1323.01773,622.112903 1327.93116,463.85022 1333.63043,463.85022 C1339.32971,463.85022 1338.09813,617.254649 1350.72826,622.30837 C1355.45629,624.200204 1363.03753,615.678096 1367.82609,607.903084 C1376.54376,593.748509 1379.45191,535.773652 1384.92391,535.876652 C1390.8937,535.989022 1395.07779,621.678758 1402.02174,622.30837 C1407.06458,622.765607 1411.11379,584.528517 1419.11957,579.092511 C1423.97162,575.797915 1431.36534,582.387107 1436.21739,579.092511 C1444.22316,573.656505 1447.93781,535.63988 1453.31522,535.876652 C1459.43078,536.145926 1462.4464,581.329931 1470.41304,593.497797 C1475.26968,600.915587 1482.77645,609.821878 1487.51087,607.903084 C1500.71441,602.551875 1495.40272,436.323927 1504.6087,435.039648 C1509.36997,434.375427 1514.51833,468.267249 1521.70652,478.255507 C1526.69012,485.180401 1534.0527,484.609307 1538.80435,492.660793 C1548.24175,508.652109 1551.00716,579.376559 1555.90217,579.092511 C1563.58015,578.646974 1573,363.013216 1573,363.013216 L1573,492.660793 C1573,492.660793 1566.02904,589.795754 1555.90217,593.497797 C1551.16979,595.227798 1544.50362,579.092511 1538.80435,579.092511 C1533.10507,579.092511 1526.9361,587.328902 1521.70652,593.497797 C1515.303,601.051501 1511.01222,621.227683 1504.6087,622.30837 C1499.37912,623.190937 1493.64784,610.14278 1487.51087,607.903084 C1482.14608,605.945195 1475.77784,605.945195 1470.41304,607.903084 C1464.27607,610.14278 1459.45219,620.068674 1453.31522,622.30837 C1447.95042,624.266258 1441.58219,624.266258 1436.21739,622.30837 C1430.08042,620.068674 1424.81884,607.903084 1419.11957,607.903084 C1413.42029,607.903084 1407.72101,617.506608 1402.02174,622.30837 C1396.32246,627.110132 1391.06089,634.47396 1384.92391,636.713656 C1379.55912,638.671545 1373.52536,636.713656 1367.82609,636.713656 C1362.12681,636.713656 1355.44983,640.696065 1350.72826,636.713656 C1339.17027,626.965058 1339.32971,535.876652 1333.63043,535.876652 C1327.93116,535.876652 1323.87833,635.946606 1316.53261,636.713656 C1311.58135,637.230674 1305.68256,606.230292 1299.43478,593.497797 C1294.13081,582.688699 1288.03623,564.687225 1282.33696,564.687225 C1276.63768,564.687225 1270.5431,582.688699 1265.23913,593.497797 C1258.99135,606.230292 1253.51872,636.950429 1248.1413,636.713656 C1242.02574,636.444383 1237.8511,579.935495 1231.04348,579.092511 C1225.96179,578.463249 1219.64493,598.299559 1213.94565,607.903084 C1208.24638,617.506608 1203.25135,635.632969 1196.84783,636.713656 C1191.61825,637.596223 1184.97958,621.425803 1179.75,622.30837 C1173.34648,623.389057 1169.68399,647.118687 1162.65217,651.118943 C1157.63206,653.974784 1151.25362,651.118943 1145.55435,651.118943 C1139.85507,651.118943 1133.47664,653.974784 1128.45652,651.118943 C1121.42471,647.118687 1117.76222,623.389057 1111.3587,622.30837 C1106.12912,621.425803 1099.96014,636.713656 1094.26087,636.713656 C1088.56159,636.713656 1082.86232,622.30837 1077.16304,622.30837 C1071.46377,622.30837 1065.76449,631.911894 1060.06522,636.713656 C1054.36594,641.515419 1048.66667,651.118943 1042.96739,651.118943 C1037.26812,651.118943 1032.00654,638.953353 1025.86957,636.713656 C1020.50477,634.755768 1014.47101,636.713656 1008.77174,636.713656 C1003.07246,636.713656 996.694028,639.569498 991.673913,636.713656 C984.6421,632.713401 980.97961,615.456787 974.576087,607.903084 C969.346511,601.734188 962.334896,592.046334 957.478261,593.497797 C949.511617,595.878725 948.347079,648.738015 940.380435,651.118943 C935.5238,652.570406 928.981884,636.713656 923.282609,636.713656 C917.583333,636.713656 912.321756,648.879247 906.184783,651.118943 C900.819989,653.076831 894.786232,651.118943 889.086957,651.118943 C883.387681,651.118943 877.688406,651.118943 871.98913,651.118943 C866.289855,651.118943 860.256098,653.076831 854.891304,651.118943 C848.754331,648.879247 843.492754,636.713656 837.793478,636.713656 C832.094203,636.713656 826.832625,648.879247 820.695652,651.118943 C815.330858,653.076831 809.297101,651.118943 803.597826,651.118943 C797.898551,651.118943 792.199275,651.118943 786.5,651.118943 C780.800725,651.118943 774.766968,653.076831 769.402174,651.118943 C763.265201,648.879247 758.441321,638.953353 752.304348,636.713656 C746.939554,634.755768 740.571316,634.755768 735.206522,636.713656 C729.069549,638.953353 723.807971,651.118943 718.108696,651.118943 C712.40942,651.118943 706.710145,636.713656 701.01087,636.713656 C695.311594,636.713656 689.612319,651.118943 683.913043,651.118943 C678.213768,651.118943 672.952191,638.953353 666.815217,636.713656 C661.450423,634.755768 655.416667,636.713656 649.717391,636.713656 C644.018116,636.713656 638.318841,636.713656 632.619565,636.713656 C626.92029,636.713656 620.886533,634.755768 615.521739,636.713656 C609.384766,638.953353 604.560886,648.879247 598.423913,651.118943 C593.059119,653.076831 586.690881,653.076831 581.326087,651.118943 C575.189114,648.879247 569.927536,636.713656 564.228261,636.713656 C558.528986,636.713656 552.82971,651.118943 547.130435,651.118943 C541.431159,651.118943 535.731884,636.713656 530.032609,636.713656 C524.333333,636.713656 517.918381,652.372365 512.934783,651.118943 C505.746592,649.311044 503.025147,609.710982 495.836957,607.903084 C490.853358,606.649661 483.968706,616.139474 478.73913,622.30837 C472.335608,629.862073 468.044827,650.038255 461.641304,651.118943 C456.411729,652.001509 450.242754,636.713656 444.543478,636.713656 C438.844203,636.713656 432.675228,652.001509 427.445652,651.118943 C421.042129,650.038255 416.047101,622.30837 410.347826,622.30837 C404.648551,622.30837 399.653523,650.038255 393.25,651.118943 C388.020424,652.001509 381.851449,636.713656 376.152174,636.713656 C370.452899,636.713656 364.753623,651.118943 359.054348,651.118943 C353.355072,651.118943 348.093495,638.953353 341.956522,636.713656 C336.591728,634.755768 330.22349,634.755768 324.858696,636.713656 C318.721723,638.953353 313.897843,648.879247 307.76087,651.118943 C302.396076,653.076831 296.362319,651.118943 290.663043,651.118943 C284.963768,651.118943 279.264493,651.118943 273.565217,651.118943 C267.865942,651.118943 262.166667,651.118943 256.467391,651.118943 C250.768116,651.118943 245.068841,651.118943 239.369565,651.118943 C233.67029,651.118943 227.971014,651.118943 222.271739,651.118943 C216.572464,651.118943 210.873188,651.118943 205.173913,651.118943 C199.474638,651.118943 193.775362,651.118943 188.076087,651.118943 C182.376812,651.118943 176.677536,651.118943 170.978261,651.118943 C165.278986,651.118943 159.57971,651.118943 153.880435,651.118943 C148.181159,651.118943 142.147403,653.076831 136.782609,651.118943 C130.645636,648.879247 125.384058,636.713656 119.684783,636.713656 C113.985507,636.713656 108.72393,648.879247 102.586957,651.118943 C97.2221626,653.076831 91.1884058,651.118943 85.4891304,651.118943 C79.7898551,651.118943 74.0905797,651.118943 68.3913043,651.118943 C62.692029,651.118943 56.9927536,651.118943 51.2934783,651.118943 C45.5942029,651.118943 39.8949275,651.118943 34.1956522,651.118943 C28.4963768,651.118943 22.7971014,651.118943 17.0978261,651.118943 C11.3985507,651.118943 0,651.118943 0,651.118943 Z"/>
        <path fill="#EFC7C2" fill-rule="nonzero" d="M0,651.118943 C0,651.118943 11.3985507,651.118943 17.0978261,651.118943 C22.7971014,651.118943 28.4963768,651.118943 34.1956522,651.118943 C39.8949275,651.118943 45.5942029,651.118943 51.2934783,651.118943 C56.9927536,651.118943 62.692029,651.118943 68.3913043,651.118943 C74.0905797,651.118943 79.7898551,651.118943 85.4891304,651.118943 C91.1884058,651.118943 97.2221626,653.076831 102.586957,651.118943 C108.72393,648.879247 113.985507,636.713656 119.684783,636.713656 C125.384058,636.713656 130.645636,648.879247 136.782609,651.118943 C142.147403,653.076831 148.181159,651.118943 153.880435,651.118943 C159.57971,651.118943 165.278986,651.118943 170.978261,651.118943 C176.677536,651.118943 182.376812,651.118943 188.076087,651.118943 C193.775362,651.118943 199.474638,651.118943 205.173913,651.118943 C210.873188,651.118943 216.572464,651.118943 222.271739,651.118943 C227.971014,651.118943 233.67029,651.118943 239.369565,651.118943 C245.068841,651.118943 250.768116,651.118943 256.467391,651.118943 C262.166667,651.118943 267.865942,651.118943 273.565217,651.118943 C279.264493,651.118943 284.963768,651.118943 290.663043,651.118943 C296.362319,651.118943 302.396076,653.076831 307.76087,651.118943 C313.897843,648.879247 318.721723,638.953353 324.858696,636.713656 C330.22349,634.755768 336.591728,634.755768 341.956522,636.713656 C348.093495,638.953353 353.355072,651.118943 359.054348,651.118943 C364.753623,651.118943 370.452899,636.713656 376.152174,636.713656 C381.851449,636.713656 388.020424,652.001509 393.25,651.118943 C399.653523,650.038255 404.648551,622.30837 410.347826,622.30837 C416.047101,622.30837 421.042129,650.038255 427.445652,651.118943 C432.675228,652.001509 438.844203,636.713656 444.543478,636.713656 C450.242754,636.713656 456.411729,652.001509 461.641304,651.118943 C468.044827,650.038255 472.335608,629.862073 478.73913,622.30837 C483.968706,616.139474 490.853358,606.649661 495.836957,607.903084 C503.025147,609.710982 505.746592,649.311044 512.934783,651.118943 C517.918381,652.372365 524.333333,636.713656 530.032609,636.713656 C535.731884,636.713656 541.431159,651.118943 547.130435,651.118943 C552.82971,651.118943 558.528986,636.713656 564.228261,636.713656 C569.927536,636.713656 575.189114,648.879247 581.326087,651.118943 C586.690881,653.076831 593.059119,653.076831 598.423913,651.118943 C604.560886,648.879247 609.384766,638.953353 615.521739,636.713656 C620.886533,634.755768 626.92029,636.713656 632.619565,636.713656 C638.318841,636.713656 644.018116,636.713656 649.717391,636.713656 C655.416667,636.713656 661.450423,634.755768 666.815217,636.713656 C672.952191,638.953353 678.213768,651.118943 683.913043,651.118943 C689.612319,651.118943 695.311594,636.713656 701.01087,636.713656 C706.710145,636.713656 712.40942,651.118943 718.108696,651.118943 C723.807971,651.118943 729.069549,638.953353 735.206522,636.713656 C740.571316,634.755768 746.939554,634.755768 752.304348,636.713656 C758.441321,638.953353 763.265201,648.879247 769.402174,651.118943 C774.766968,653.076831 780.800725,651.118943 786.5,651.118943 C792.199275,651.118943 797.898551,651.118943 803.597826,651.118943 C809.297101,651.118943 815.330858,653.076831 820.695652,651.118943 C826.832625,648.879247 832.094203,636.713656 837.793478,636.713656 C843.492754,636.713656 848.754331,648.879247 854.891304,651.118943 C860.256098,653.076831 866.289855,651.118943 871.98913,651.118943 C877.688406,651.118943 883.387681,651.118943 889.086957,651.118943 C894.786232,651.118943 900.819989,653.076831 906.184783,651.118943 C912.321756,648.879247 917.583333,636.713656 923.282609,636.713656 C928.981884,636.713656 935.5238,652.570406 940.380435,651.118943 C948.347079,648.738015 949.511617,595.878725 957.478261,593.497797 C962.334896,592.046334 969.346511,601.734188 974.576087,607.903084 C980.97961,615.456787 984.6421,632.713401 991.673913,636.713656 C996.694028,639.569498 1003.07246,636.713656 1008.77174,636.713656 C1014.47101,636.713656 1020.50477,634.755768 1025.86957,636.713656 C1032.00654,638.953353 1037.26812,651.118943 1042.96739,651.118943 C1048.66667,651.118943 1054.36594,641.515419 1060.06522,636.713656 C1065.76449,631.911894 1071.46377,622.30837 1077.16304,622.30837 C1082.86232,622.30837 1088.56159,636.713656 1094.26087,636.713656 C1099.96014,636.713656 1106.12912,621.425803 1111.3587,622.30837 C1117.76222,623.389057 1121.42471,647.118687 1128.45652,651.118943 C1133.47664,653.974784 1139.85507,651.118943 1145.55435,651.118943 C1151.25362,651.118943 1157.63206,653.974784 1162.65217,651.118943 C1169.68399,647.118687 1173.34648,623.389057 1179.75,622.30837 C1184.97958,621.425803 1191.61825,637.596223 1196.84783,636.713656 C1203.25135,635.632969 1208.24638,617.506608 1213.94565,607.903084 C1219.64493,598.299559 1225.96179,578.463249 1231.04348,579.092511 C1237.8511,579.935495 1242.02574,636.444383 1248.1413,636.713656 C1253.51872,636.950429 1258.99135,606.230292 1265.23913,593.497797 C1270.5431,582.688699 1276.63768,564.687225 1282.33696,564.687225 C1288.03623,564.687225 1294.13081,582.688699 1299.43478,593.497797 C1305.68256,606.230292 1311.58135,637.230674 1316.53261,636.713656 C1323.87833,635.946606 1327.93116,535.876652 1333.63043,535.876652 C1339.32971,535.876652 1339.17027,626.965058 1350.72826,636.713656 C1355.44983,640.696065 1362.12681,636.713656 1367.82609,636.713656 C1373.52536,636.713656 1379.55912,638.671545 1384.92391,636.713656 C1391.06089,634.47396 1396.32246,627.110132 1402.02174,622.30837 C1407.72101,617.506608 1413.42029,607.903084 1419.11957,607.903084 C1424.81884,607.903084 1430.08042,620.068674 1436.21739,622.30837 C1441.58219,624.266258 1447.95042,624.266258 1453.31522,622.30837 C1459.45219,620.068674 1464.27607,610.14278 1470.41304,607.903084 C1475.77784,605.945195 1482.14608,605.945195 1487.51087,607.903084 C1493.64784,610.14278 1499.37912,623.190937 1504.6087,622.30837 C1511.01222,621.227683 1515.303,601.051501 1521.70652,593.497797 C1526.9361,587.328902 1533.10507,579.092511 1538.80435,579.092511 C1544.50362,579.092511 1551.16979,595.227798 1555.90217,593.497797 C1566.02904,589.795754 1573,492.660793 1573,492.660793 L1573,492.660793 C1573,492.660793 1563.63955,579.053049 1555.90217,607.903084 C1551.01576,626.12285 1545.99254,649.311044 1538.80435,651.118943 C1533.82075,652.372365 1527.4058,641.515419 1521.70652,636.713656 C1516.00725,631.911894 1510.30797,622.30837 1504.6087,622.30837 C1498.90942,622.30837 1493.21014,631.911894 1487.51087,636.713656 C1481.81159,641.515419 1476.55002,648.879247 1470.41304,651.118943 C1465.04825,653.076831 1458.33533,653.974784 1453.31522,651.118943 C1446.2834,647.118687 1442.62091,623.389057 1436.21739,622.30837 C1430.98782,621.425803 1425.25654,634.47396 1419.11957,636.713656 C1413.75477,638.671545 1407.38653,634.755768 1402.02174,636.713656 C1395.88477,638.953353 1391.06089,648.879247 1384.92391,651.118943 C1379.55912,653.076831 1373.52536,651.118943 1367.82609,651.118943 C1362.12681,651.118943 1356.09305,653.076831 1350.72826,651.118943 C1344.59129,648.879247 1339.76741,638.953353 1333.63043,636.713656 C1328.26564,634.755768 1322.23188,636.713656 1316.53261,636.713656 C1310.83333,636.713656 1304.4549,639.569498 1299.43478,636.713656 C1292.40297,632.713401 1287.64093,607.482138 1282.33696,607.903084 C1276.08918,608.398934 1272.42732,649.311044 1265.23913,651.118943 C1260.25553,652.372365 1253.37088,642.882552 1248.1413,636.713656 C1241.73778,629.159953 1237.447,608.983771 1231.04348,607.903084 C1225.8139,607.020517 1219.17523,616.139474 1213.94565,622.30837 C1207.54213,629.862073 1202.5471,651.118943 1196.84783,651.118943 C1191.14855,651.118943 1185.44928,622.30837 1179.75,622.30837 C1174.05072,622.30837 1169.68399,647.118687 1162.65217,651.118943 C1157.63206,653.974784 1151.25362,651.118943 1145.55435,651.118943 C1139.85507,651.118943 1133.82132,653.076831 1128.45652,651.118943 C1122.31955,648.879247 1117.49567,638.953353 1111.3587,636.713656 C1105.9939,634.755768 1099.96014,636.713656 1094.26087,636.713656 C1088.56159,636.713656 1082.52784,634.755768 1077.16304,636.713656 C1071.02607,638.953353 1066.20219,648.879247 1060.06522,651.118943 C1054.70042,653.076831 1048.66667,651.118943 1042.96739,651.118943 C1037.26812,651.118943 1031.56884,651.118943 1025.86957,651.118943 C1020.17029,651.118943 1014.13653,653.076831 1008.77174,651.118943 C1002.63477,648.879247 997.810886,638.953353 991.673913,636.713656 C986.309119,634.755768 979.596202,639.569498 974.576087,636.713656 C967.544274,632.713401 962.782235,607.482138 957.478261,607.903084 C951.230485,608.398934 947.568626,649.311044 940.380435,651.118943 C935.396836,652.372365 928.981884,636.713656 923.282609,636.713656 C917.583333,636.713656 912.321756,648.879247 906.184783,651.118943 C900.819989,653.076831 894.786232,651.118943 889.086957,651.118943 C883.387681,651.118943 877.688406,651.118943 871.98913,651.118943 C866.289855,651.118943 860.59058,651.118943 854.891304,651.118943 C849.192029,651.118943 843.492754,651.118943 837.793478,651.118943 C832.094203,651.118943 826.394928,651.118943 820.695652,651.118943 C814.996377,651.118943 809.297101,651.118943 803.597826,651.118943 C797.898551,651.118943 792.199275,651.118943 786.5,651.118943 C780.800725,651.118943 775.101449,651.118943 769.402174,651.118943 C763.702899,651.118943 757.669142,653.076831 752.304348,651.118943 C746.167375,648.879247 740.905797,636.713656 735.206522,636.713656 C729.507246,636.713656 724.245669,648.879247 718.108696,651.118943 C712.743902,653.076831 706.710145,651.118943 701.01087,651.118943 C695.311594,651.118943 689.612319,651.118943 683.913043,651.118943 C678.213768,651.118943 672.180011,653.076831 666.815217,651.118943 C660.678244,648.879247 655.854364,638.953353 649.717391,636.713656 C644.352597,634.755768 637.984359,634.755768 632.619565,636.713656 C626.482592,638.953353 621.658712,648.879247 615.521739,651.118943 C610.156945,653.076831 604.123188,651.118943 598.423913,651.118943 C592.724638,651.118943 587.025362,651.118943 581.326087,651.118943 C575.626812,651.118943 569.927536,651.118943 564.228261,651.118943 C558.528986,651.118943 552.82971,651.118943 547.130435,651.118943 C541.431159,651.118943 535.731884,651.118943 530.032609,651.118943 C524.333333,651.118943 517.954898,653.974784 512.934783,651.118943 C505.902969,647.118687 502.240479,623.389057 495.836957,622.30837 C490.607381,621.425803 484.438406,631.911894 478.73913,636.713656 C473.039855,641.515419 467.778277,648.879247 461.641304,651.118943 C456.27651,653.076831 450.242754,651.118943 444.543478,651.118943 C438.844203,651.118943 433.144928,651.118943 427.445652,651.118943 C421.746377,651.118943 416.047101,651.118943 410.347826,651.118943 C404.648551,651.118943 398.949275,651.118943 393.25,651.118943 C387.550725,651.118943 381.851449,651.118943 376.152174,651.118943 C370.452899,651.118943 364.753623,651.118943 359.054348,651.118943 C353.355072,651.118943 347.655797,651.118943 341.956522,651.118943 C336.257246,651.118943 330.557971,651.118943 324.858696,651.118943 C319.15942,651.118943 313.460145,651.118943 307.76087,651.118943 C302.061594,651.118943 296.362319,651.118943 290.663043,651.118943 C284.963768,651.118943 279.264493,651.118943 273.565217,651.118943 C267.865942,651.118943 262.166667,651.118943 256.467391,651.118943 C250.768116,651.118943 245.068841,651.118943 239.369565,651.118943 C233.67029,651.118943 227.971014,651.118943 222.271739,651.118943 C216.572464,651.118943 210.873188,651.118943 205.173913,651.118943 C199.474638,651.118943 193.775362,651.118943 188.076087,651.118943 C182.376812,651.118943 176.677536,651.118943 170.978261,651.118943 C165.278986,651.118943 159.57971,651.118943 153.880435,651.118943 C148.181159,651.118943 142.147403,653.076831 136.782609,651.118943 C130.645636,648.879247 125.384058,636.713656 119.684783,636.713656 C113.985507,636.713656 108.72393,648.879247 102.586957,651.118943 C97.2221626,653.076831 91.1884058,651.118943 85.4891304,651.118943 C79.7898551,651.118943 74.0905797,651.118943 68.3913043,651.118943 C62.692029,651.118943 56.9927536,651.118943 51.2934783,651.118943 C45.5942029,651.118943 39.8949275,651.118943 34.1956522,651.118943 C28.4963768,651.118943 22.7971014,651.118943 17.0978261,651.118943 C11.3985507,651.118943 0,651.118943 0,651.118943 Z"/>
        <path fill="#694F5D" fill-rule="nonzero" d="M0,651.118943 C0,651.118943 11.3985507,651.118943 17.0978261,651.118943 C22.7971014,651.118943 28.4963768,651.118943 34.1956522,651.118943 C39.8949275,651.118943 45.5942029,651.118943 51.2934783,651.118943 C56.9927536,651.118943 62.692029,651.118943 68.3913043,651.118943 C74.0905797,651.118943 79.7898551,651.118943 85.4891304,651.118943 C91.1884058,651.118943 97.2221626,653.076831 102.586957,651.118943 C108.72393,648.879247 113.985507,636.713656 119.684783,636.713656 C125.384058,636.713656 130.645636,648.879247 136.782609,651.118943 C142.147403,653.076831 148.181159,651.118943 153.880435,651.118943 C159.57971,651.118943 165.278986,651.118943 170.978261,651.118943 C176.677536,651.118943 182.376812,651.118943 188.076087,651.118943 C193.775362,651.118943 199.474638,651.118943 205.173913,651.118943 C210.873188,651.118943 216.572464,651.118943 222.271739,651.118943 C227.971014,651.118943 233.67029,651.118943 239.369565,651.118943 C245.068841,651.118943 250.768116,651.118943 256.467391,651.118943 C262.166667,651.118943 267.865942,651.118943 273.565217,651.118943 C279.264493,651.118943 284.963768,651.118943 290.663043,651.118943 C296.362319,651.118943 302.061594,651.118943 307.76087,651.118943 C313.460145,651.118943 319.15942,651.118943 324.858696,651.118943 C330.557971,651.118943 336.257246,651.118943 341.956522,651.118943 C347.655797,651.118943 353.355072,651.118943 359.054348,651.118943 C364.753623,651.118943 370.452899,651.118943 376.152174,651.118943 C381.851449,651.118943 387.550725,651.118943 393.25,651.118943 C398.949275,651.118943 404.648551,651.118943 410.347826,651.118943 C416.047101,651.118943 421.746377,651.118943 427.445652,651.118943 C433.144928,651.118943 438.844203,651.118943 444.543478,651.118943 C450.242754,651.118943 456.27651,653.076831 461.641304,651.118943 C467.778277,648.879247 473.039855,641.515419 478.73913,636.713656 C484.438406,631.911894 490.607381,621.425803 495.836957,622.30837 C502.240479,623.389057 505.902969,647.118687 512.934783,651.118943 C517.954898,653.974784 524.333333,651.118943 530.032609,651.118943 C535.731884,651.118943 541.431159,651.118943 547.130435,651.118943 C552.82971,651.118943 558.528986,651.118943 564.228261,651.118943 C569.927536,651.118943 575.626812,651.118943 581.326087,651.118943 C587.025362,651.118943 592.724638,651.118943 598.423913,651.118943 C604.123188,651.118943 610.156945,653.076831 615.521739,651.118943 C621.658712,648.879247 626.482592,638.953353 632.619565,636.713656 C637.984359,634.755768 644.352597,634.755768 649.717391,636.713656 C655.854364,638.953353 660.678244,648.879247 666.815217,651.118943 C672.180011,653.076831 678.213768,651.118943 683.913043,651.118943 C689.612319,651.118943 695.311594,651.118943 701.01087,651.118943 C706.710145,651.118943 712.743902,653.076831 718.108696,651.118943 C724.245669,648.879247 729.507246,636.713656 735.206522,636.713656 C740.905797,636.713656 746.167375,648.879247 752.304348,651.118943 C757.669142,653.076831 763.702899,651.118943 769.402174,651.118943 C775.101449,651.118943 780.800725,651.118943 786.5,651.118943 C792.199275,651.118943 797.898551,651.118943 803.597826,651.118943 C809.297101,651.118943 814.996377,651.118943 820.695652,651.118943 C826.394928,651.118943 832.094203,651.118943 837.793478,651.118943 C843.492754,651.118943 849.192029,651.118943 854.891304,651.118943 C860.59058,651.118943 866.289855,651.118943 871.98913,651.118943 C877.688406,651.118943 883.387681,651.118943 889.086957,651.118943 C894.786232,651.118943 900.819989,653.076831 906.184783,651.118943 C912.321756,648.879247 917.583333,636.713656 923.282609,636.713656 C928.981884,636.713656 935.396836,652.372365 940.380435,651.118943 C947.568626,649.311044 951.230485,608.398934 957.478261,607.903084 C962.782235,607.482138 967.544274,632.713401 974.576087,636.713656 C979.596202,639.569498 986.309119,634.755768 991.673913,636.713656 C997.810886,638.953353 1002.63477,648.879247 1008.77174,651.118943 C1014.13653,653.076831 1020.17029,651.118943 1025.86957,651.118943 C1031.56884,651.118943 1037.26812,651.118943 1042.96739,651.118943 C1048.66667,651.118943 1054.70042,653.076831 1060.06522,651.118943 C1066.20219,648.879247 1071.02607,638.953353 1077.16304,636.713656 C1082.52784,634.755768 1088.56159,636.713656 1094.26087,636.713656 C1099.96014,636.713656 1105.9939,634.755768 1111.3587,636.713656 C1117.49567,638.953353 1122.31955,648.879247 1128.45652,651.118943 C1133.82132,653.076831 1139.85507,651.118943 1145.55435,651.118943 C1151.25362,651.118943 1157.63206,653.974784 1162.65217,651.118943 C1169.68399,647.118687 1174.05072,622.30837 1179.75,622.30837 C1185.44928,622.30837 1191.14855,651.118943 1196.84783,651.118943 C1202.5471,651.118943 1207.54213,629.862073 1213.94565,622.30837 C1219.17523,616.139474 1225.8139,607.020517 1231.04348,607.903084 C1237.447,608.983771 1241.73778,629.159953 1248.1413,636.713656 C1253.37088,642.882552 1260.25553,652.372365 1265.23913,651.118943 C1272.42732,649.311044 1276.08918,608.398934 1282.33696,607.903084 C1287.64093,607.482138 1292.40297,632.713401 1299.43478,636.713656 C1304.4549,639.569498 1310.83333,636.713656 1316.53261,636.713656 C1322.23188,636.713656 1328.26564,634.755768 1333.63043,636.713656 C1339.76741,638.953353 1344.59129,648.879247 1350.72826,651.118943 C1356.09305,653.076831 1362.12681,651.118943 1367.82609,651.118943 C1373.52536,651.118943 1379.55912,653.076831 1384.92391,651.118943 C1391.06089,648.879247 1395.88477,638.953353 1402.02174,636.713656 C1407.38653,634.755768 1413.75477,638.671545 1419.11957,636.713656 C1425.25654,634.47396 1430.98782,621.425803 1436.21739,622.30837 C1442.62091,623.389057 1446.2834,647.118687 1453.31522,651.118943 C1458.33533,653.974784 1465.04825,653.076831 1470.41304,651.118943 C1476.55002,648.879247 1481.81159,641.515419 1487.51087,636.713656 C1493.21014,631.911894 1498.90942,622.30837 1504.6087,622.30837 C1510.30797,622.30837 1516.00725,631.911894 1521.70652,636.713656 C1527.4058,641.515419 1533.82075,652.372365 1538.80435,651.118943 C1545.99254,649.311044 1551.01576,626.12285 1555.90217,607.903084 C1563.63955,579.053049 1573,492.660793 1573,492.660793 L1573,651.118943 C1573,651.118943 1561.60145,651.118943 1555.90217,651.118943 C1550.2029,651.118943 1544.50362,651.118943 1538.80435,651.118943 C1533.10507,651.118943 1527.4058,651.118943 1521.70652,651.118943 C1516.00725,651.118943 1510.30797,651.118943 1504.6087,651.118943 C1498.90942,651.118943 1493.21014,651.118943 1487.51087,651.118943 C1481.81159,651.118943 1476.11232,651.118943 1470.41304,651.118943 C1464.71377,651.118943 1459.01449,651.118943 1453.31522,651.118943 C1447.61594,651.118943 1441.91667,651.118943 1436.21739,651.118943 C1430.51812,651.118943 1424.81884,651.118943 1419.11957,651.118943 C1413.42029,651.118943 1407.72101,651.118943 1402.02174,651.118943 C1396.32246,651.118943 1390.62319,651.118943 1384.92391,651.118943 C1379.22464,651.118943 1373.52536,651.118943 1367.82609,651.118943 C1362.12681,651.118943 1356.42754,651.118943 1350.72826,651.118943 C1345.02899,651.118943 1339.32971,651.118943 1333.63043,651.118943 C1327.93116,651.118943 1322.23188,651.118943 1316.53261,651.118943 C1310.83333,651.118943 1305.13406,651.118943 1299.43478,651.118943 C1293.73551,651.118943 1288.03623,651.118943 1282.33696,651.118943 C1276.63768,651.118943 1270.93841,651.118943 1265.23913,651.118943 C1259.53986,651.118943 1253.84058,651.118943 1248.1413,651.118943 C1242.44203,651.118943 1236.74275,651.118943 1231.04348,651.118943 C1225.3442,651.118943 1219.64493,651.118943 1213.94565,651.118943 C1208.24638,651.118943 1202.5471,651.118943 1196.84783,651.118943 C1191.14855,651.118943 1185.44928,651.118943 1179.75,651.118943 C1174.05072,651.118943 1168.35145,651.118943 1162.65217,651.118943 C1156.9529,651.118943 1151.25362,651.118943 1145.55435,651.118943 C1139.85507,651.118943 1134.1558,651.118943 1128.45652,651.118943 C1122.75725,651.118943 1117.05797,651.118943 1111.3587,651.118943 C1105.65942,651.118943 1099.96014,651.118943 1094.26087,651.118943 C1088.56159,651.118943 1082.86232,651.118943 1077.16304,651.118943 C1071.46377,651.118943 1065.76449,651.118943 1060.06522,651.118943 C1054.36594,651.118943 1048.66667,651.118943 1042.96739,651.118943 C1037.26812,651.118943 1031.56884,651.118943 1025.86957,651.118943 C1020.17029,651.118943 1014.47101,651.118943 1008.77174,651.118943 C1003.07246,651.118943 997.373188,651.118943 991.673913,651.118943 C985.974638,651.118943 980.275362,651.118943 974.576087,651.118943 C968.876812,651.118943 963.177536,651.118943 957.478261,651.118943 C951.778986,651.118943 946.07971,651.118943 940.380435,651.118943 C934.681159,651.118943 928.981884,651.118943 923.282609,651.118943 C917.583333,651.118943 911.884058,651.118943 906.184783,651.118943 C900.485507,651.118943 894.786232,651.118943 889.086957,651.118943 C883.387681,651.118943 877.688406,651.118943 871.98913,651.118943 C866.289855,651.118943 860.59058,651.118943 854.891304,651.118943 C849.192029,651.118943 843.492754,651.118943 837.793478,651.118943 C832.094203,651.118943 826.394928,651.118943 820.695652,651.118943 C814.996377,651.118943 809.297101,651.118943 803.597826,651.118943 C797.898551,651.118943 792.199275,651.118943 786.5,651.118943 C780.800725,651.118943 775.101449,651.118943 769.402174,651.118943 C763.702899,651.118943 758.003623,651.118943 752.304348,651.118943 C746.605072,651.118943 740.905797,651.118943 735.206522,651.118943 C729.507246,651.118943 723.807971,651.118943 718.108696,651.118943 C712.40942,651.118943 706.710145,651.118943 701.01087,651.118943 C695.311594,651.118943 689.612319,651.118943 683.913043,651.118943 C678.213768,651.118943 672.514493,651.118943 666.815217,651.118943 C661.115942,651.118943 655.416667,651.118943 649.717391,651.118943 C644.018116,651.118943 638.318841,651.118943 632.619565,651.118943 C626.92029,651.118943 621.221014,651.118943 615.521739,651.118943 C609.822464,651.118943 604.123188,651.118943 598.423913,651.118943 C592.724638,651.118943 587.025362,651.118943 581.326087,651.118943 C575.626812,651.118943 569.927536,651.118943 564.228261,651.118943 C558.528986,651.118943 552.82971,651.118943 547.130435,651.118943 C541.431159,651.118943 535.731884,651.118943 530.032609,651.118943 C524.333333,651.118943 518.634058,651.118943 512.934783,651.118943 C507.235507,651.118943 501.536232,651.118943 495.836957,651.118943 C490.137681,651.118943 484.438406,651.118943 478.73913,651.118943 C473.039855,651.118943 467.34058,651.118943 461.641304,651.118943 C455.942029,651.118943 450.242754,651.118943 444.543478,651.118943 C438.844203,651.118943 433.144928,651.118943 427.445652,651.118943 C421.746377,651.118943 416.047101,651.118943 410.347826,651.118943 C404.648551,651.118943 398.949275,651.118943 393.25,651.118943 C387.550725,651.118943 381.851449,651.118943 376.152174,651.118943 C370.452899,651.118943 364.753623,651.118943 359.054348,651.118943 C353.355072,651.118943 347.655797,651.118943 341.956522,651.118943 C336.257246,651.118943 330.557971,651.118943 324.858696,651.118943 C319.15942,651.118943 313.460145,651.118943 307.76087,651.118943 C302.061594,651.118943 296.362319,651.118943 290.663043,651.118943 C284.963768,651.118943 279.264493,651.118943 273.565217,651.118943 C267.865942,651.118943 262.166667,651.118943 256.467391,651.118943 C250.768116,651.118943 245.068841,651.118943 239.369565,651.118943 C233.67029,651.118943 227.971014,651.118943 222.271739,651.118943 C216.572464,651.118943 210.873188,651.118943 205.173913,651.118943 C199.474638,651.118943 193.775362,651.118943 188.076087,651.118943 C182.376812,651.118943 176.677536,651.118943 170.978261,651.118943 C165.278986,651.118943 159.57971,651.118943 153.880435,651.118943 C148.181159,651.118943 142.481884,651.118943 136.782609,651.118943 C131.083333,651.118943 125.384058,651.118943 119.684783,651.118943 C113.985507,651.118943 108.286232,651.118943 102.586957,651.118943 C96.8876812,651.118943 91.1884058,651.118943 85.4891304,651.118943 C79.7898551,651.118943 74.0905797,651.118943 68.3913043,651.118943 C62.692029,651.118943 56.9927536,651.118943 51.2934783,651.118943 C45.5942029,651.118943 39.8949275,651.118943 34.1956522,651.118943 C28.4963768,651.118943 22.7971014,651.118943 17.0978261,651.118943 C11.3985507,651.118943 0,651.118943 0,651.118943 Z"/>
      </g>
    </g>
  </g>
</svg>
