<?xml version="1.0" encoding="UTF-8"?>
<svg id="a" data-name="Layer 1" xmlns="http://www.w3.org/2000/svg" viewBox="0 0 892 558">
  <g>
    <g>
      <circle cx="674.06" cy="224.72" r="44.73" style="fill: none; stroke: #d1d3d3; stroke-dasharray: 0 0 6 5; stroke-linecap: round;"/>
      <circle cx="674.06" cy="224.72" r="89.46" style="fill: none; stroke: #d1d3d3; stroke-dasharray: 0 0 6 5; stroke-linecap: round;"/>
      <circle cx="674.06" cy="224.72" r="134.19" style="fill: none; stroke: #d1d3d3; stroke-dasharray: 0 0 6 5; stroke-linecap: round;"/>
      <circle cx="674.06" cy="224.72" r="178.92" style="fill: none; stroke: #d1d3d3; stroke-dasharray: 0 0 6 5; stroke-linecap: round;"/>
    </g>
    <path d="m674.06,45.81l169.6,123.81-64.44,199.85-188.46-30.11,83.29-114.64V45.81Z" style="fill: #854569;"/>
    <path d="m674.06,45.81l169.6,123.81-64.44,199.85-188.46-30.11,83.29-114.64V45.81Z" style="fill: #854569;"/>
    <path d="m674.06,45.81l93.59,148.51,11.56,175.13-187.91-30.81,82.77-113.92V45.81Z" style="fill: none; stroke: #021e1e;"/>
    <path d="m674.06,45.81l93.59,148.51,11.56,175.13-187.91-30.81,82.77-113.92V45.81Z" style="fill: none; stroke: #021e1e;"/>
    <g>
      <line x1="674.06" y1="224.72" x2="674.06" y2="45.81" style="fill: none; stroke: #f9ffff; stroke-width: 2px;"/>
      <line x1="674.06" y1="224.72" x2="844.22" y2="169.44" style="fill: none; stroke: #f9ffff; stroke-width: 2px;"/>
      <line x1="674.06" y1="224.72" x2="779.22" y2="369.47" style="fill: none; stroke: #f9ffff; stroke-width: 2px;"/>
      <line x1="674.06" y1="224.72" x2="568.89" y2="369.47" style="fill: none; stroke: #f9ffff; stroke-width: 2px;"/>
      <line x1="674.06" y1="224.72" x2="503.9" y2="169.44" style="fill: none; stroke: #f9ffff; stroke-width: 2px;"/>
    </g>
    <g>
      <circle cx="674.06" cy="27.91" r="5.91"/>
      <circle cx="861.24" cy="163.91" r="5.91" transform="translate(561.49 987.77) rotate(-80.78)" style="fill: #059799; stroke: #059799; stroke-width: 2px;"/>
      <circle cx="789.74" cy="383.95" r="5.91"/>
      <circle cx="558.38" cy="383.95" r="5.91"/>
      <circle cx="486.88" cy="163.91" r="5.91"/>
    </g>
  </g>
  <g>
    <g>
      <circle cx="114.21" cy="186.4" r="29.94" style="fill: none; stroke: #d1d3d3; stroke-dasharray: 0 0 6 5; stroke-linecap: round;"/>
      <circle cx="114.21" cy="186.4" r="59.88" style="fill: none; stroke: #d1d3d3; stroke-dasharray: 0 0 6 5; stroke-linecap: round;"/>
      <circle cx="114.21" cy="186.4" r="89.81" style="fill: none; stroke: #d1d3d3; stroke-dasharray: 0 0 6 5; stroke-linecap: round;"/>
      <circle cx="114.21" cy="186.4" r="119.75" style="fill: none; stroke: #d1d3d3; stroke-dasharray: 0 0 6 5; stroke-linecap: round;"/>
    </g>
    <path d="m114.21,135.26l20.96,44.32,31.9,79.56-96.92-12.1,44.06-60.65v-51.13Z" style="fill: #963a62;"/>
    <path d="m114.21,135.26l20.96,44.32,31.9,79.56-96.92-12.1,44.06-60.65v-51.13Z" style="fill: #963a62;"/>
    <path d="m114.21,135.26l4.56,49.65,29.43,48.26-76.85,12.22,42.87-59v-51.13Z" style="fill: none; stroke: #021e1e;"/>
    <path d="m114.21,135.26l4.56,49.65,29.43,48.26-76.85,12.22,42.87-59v-51.13Z" style="fill: none; stroke: #021e1e;"/>
    <g>
      <line x1="114.21" y1="186.4" x2="114.21" y2="66.64" style="fill: none; stroke: #f9ffff; stroke-width: 2px;"/>
      <line x1="114.21" y1="186.4" x2="228.1" y2="149.39" style="fill: none; stroke: #f9ffff; stroke-width: 2px;"/>
      <line x1="114.21" y1="186.4" x2="184.6" y2="283.28" style="fill: none; stroke: #f9ffff; stroke-width: 2px;"/>
      <line x1="114.21" y1="186.4" x2="43.82" y2="283.28" style="fill: none; stroke: #f9ffff; stroke-width: 2px;"/>
      <line x1="114.21" y1="186.4" x2=".32" y2="149.39" style="fill: none; stroke: #f9ffff; stroke-width: 2px;"/>
    </g>
    <g>
      <circle cx="114.21" cy="54.67" r="3.96" style="fill: #059799; stroke: #059799; stroke-width: 2px;"/>
      <circle cx="239.49" cy="145.69" r="3.96" style="fill: #059799; stroke: #059799; stroke-width: 2px;"/>
      <circle cx="191.64" cy="292.96" r="3.96" style="fill: #059799; stroke: #059799; stroke-width: 2px;"/>
      <circle cx="36.78" cy="292.96" r="3.96" style="fill: #059799; stroke: #059799; stroke-width: 2px;"/>
    </g>
  </g>
  <g>
    <g>
      <circle cx="331.6" cy="453.74" r="32.28" style="fill: none; stroke: #d1d3d3; stroke-dasharray: 0 0 6 5; stroke-linecap: round;"/>
      <circle cx="331.6" cy="453.74" r="64.55" style="fill: none; stroke: #d1d3d3; stroke-dasharray: 0 0 6 5; stroke-linecap: round;"/>
      <circle cx="331.6" cy="453.74" r="96.83" style="fill: none; stroke: #d1d3d3; stroke-dasharray: 0 0 6 5; stroke-linecap: round;"/>
      <circle cx="331.6" cy="453.74" r="129.11" style="fill: none; stroke: #d1d3d3; stroke-dasharray: 0 0 6 5; stroke-linecap: round;"/>
    </g>
    <path d="m331.6,325.41l88.3,99.63-12.84,132.56-129.34-29.71,53.88-74.16v-128.33Z" style="fill: #5e5e78;"/>
    <path d="m331.6,325.41l88.3,99.63-12.84,132.56-129.34-29.71,53.88-74.16v-128.33Z" style="fill: #5e5e78;"/>
    <path d="m331.6,325.41l26.52,119.71,48.38,111.71-127.8-30.29,52.89-72.8v-128.33Z" style="fill: none; stroke: #021e1e;"/>
    <path d="m331.6,325.41l26.52,119.71,48.38,111.71-127.8-30.29,52.89-72.8v-128.33Z" style="fill: none; stroke: #021e1e;"/>
    <g>
      <line x1="331.6" y1="453.74" x2="331.6" y2="324.63" style="fill: none; stroke: #f9ffff; stroke-width: 2px;"/>
      <line x1="331.6" y1="453.74" x2="454.39" y2="413.84" style="fill: none; stroke: #f9ffff; stroke-width: 2px;"/>
      <line x1="331.6" y1="453.74" x2="407.49" y2="558.19" style="fill: none; stroke: #f9ffff; stroke-width: 2px;"/>
      <line x1="331.6" y1="453.74" x2="255.72" y2="558.19" style="fill: none; stroke: #f9ffff; stroke-width: 2px;"/>
      <line x1="331.6" y1="453.74" x2="208.82" y2="413.84" style="fill: none; stroke: #f9ffff; stroke-width: 2px;"/>
    </g>
    <g>
      <circle cx="331.6" cy="311.72" r="4.27"/>
      <circle cx="466.67" cy="409.85" r="4.27" style="fill: #059799; stroke: #059799; stroke-width: 2px;"/>
      <circle cx="196.54" cy="409.85" r="4.27"/>
    </g>
  </g>
</svg>