<svg xmlns="http://www.w3.org/2000/svg" width="275" height="225" viewBox="0 0 275 225">
  <path fill="#72A8B5" d="M143.400697,377 C174.076655,377 200,353.017442 200,319.877907 C200,284.122093 174.076655,262.755814 143.400697,262.755814 C130.87108,262.755814 119.205575,267.552326 110.56446,274.52907 C108.836237,269.296512 107.972125,263.627907 107.972125,255.77907 C107.972125,220.895349 139.080139,183.395349 175.372822,168.133721 L167.163763,152 C104.515679,181.651163 76,231.796512 76,289.790698 C76,304.180233 78.5923345,329.034884 91.1219512,348.656977 C101.923345,365.662791 117.477352,377 143.400697,377 Z M294.400697,377 C325.508711,377 351,353.017442 351,319.877907 C351,284.122093 325.508711,262.755814 294.400697,262.755814 C281.87108,262.755814 270.637631,267.552326 261.56446,274.52907 C259.836237,269.296512 258.972125,263.627907 258.972125,255.77907 C258.972125,220.895349 290.080139,183.395349 326.372822,168.133721 L318.163763,152 C255.515679,181.651163 227,231.796512 227,289.790698 C227,304.180233 229.592334,329.034884 242.121951,348.656977 C252.923345,365.662791 268.909408,377 294.400697,377 Z" transform="translate(-76 -152)"/>
</svg>
