<svg xmlns="http://www.w3.org/2000/svg" width="279" height="225" viewBox="0 0 279 225">
  <path fill="#72A8B5" d="M1089.39213,548 C1153.10079,518.348837 1182.09921,468.203488 1182.09921,410.209302 C1182.09921,395.819767 1179.46299,370.965116 1166.72126,351.343023 C1155.73701,334.337209 1139.48031,323 1113.55748,323 C1081.92283,323 1056,346.982558 1056,380.122093 C1056,415.877907 1081.92283,437.244186 1113.55748,437.244186 C1126.29921,437.244186 1137.72283,432.447674 1146.94961,425.47093 C1148.70709,430.703488 1149.58583,436.372093 1149.58583,444.22093 C1149.58583,479.104651 1117.95118,516.604651 1081.04409,531.866279 L1089.39213,548 Z M1242.29291,548 C1306.00157,518.348837 1335,468.203488 1335,410.209302 C1335,395.819767 1332.36378,370.965116 1319.62205,351.343023 C1308.6378,334.337209 1292.82047,323 1266.45827,323 C1235.26299,323 1208.90079,346.982558 1208.90079,380.122093 C1208.90079,415.877907 1235.26299,437.244186 1266.45827,437.244186 C1279.2,437.244186 1291.06299,432.447674 1299.85039,425.47093 C1301.60787,430.703488 1302.48661,436.372093 1302.48661,444.22093 C1302.48661,479.104651 1270.85197,516.604651 1233.94488,531.866279 L1242.29291,548 Z" transform="translate(-1056 -323)"/>
</svg>
