<svg xmlns="http://www.w3.org/2000/svg" width="279" height="225"><path fill="#3EB8C4" d="M33.392 225C97.101 195.349 126.1 145.203 126.1 87.21c0-14.39-2.636-39.245-15.378-58.867C99.737 11.337 83.481 0 57.557 0 25.923 0 0 23.983 0 57.122c0 35.756 25.923 57.122 57.557 57.122 12.742 0 24.166-4.796 33.393-11.773 1.757 5.232 2.636 10.901 2.636 18.75 0 34.884-31.635 72.384-68.542 87.645L33.392 225zm152.9 0C250.003 195.349 279 145.203 279 87.21c0-14.39-2.636-39.245-15.378-58.867C252.638 11.337 236.82 0 210.458 0c-31.195 0-57.557 23.983-57.557 57.122 0 35.756 26.362 57.122 57.557 57.122 12.742 0 24.605-4.796 33.392-11.773 1.758 5.232 2.637 10.901 2.637 18.75 0 34.884-31.635 72.384-68.542 87.645L186.293 225z"/></svg>