<svg xmlns="http://www.w3.org/2000/svg" width="275" height="225"><path fill="#3EB8C4" d="M67.4 225c30.677 0 56.6-23.983 56.6-57.122 0-35.756-25.923-57.122-56.6-57.122-12.529 0-24.194 4.796-32.836 11.773-1.728-5.232-2.592-10.901-2.592-18.75 0-34.884 31.108-72.384 67.4-87.645L91.165 0C28.516 29.651 0 79.797 0 137.79c0 14.39 2.592 39.245 15.122 58.867C25.923 213.663 41.477 225 67.401 225zm151 0c31.109 0 56.6-23.983 56.6-57.122 0-35.756-25.491-57.122-56.6-57.122-12.529 0-23.762 4.796-32.836 11.773-1.728-5.232-2.592-10.901-2.592-18.75 0-34.884 31.108-72.384 67.4-87.645L242.165 0C179.516 29.651 151 79.797 151 137.79c0 14.39 2.592 39.245 15.122 58.867C176.923 213.663 192.909 225 218.401 225z"/></svg>