<svg xmlns="http://www.w3.org/2000/svg" width="40" height="40"><g fill="#030226"><path d="M16.647 2.67c-7.716 0-13.97 6.255-13.97 13.97 0 7.717 6.254 13.972 13.97 13.972 7.716 0 13.971-6.255 13.971-13.971C30.61 8.928 24.36 2.678 16.648 2.67zm0 1.33c4.11.004 7.96 2.007 10.323 5.37l-1.664 1.663a2.625 2.625 0 00-1.34-.38 2.661 2.661 0 00-2.662 2.661c.002.474.133.938.377 1.344l-4.356 4.356a2.58 2.58 0 00-2.686 0l-3.026-3.026c.245-.405.375-.87.377-1.343a2.656 2.656 0 00-5.228-.665H4.294A12.658 12.658 0 0116.647 4zm8.649 9.314a1.33 1.33 0 11-2.661 0 1.33 1.33 0 012.66 0zm-7.984 7.984a1.33 1.33 0 11-2.66 0 1.33 1.33 0 012.66 0zm-6.652-6.653a1.33 1.33 0 11-2.661 0 1.33 1.33 0 012.66 0zm12.129 13.048a12.629 12.629 0 01-6.142 1.588c-6.976.005-12.635-5.647-12.64-12.623 0-.45.023-.9.071-1.348h2.684a2.661 2.661 0 002.567 1.996 2.626 2.626 0 001.343-.377l3.026 3.026c-.245.405-.375.87-.377 1.343a2.661 2.661 0 005.322 0 2.626 2.626 0 00-.377-1.343l4.356-4.357c.406.245.87.375 1.343.377a2.661 2.661 0 002.661-2.66 2.626 2.626 0 00-.377-1.344l1.45-1.45c3.386 6.098 1.188 13.787-4.91 17.172z"/><path d="M33.28 6.662a2.661 2.661 0 002.566-1.996h4.086v-1.33h-4.086a2.661 2.661 0 00-2.567-1.997A2.661 2.661 0 0030.618 4c.002.474.133.938.377 1.344l-1.169 1.169c-5.593-7.287-16.033-8.66-23.32-3.067-7.287 5.593-8.66 16.034-3.067 23.32 5.28 6.878 14.957 8.547 22.235 3.834l2.007 2.008.941.94 5.356 5.356a3.488 3.488 0 104.932-4.933l-5.355-5.355-.941-.94-2.008-2.009a16.577 16.577 0 000-18.053l1.33-1.33c.406.244.87.375 1.343.378zm0-3.992a1.33 1.33 0 110 2.661 1.33 1.33 0 010-2.661zm4.69 32.242a2.158 2.158 0 11-3.052 3.051l-5.355-5.355 3.05-3.051 5.356 5.355zm-6.297-6.296l-3.05 3.05-1.842-1.84c.094-.072.181-.152.274-.226a16.761 16.761 0 00.729-.618l.213-.2c.273-.255.537-.52.792-.792.067-.071.133-.14.2-.213a16.47 16.47 0 00.618-.73c.074-.091.153-.179.225-.273l1.841 1.842zm-2.58-3.09c-.21.292-.426.58-.654.855-.066.08-.137.159-.206.238a14.988 14.988 0 01-1.608 1.608c-.08.066-.157.139-.237.206-.277.228-.563.444-.856.654-6.887 4.92-16.459 3.326-21.379-3.561C-.767 18.639.827 9.067 7.714 4.146c6.887-4.92 16.46-3.325 21.38 3.562a15.325 15.325 0 010 17.818z"/></g></svg>