<svg xmlns="http://www.w3.org/2000/svg" width="40" height="42"><g fill="#030226"><path d="M1.5 13.458l2.8 2.218c.24.19.57.227.847.095a.792.792 0 00.453-.714v-2.378H9c-.01.015-.023.028-.033.043a13.379 13.379 0 00-2.055 11.542 13.526 13.526 0 007.843 8.775.897.897 0 00.065.023A13.674 13.674 0 0020 34.075c.805 0 1.608-.07 2.4-.21v4.965c.002 1.75 1.433 3.168 3.2 3.17h11.2c1.767-.002 3.198-1.42 3.2-3.17v-7.193a3.934 3.934 0 00-1.5-3.095l-2.8-2.218a.806.806 0 00-.847-.095.792.792 0 00-.453.714v2.378h-4.05c.223-.26.447-.516.65-.79.002-.004.006-.008.01-.012a13.368 13.368 0 001.106-14.04C29.79 9.972 25.11 7.133 19.999 7.133c-.805 0-1.608.071-2.4.211V3.17C17.598 1.42 16.167.002 14.4 0H3.2C1.433.002.002 1.42 0 3.17v7.193a3.934 3.934 0 001.5 3.095zm33.7 17.448c.442 0 .8-.355.8-.793v-1.521l1.5 1.188c.57.45.902 1.134.9 1.857v7.193a1.595 1.595 0 01-1.6 1.585H25.6A1.595 1.595 0 0124 38.83v-6.34a1.595 1.595 0 011.6-1.584h9.6zm-8.573-1.585c.13-.466.25-.932.357-1.398.67.153 1.343.33 2.016.533-.27.303-.556.59-.855.865h-1.517zm3.407-2.207c-.91-.291-1.82-.539-2.728-.743.301-1.643.473-3.306.514-4.975h4.15a11.72 11.72 0 01-1.936 5.718zm.014-12.998a11.692 11.692 0 011.921 5.695H27.82a31.741 31.741 0 00-.512-4.956 33.278 33.278 0 002.74-.74v.001zm-1.027-1.346c-.672.2-1.349.377-2.032.532a30.705 30.705 0 00-.813-2.887 11.904 11.904 0 012.845 2.355zM20.8 8.748c1.137.076 2.257.312 3.326.702a29.363 29.363 0 011.296 4.172 31.327 31.327 0 01-4.622.46V8.749zm0 6.922a32.918 32.918 0 004.94-.495c.28 1.53.44 3.08.48 4.636H20.8v-4.14zm0 5.726h5.42c-.04 1.56-.2 3.115-.48 4.65a32.908 32.908 0 00-4.94-.506v-4.144zm0 5.729c1.549.043 3.092.202 4.618.474-.14.6-.297 1.196-.473 1.79a3.175 3.175 0 00-2.52 2.852c-.536.109-1.079.18-1.625.214v-5.33zM9.951 14.117c.863.274 1.724.509 2.583.704a31.925 31.925 0 00-.514 4.99H8.03c.134-2.03.795-3.992 1.921-5.694zm1.026-1.345l.084-.093h1.931c-.05.198-.095.393-.14.589a30.545 30.545 0 01-1.875-.496zM9.938 27.068a11.698 11.698 0 01-1.907-5.672h3.99c.04 1.668.212 3.331.514 4.973-.861.195-1.727.428-2.597.7zm1.026 1.348c.633-.186 1.263-.35 1.89-.493.213.927.469 1.842.766 2.746a12.006 12.006 0 01-2.656-2.253zm8.236 4.042a12.253 12.253 0 01-3.518-.772 29.34 29.34 0 01-1.263-4.087 30.521 30.521 0 014.781-.48v5.339zm0-6.92c-1.71.04-3.415.21-5.099.51a30.226 30.226 0 01-.481-4.652h5.58v4.142zm0-5.727h-5.58a30.3 30.3 0 01.48-4.664c1.683.307 3.389.482 5.1.523v4.141zM17.6 9.51v-.548a12.004 12.004 0 011.6-.209v5.33a31.263 31.263 0 01-4.782-.488c.073-.312.152-.626.237-.94 1.658-.129 2.94-1.497 2.945-3.145zm-16-6.34a1.595 1.595 0 011.6-1.584h11.2c.883.001 1.599.71 1.6 1.585v6.34a1.595 1.595 0 01-1.6 1.584H4.8c-.442 0-.8.355-.8.793v1.521L2.5 12.22a2.36 2.36 0 01-.9-1.857V3.17z"/><ellipse cx="8.8" cy="5.943" rx="1.2" ry="1.189"/><ellipse cx="13.2" cy="5.943" rx="1.2" ry="1.189"/><ellipse cx="4.4" cy="5.943" rx="1.2" ry="1.189"/><ellipse cx="31.2" cy="36.057" rx="1.2" ry="1.189"/><ellipse cx="35.6" cy="36.057" rx="1.2" ry="1.189"/><ellipse cx="26.8" cy="36.057" rx="1.2" ry="1.189"/></g></svg>