<svg xmlns="http://www.w3.org/2000/svg" width="40" height="40"><g fill="#030226"><path d="M34.512 29.333a8.96 8.96 0 00-.016-3.4l3.053-7.368v-.015a12.52 12.52 0 012.144-3.721.994.994 0 00.246-.91l-1.252-5.407a.653.653 0 00-.067-.161c-.005-.01-.007-.022-.013-.032-.005-.009-.028-.032-.042-.049a.672.672 0 00-.094-.11.62.62 0 00-.072-.044.677.677 0 00-.104-.063.659.659 0 00-.156-.038c-.015 0-.028-.01-.044-.011a.667.667 0 00-.367.082c-.01.005-.022.007-.032.013h-.007l-4.707 2.938a.995.995 0 00-.47.82c-.131 1.44-.51 2.846-1.121 4.156v.007l-1.526 3.689a8.943 8.943 0 00-2.382-.86c.315-2.17.43-4.365.346-6.556a7.276 7.276 0 001.654-5.341c-.416-3.885-3.928-6.691-4.078-6.81a.667.667 0 00-1.056.696c.343 1.29.046 2.65-2.49 5.448a3.901 3.901 0 00-.914 4.251c.224.563.545 1.082.949 1.534a46.7 46.7 0 00-.375 2.955 33.388 33.388 0 00-.116 4.728 9.07 9.07 0 00-1.66 1.157L16.509 7.084c0-.014-.013-.024-.017-.037a.632.632 0 00-.047-.128l-3.302-6.1a1.54 1.54 0 00-2.892.678L10 8.427c0 .05.006.1.017.148v.03l3.298 14.078c-.52.023-1.037.1-1.541.23L8.145 14.15a1.347 1.347 0 00-1.74-.713L.86 15.733a1.337 1.337 0 00-.722 1.742L5.06 29.347A5.33 5.33 0 005.333 40h29.334a5.334 5.334 0 10-.155-10.667zm-.68-17.256l2.795-1.744-.989 2.39a.667.667 0 001.232.51l.99-2.389.74 3.209a13.187 13.187 0 00-1.933 3.191 2.742 2.742 0 01-3.727-1.541c.468-1.16.769-2.381.893-3.626zM32.3 17.311a4.06 4.06 0 001.662 1.21 4.23 4.23 0 001.632.344c.135 0 .27-.008.404-.024l-2.128 5.133a9.048 9.048 0 00-2.862-3.54l1.292-3.123zm-9.133-4.761l3.35.205c.02.622.013 1.266-.008 1.92-1.116.08-2.237.026-3.34-.161l-.25-.033a48.38 48.38 0 01.247-1.931h.001zm-.318-5.369c1.77-1.952 2.687-3.454 2.9-4.866a8.916 8.916 0 012.407 4.778 5.973 5.973 0 01-1.35 4.342l-3.907-.24a2.78 2.78 0 01-.051-4.014h.001zm-.05 8.629l.193.025c.859.133 1.726.207 2.595.221.276 0 .567-.022.858-.045-.06.858-.16 1.754-.286 2.68-.165-.008-.326-.024-.491-.024a8.929 8.929 0 00-2.955.508 32.176 32.176 0 01.084-3.365h.001zm-5.157 7.796l-1.908-8.125a.667.667 0 00-1.298.304l1.714 7.313a7.55 7.55 0 00-1.453-.362L11.77 10.249c.41.187.855.284 1.305.284.042 0 .087-.006.13-.008l.471 2.013a.667.667 0 101.298-.304l-.472-2.014c.452-.2.851-.504 1.165-.887l2.974 12.72a8.943 8.943 0 00-1 1.553zM13.567 9.139a2.213 2.213 0 01-2.226-.891l.085-2.348c.232.043.467.066.703.067a2.97 2.97 0 00.678-.076c.45-.118.87-.327 1.236-.614l1.122 2.072a2.211 2.211 0 01-1.598 1.792v-.002zm-1.826-7.788c.091-.02.185.021.23.103L13.4 4.097a2.275 2.275 0 01-.9.5 2.267 2.267 0 01-1.027-.048l.108-3.004a.207.207 0 01.16-.194zM6.917 14.667l.509 1.23-2.467 1.022a.667.667 0 00.512 1.23l2.467-1.022.51 1.232-1.234.512a.667.667 0 10.51 1.232l1.235-.512.51 1.232L7 21.847a.667.667 0 10.51 1.232l2.467-1.022.54 1.302A7.74 7.74 0 006.2 28.613l-4.832-11.65 5.549-2.296zm27.75 24H5.333a4 4 0 111.141-7.835.667.667 0 00.86-.626 6.333 6.333 0 0110.133-4.94.667.667 0 001.022-.3 7.667 7.667 0 0114.844 2.7 7.596 7.596 0 01-.336 2.25.667.667 0 00.78.848c.292-.064.59-.097.89-.097a4 4 0 110 8z"/><path d="M25.79 10.467c.21 0 .407-.097.533-.264a5 5 0 00.887-3.925.667.667 0 10-1.288.343 3.703 3.703 0 01-.661 2.778.667.667 0 00.533 1.066l-.004.002zm-.877 20.2a3.277 3.277 0 00-1.43.333 4 4 0 00-6.91 3.927.667.667 0 001.227-.523 2.716 2.716 0 01-.22-1.07 2.667 2.667 0 012.667-2.667 2.64 2.64 0 012.41 1.533c.014.022.03.043.046.063.01.023.023.045.036.066.012.015.029.022.042.036a.636.636 0 00.104.086.646.646 0 00.106.067.66.66 0 00.12.037c.041.011.083.018.126.02a.82.82 0 00.254-.043.503.503 0 00.053-.013.6.6 0 00.062-.046.693.693 0 00.07-.036c.35-.283.787-.437 1.237-.437a2 2 0 011.814 1.163.667.667 0 101.213-.553 3.333 3.333 0 00-3.027-1.943zM11.79 26.034c-.1.033-2.456.847-2.456 3.3a.667.667 0 001.334 0 2.292 2.292 0 011.548-2.036.668.668 0 00-.426-1.267v.003zm9.382-.72a.667.667 0 00.808-.485 2.843 2.843 0 012.691-2.162.667.667 0 00-.003-1.334 4.153 4.153 0 00-3.98 3.172c-.09.357.127.719.484.808z"/></g></svg>