<svg xmlns="http://www.w3.org/2000/svg" width="40" height="35"><g fill="#030226"><path d="M15.653 25.463c-.15 0-.301-.052-.424-.157l-4.239-3.609a.655.655 0 010-.997l4.239-3.609a.655.655 0 11.849.997l-3.653 3.11 3.653 3.11a.655.655 0 01-.425 1.155zm8.367 0a.655.655 0 01-.425-1.154l3.652-3.11-3.652-3.11a.655.655 0 01.849-.998l4.238 3.609a.655.655 0 010 .997l-4.238 3.61a.652.652 0 01-.424.156zm-5.684 2.707a.655.655 0 01-.642-.79l2.642-12.542a.655.655 0 011.281.27L18.976 27.65a.655.655 0 01-.64.52z"/><path d="M35.275 35.002H4.398A4.403 4.403 0 010 30.605V4.398A4.403 4.403 0 014.398 0h30.877a4.403 4.403 0 014.398 4.398v26.207a4.403 4.403 0 01-4.398 4.397zM4.398 1.31A3.091 3.091 0 001.31 4.398v26.207a3.091 3.091 0 003.088 3.087h30.877a3.091 3.091 0 003.088-3.087V4.398a3.091 3.091 0 00-3.088-3.088H4.398z"/><path d="M39.018 10.488H.655a.655.655 0 110-1.31h38.363a.655.655 0 010 1.31zM11.19 7.354A2.076 2.076 0 019.118 5.28c0-1.143.93-2.073 2.073-2.073 1.143 0 2.073.93 2.073 2.073 0 1.143-.93 2.073-2.073 2.073zm0-2.836a.764.764 0 000 1.526.764.764 0 000-1.526zM4.822 7.334A2.075 2.075 0 012.75 5.26c0-1.143.93-2.073 2.072-2.073 1.143 0 2.073.93 2.073 2.073 0 1.143-.93 2.073-2.073 2.073zm0-2.836a.764.764 0 000 1.526.764.764 0 000-1.526zM17.56 7.374A2.075 2.075 0 0115.487 5.3c0-1.143.93-2.073 2.072-2.073 1.143 0 2.073.93 2.073 2.073 0 1.143-.93 2.073-2.073 2.073zm0-2.836a.763.763 0 10.002 1.527.763.763 0 00-.002-1.527z"/></g></svg>