<svg xmlns="http://www.w3.org/2000/svg" width="1071" height="1049"><defs><radialGradient id="a" fx="50%" fy="50%"><stop offset="0%" stop-color="#E3B0D2"/><stop offset="50.055%" stop-color="#E498C8"/><stop offset="89.899%" stop-color="#E677BA"/><stop offset="100%" stop-color="#E652AE"/></radialGradient></defs><g fill="none" fill-rule="evenodd" opacity=".501"><g transform="translate(232.164 393)"><g stroke="#C2C3C7" stroke-opacity=".6" stroke-width="2" transform="translate(56.957 56.957)"><circle cx="226.543" cy="226.543" r="132.15"/><circle cx="226.543" cy="226.543" r="151.029"/><circle cx="226.543" cy="226.543" r="169.907"/><circle cx="226.543" cy="226.543" r="188.786"/><circle cx="226.543" cy="226.543" r="207.664"/><circle cx="226.543" cy="226.543" r="226.543"/></g><circle cx="283.179" cy="283.179" r="283.179" stroke="#F2F2F6" stroke-width="3" transform="translate(.321 .321)"/><circle cx="286.646" cy="286.646" r="97.539" fill="url(#a)"/></g><g fill="#262626" fill-rule="nonzero" transform="translate(214.164 374)"><circle cx="302" cy="18.875" r="18.875"/><circle cx="585.125" cy="302" r="18.875"/><circle cx="302" cy="585.125" r="18.875"/><circle cx="18.875" cy="302" r="18.875"/></g><g fill-rule="nonzero"><path fill="#262626" d="M903.425 1045.262a12.713 12.713 0 009.11 3.686 12.709 12.709 0 009.017-3.903c198.15-206.633 198.15-531.457 0-738.09a12.709 12.709 0 00-9.017-3.903 12.713 12.713 0 00-9.11 3.686 12.53 12.53 0 00-.213 17.584c188.825 196.909 188.825 506.447 0 703.356a12.53 12.53 0 00.213 17.584z"/><path fill="#F2F2F6" d="M903.425 1045.262a12.713 12.713 0 009.11 3.686 12.709 12.709 0 009.017-3.903c62.209-64.873 107.022-144.235 130.326-230.8a12.519 12.519 0 00-1.347-9.682 12.66 12.66 0 00-7.912-5.806c-6.684-1.606-13.437 2.38-15.214 8.982-22.207 82.492-64.911 158.12-124.193 219.939a12.53 12.53 0 00.213 17.584z"/></g><g fill-rule="nonzero"><path fill="#262626" d="M166.903 1045.262a12.713 12.713 0 01-9.11 3.686 12.709 12.709 0 01-9.017-3.903c-198.15-206.633-198.15-531.457 0-738.09a12.709 12.709 0 019.017-3.903 12.713 12.713 0 019.11 3.686 12.53 12.53 0 01.213 17.584c-188.825 196.909-188.825 506.447 0 703.356a12.53 12.53 0 01-.213 17.584z"/><path fill="#F2F2F6" d="M12.983 676c-3.412 0-6.68-1.368-9.064-3.795A12.545 12.545 0 01.32 663.11a531.902 531.902 0 0125.053-148.896 12.61 12.61 0 016.381-7.438 12.74 12.74 0 019.813-.658c6.503 2.223 10.033 9.196 7.953 15.71a506.872 506.872 0 00-23.874 141.888C25.481 670.548 19.86 676 12.983 676zm0 0c-3.412 0-6.68 1.368-9.064 3.795A12.545 12.545 0 00.32 688.89c.084 3.452.201 6.903.352 10.353a12.556 12.556 0 004.21 8.834 12.716 12.716 0 009.3 3.178c6.861-.462 12.099-6.279 11.8-13.106a506.59 506.59 0 01-.336-9.865C25.481 681.452 19.86 676 12.983 676z"/></g><g fill="#F2F2F6" fill-rule="nonzero"><path d="M272.935 202.446a6.309 6.309 0 012.515-8.598 546.534 546.534 0 0184.546-36.827 6.278 6.278 0 014.834.339 6.301 6.301 0 01-.81 11.596 533.97 533.97 0 00-82.602 35.98 6.282 6.282 0 01-8.483-2.49zm-9.146-16.529a6.309 6.309 0 012.513-8.597 565.38 565.38 0 0187.866-38.273 6.278 6.278 0 014.834.34 6.301 6.301 0 01-.813 11.597 552.816 552.816 0 00-85.914 37.422 6.282 6.282 0 01-8.486-2.489zm-9.146-16.528a6.309 6.309 0 012.511-8.596 584.226 584.226 0 0191.187-39.72 6.278 6.278 0 014.832.342 6.301 6.301 0 01-.816 11.597 571.662 571.662 0 00-89.226 38.865 6.282 6.282 0 01-8.488-2.488zm-9.145-16.529a6.309 6.309 0 012.509-8.595 603.072 603.072 0 0194.507-41.165 6.278 6.278 0 014.83.342 6.301 6.301 0 01-.82 11.597 590.508 590.508 0 00-92.536 40.308 6.282 6.282 0 01-8.49-2.487zM376.99 158.2a6.309 6.309 0 01.478-4.832 6.29 6.29 0 013.766-3.055 546.188 546.188 0 0190.341-18.412 6.28 6.28 0 014.658 1.338 6.302 6.302 0 012.325 4.26 6.296 6.296 0 01-5.523 6.914 533.632 533.632 0 00-88.265 17.99 6.286 6.286 0 01-7.78-4.203zm-5.516-18.073a6.309 6.309 0 01.478-4.83 6.29 6.29 0 013.764-3.055 565.022 565.022 0 0193.89-19.136 6.28 6.28 0 014.657 1.34 6.302 6.302 0 012.323 4.258 6.296 6.296 0 01-5.525 6.915 552.466 552.466 0 00-91.804 18.71 6.286 6.286 0 01-7.783-4.202zm-5.516-18.072a6.309 6.309 0 01.478-4.829 6.29 6.29 0 013.762-3.056 583.856 583.856 0 0197.438-19.859 6.28 6.28 0 014.656 1.34 6.302 6.302 0 012.322 4.259 6.296 6.296 0 01-5.528 6.915 571.3 571.3 0 00-95.342 19.432 6.286 6.286 0 01-7.786-4.202zm-5.515-18.072a6.309 6.309 0 01.477-4.828 6.29 6.29 0 013.76-3.056 602.69 602.69 0 01100.986-20.582 6.28 6.28 0 014.655 1.34 6.302 6.302 0 012.322 4.258 6.296 6.296 0 01-5.53 6.916 590.135 590.135 0 00-98.882 20.153 6.286 6.286 0 01-7.788-4.2zm-5.516-18.072a6.309 6.309 0 01.477-4.827 6.29 6.29 0 013.76-3.057 621.525 621.525 0 01104.532-21.305 6.28 6.28 0 014.653 1.342 6.302 6.302 0 012.322 4.257 6.296 6.296 0 01-5.533 6.916 608.969 608.969 0 00-102.42 20.875 6.286 6.286 0 01-7.79-4.2zm-5.515-18.072a6.309 6.309 0 01.476-4.826 6.29 6.29 0 013.758-3.057 640.359 640.359 0 01108.08-22.028 6.28 6.28 0 014.652 1.343 6.302 6.302 0 012.32 4.256 6.296 6.296 0 01-5.533 6.916 627.803 627.803 0 00-105.961 21.596 6.286 6.286 0 01-7.792-4.2zm-5.515-18.072a6.309 6.309 0 01.475-4.825 6.29 6.29 0 013.757-3.057 659.193 659.193 0 01111.627-22.751 6.28 6.28 0 014.651 1.343 6.302 6.302 0 012.32 4.256 6.296 6.296 0 01-5.536 6.916 646.637 646.637 0 00-109.5 22.318 6.286 6.286 0 01-7.794-4.2zm-5.516-18.072a6.309 6.309 0 01.475-4.824 6.29 6.29 0 013.756-3.058A678.027 678.027 0 01457.786.34a6.28 6.28 0 014.65 1.345 6.302 6.302 0 012.32 4.255 6.296 6.296 0 01-5.538 6.916 665.471 665.471 0 00-113.042 23.04 6.286 6.286 0 01-7.795-4.2zM487.951 136.592a6.306 6.306 0 011.471-4.626 6.284 6.284 0 014.318-2.204 546.073 546.073 0 0182.675 0c1.676.127 3.23.921 4.318 2.204a6.306 6.306 0 011.47 4.626 6.291 6.291 0 01-6.738 5.732 533.519 533.519 0 00-80.775 0 6.291 6.291 0 01-6.739-5.732zm-1.644-18.826a6.306 6.306 0 011.47-4.625 6.284 6.284 0 014.316-2.205 564.903 564.903 0 0185.969 0 6.284 6.284 0 014.316 2.205 6.306 6.306 0 011.47 4.625 6.291 6.291 0 01-6.742 5.732 552.35 552.35 0 00-84.057 0 6.291 6.291 0 01-6.742-5.732zm-1.644-18.826a6.306 6.306 0 011.47-4.624 6.284 6.284 0 014.314-2.205 583.733 583.733 0 0189.261 0 6.284 6.284 0 014.315 2.205 6.306 6.306 0 011.47 4.624 6.291 6.291 0 01-6.745 5.732 571.18 571.18 0 00-87.341 0 6.291 6.291 0 01-6.744-5.732zm-1.644-18.826a6.306 6.306 0 011.468-4.623 6.284 6.284 0 014.314-2.206 602.563 602.563 0 0192.553 0 6.284 6.284 0 014.314 2.206 6.306 6.306 0 011.468 4.623 6.291 6.291 0 01-6.746 5.732 590.01 590.01 0 00-90.625 0 6.291 6.291 0 01-6.746-5.732zm-1.644-18.826a6.306 6.306 0 011.468-4.622 6.284 6.284 0 014.312-2.207 621.393 621.393 0 0195.846 0 6.284 6.284 0 014.312 2.207 6.306 6.306 0 011.467 4.622 6.291 6.291 0 01-6.748 5.732 608.84 608.84 0 00-93.91 0 6.291 6.291 0 01-6.747-5.732zm-1.644-18.825a6.306 6.306 0 011.467-4.622 6.284 6.284 0 014.31-2.207 640.223 640.223 0 0199.139 0 6.284 6.284 0 014.31 2.207 6.306 6.306 0 011.467 4.622 6.291 6.291 0 01-6.75 5.73 627.67 627.67 0 00-97.193 0 6.291 6.291 0 01-6.75-5.73zm-1.644-18.826a6.306 6.306 0 011.466-4.621 6.284 6.284 0 014.31-2.208 659.053 659.053 0 01102.43 0 6.284 6.284 0 014.309 2.208 6.306 6.306 0 011.467 4.62 6.291 6.291 0 01-6.752 5.732 646.5 646.5 0 00-100.479 0 6.291 6.291 0 01-6.751-5.731zM591.597 137.498a6.302 6.302 0 012.325-4.26 6.28 6.28 0 014.658-1.338 546.188 546.188 0 0190.341 18.413 6.29 6.29 0 013.767 3.055 6.309 6.309 0 01.478 4.831 6.286 6.286 0 01-7.781 4.203 533.632 533.632 0 00-88.265-17.989 6.296 6.296 0 01-5.523-6.915zm1.972-18.794a6.302 6.302 0 012.324-4.26 6.28 6.28 0 014.657-1.338 565.022 565.022 0 0193.89 19.136 6.29 6.29 0 013.764 3.055c.797 1.482.969 3.22.478 4.83a6.286 6.286 0 01-7.784 4.203 552.466 552.466 0 00-91.803-18.711 6.296 6.296 0 01-5.526-6.915zm1.972-18.794a6.302 6.302 0 012.323-4.259 6.28 6.28 0 014.655-1.34 583.857 583.857 0 0197.438 19.86 6.29 6.29 0 013.763 3.055 6.309 6.309 0 01.477 4.829 6.286 6.286 0 01-7.786 4.202 571.3 571.3 0 00-95.342-19.432 6.296 6.296 0 01-5.528-6.915zm1.972-18.795a6.302 6.302 0 012.322-4.257 6.28 6.28 0 014.654-1.342A602.69 602.69 0 01705.474 96.1a6.29 6.29 0 013.762 3.056 6.309 6.309 0 01.476 4.828 6.286 6.286 0 01-7.788 4.201 590.135 590.135 0 00-98.881-20.153 6.296 6.296 0 01-5.53-6.916zm1.972-18.794a6.302 6.302 0 012.32-4.257 6.28 6.28 0 014.654-1.342 621.525 621.525 0 01104.533 21.305 6.29 6.29 0 013.76 3.057 6.309 6.309 0 01.476 4.827 6.286 6.286 0 01-7.79 4.2 608.969 608.969 0 00-102.421-20.874 6.296 6.296 0 01-5.532-6.916zM702.166 161.043a6.296 6.296 0 013.158-3.683 6.278 6.278 0 014.835-.339 546.534 546.534 0 0184.545 36.827 6.309 6.309 0 012.515 8.598 6.282 6.282 0 01-8.483 2.49 533.97 533.97 0 00-82.602-35.98 6.301 6.301 0 01-3.968-7.913z"/></g></g></svg>