<svg xmlns="http://www.w3.org/2000/svg" width="120" height="120"><g fill="none" fill-rule="evenodd"><circle cx="60" cy="60" r="60" fill="#11A6B4"/><g fill="#EDFCFF" fill-rule="nonzero"><path d="M90.412 42.78a8.091 8.091 0 00-5.76-2.386c-2.175 0-4.22.847-5.76 2.385L51.363 70.31 39.9 58.85a8.09 8.09 0 00-5.76-2.387c-2.175 0-4.22.848-5.759 2.386-3.176 3.176-3.176 8.343 0 11.519l17.22 17.22a8.09 8.09 0 005.76 2.386 8.09 8.09 0 005.76-2.385l33.29-33.29a8.093 8.093 0 002.385-5.76c0-2.176-.847-4.221-2.385-5.76zM87.6 51.486l-33.29 33.29a4.141 4.141 0 01-2.948 1.221 4.141 4.141 0 01-2.948-1.221l-17.22-17.22a4.173 4.173 0 010-5.896 4.141 4.141 0 012.947-1.221c1.114 0 2.16.434 2.948 1.22l12.867 12.868a1.989 1.989 0 002.811 0L81.704 45.59a4.141 4.141 0 012.948-1.221c1.114 0 2.16.434 2.948 1.22a4.141 4.141 0 011.22 2.949c0 1.114-.432 2.16-1.22 2.948z"/><path d="M37.693 50.846a12.317 12.317 0 014.44 2.855 12.35 12.35 0 012.856 4.439 1.987 1.987 0 003.724 0 12.425 12.425 0 017.295-7.295 1.988 1.988 0 000-3.725 12.335 12.335 0 01-4.44-2.858 12.33 12.33 0 01-2.855-4.439 1.988 1.988 0 00-3.724 0 12.332 12.332 0 01-2.857 4.44 12.33 12.33 0 01-4.44 2.857 1.989 1.989 0 00.001 3.726zm9.158-6.054c.56.813 1.196 1.575 1.905 2.282.71.71 1.473 1.347 2.286 1.909a16.404 16.404 0 00-4.19 4.191 16.395 16.395 0 00-1.907-2.285 16.456 16.456 0 00-2.284-1.907 16.377 16.377 0 002.283-1.906c.71-.708 1.346-1.47 1.907-2.284zm10.526-4.21a9.29 9.29 0 013.346 2.152 9.312 9.312 0 012.152 3.347 1.989 1.989 0 003.725 0 9.366 9.366 0 015.499-5.499 1.987 1.987 0 000-3.725 9.292 9.292 0 01-3.347-2.154 9.296 9.296 0 01-2.152-3.345 1.988 1.988 0 00-3.725 0 9.302 9.302 0 01-2.152 3.347 9.297 9.297 0 01-3.347 2.152 1.989 1.989 0 00.001 3.726zm6.157-3.066a13.41 13.41 0 001.204-1.377c.366.483.768.942 1.202 1.376.435.436.896.838 1.38 1.205a13.343 13.343 0 00-2.581 2.581 13.475 13.475 0 00-2.582-2.581c.483-.367.943-.768 1.377-1.204z"/></g></g></svg>