<svg xmlns="http://www.w3.org/2000/svg" width="64" height="50"><g fill="#01171A"><path d="M62.121 13.025h-10.02c-1.07 0-2.003.808-2.003 1.88v2.128H39.076c-1.07 0-2.004.808-2.004 1.88v21.165H2.004c-.035 0-.125-.09-.125-.125v-4.008h33.19v-1.879H1.878V1.88c0-.035.09 0 .125 0h54.105c.035 0 0-.035 0 0v9.017h1.88V1.88C57.988.809 57.18 0 56.108 0H2.004C.934 0 0 .808 0 1.879v38.074c0 1.07.934 2.004 2.004 2.004h21.04v6.137h-4.007v1.879h20.04v-1.88h-4.134v-6.136h2.13v2.004c0 1.07.933 2.004 2.003 2.004H56.11c1.071 0 1.88-.934 1.88-2.004v-7.014h4.132c1.07 0 1.879-.933 1.879-2.004V14.904c0-1.07-.808-1.879-1.879-1.879zM33.064 48.094h-8.14v-6.137h8.14v6.137zm19.038-33.19h10.02c.034 0 0-.034 0 0v2.13H51.976v-2.13c0-.034.09 0 .125 0zm-.125 4.008H62.12v12.149H51.977V18.912zm4.132 25.174H39.076c-.034 0-.125-.09-.125-.125v-2.004H56.11v2.004c0 .035.035.125 0 .125zm0-4.008H38.951V18.912c0-.035.091 0 .125 0h11.022v16.031c0 1.07.933 2.004 2.004 2.004h4.007v3.131zm6.012-5.01h-10.02c-.034 0-.124-.09-.124-.125V32.94H62.12v2.004c0 .035.035.125 0 .125z"/><path d="M24.047 30.059h2.004v1.879h-2.004zM28.055 30.059h2.004v1.879h-2.004zM32.063 30.059h2.003v1.879h-2.003zM5.887 8.893V5.887h3.131V4.008h-5.01v4.885zM40.078 23.922h1.879v-2.004h2.129v-1.879h-4.008zM53.104 20.039v3.883h1.878v-2.004h2.129v-1.879z"/></g></svg>