<svg xmlns="http://www.w3.org/2000/svg" width="50" height="50"><g fill="#01171A"><path d="M12.445 3.627a1.226 1.226 0 00-1.607.013L7.491 6.636v-.393a.832.832 0 10-1.664 0v1.882L4.441 9.366a.832.832 0 001.11 1.24l6.098-5.46 6.099 5.46a.832.832 0 101.11-1.24l-6.413-5.739zm4.194 8.022a.832.832 0 00-.831.832v5.822H7.49V12.48a.832.832 0 10-1.664 0v6.35a1.15 1.15 0 001.165 1.135h9.315a1.153 1.153 0 001.164-1.138v-6.347a.832.832 0 00-.832-.832zm-4.99 9.98a5.822 5.822 0 105.822 5.823 5.829 5.829 0 00-5.822-5.822zm-4.158 5.823a4.166 4.166 0 013.326-4.076v3.604L7.74 28.826a4.1 4.1 0 01-.25-1.374zm1.106 2.8l2.923-1.754 2.419 2.418a4.119 4.119 0 01-5.342-.664zm6.518-.512l-2.634-2.633v-3.73a4.151 4.151 0 012.634 6.363zm29.802-14.764v-2.847c0-.724-.587-1.311-1.311-1.312h-2.367c-.724 0-1.311.588-1.312 1.312v2.847h-1.663V9.76a1.44 1.44 0 00-1.44-1.439h-2.112a1.44 1.44 0 00-1.439 1.44v5.214H31.61V5.827c0-.919-.745-1.663-1.663-1.663h-1.664c-.918 0-1.663.744-1.663 1.663v9.149h-.832a.832.832 0 01-.832-.832v-9.98a.832.832 0 00-1.663 0v9.98a2.495 2.495 0 002.495 2.495h19.13a.832.832 0 100-1.663zm-14.97 0h-1.664V5.827h1.664v9.149zm6.653 0h-1.663v-4.99H36.6v4.99zm6.654 0h-1.663V12.48h1.663v2.495zm1.663 16.634H25.788a.832.832 0 01-.832-.832V29.46l2.74-2.738a.85.85 0 011.175 0l.975.974a2.495 2.495 0 003.528 0l3.47-3.47a.85.85 0 011.176 0l.975.976a2.5 2.5 0 003.528 0l2.982-2.982a.832.832 0 00-1.176-1.177l-2.982 2.982a.832.832 0 01-1.176 0l-.975-.975a2.555 2.555 0 00-3.528 0l-3.47 3.47a.832.832 0 01-1.176 0l-.974-.974a2.556 2.556 0 00-3.529 0l-1.563 1.562v-6.309a.832.832 0 00-1.663 0v9.98a2.495 2.495 0 002.495 2.496h19.13a.832.832 0 100-1.664z"/><path d="M49.908 38.641V4.617A4.408 4.408 0 0045.749.005H4.164A4.408 4.408 0 00.005 4.617v34.024a4.408 4.408 0 004.159 4.613H17.47v1.663h-3.327a3.327 3.327 0 00-3.327 3.327v.832c0 .46.373.832.832.832h26.615c.46 0 .832-.373.832-.832v-.832a3.327 3.327 0 00-3.327-3.327h-3.327v-1.663h13.307a4.408 4.408 0 004.159-4.613zm-14.14 7.94c.92 0 1.664.745 1.664 1.663H12.481c0-.918.745-1.663 1.663-1.663H35.77zm-16.633-1.664v-1.663h11.643v1.663H19.135zm26.614-3.326H4.164a2.755 2.755 0 01-2.495-2.95v-2.04h46.575v2.04a2.755 2.755 0 01-2.495 2.95zm2.495-36.974v30.32H1.67V4.617a2.754 2.754 0 012.495-2.948h41.585a2.754 2.754 0 012.495 2.948z"/></g></svg>