<svg xmlns="http://www.w3.org/2000/svg" width="56" height="50"><g fill="#01171A"><path d="M54.63 6.324a.926.926 0 00-.926.926V47.86l-3.917-1.047a35.623 35.623 0 00-21.083.926v-3.305a28.891 28.891 0 0117.592-.926l4.38 1.166c.08.01.16.01.24 0a.924.924 0 00.566-.184.927.927 0 00.36-.741V29.62a.926.926 0 00-1.851 0v12.963l-3.223-.861a30.78 30.78 0 00-18.064.768V3.694a28.891 28.891 0 0117.592-.926L50 3.75v22.166a.926.926 0 001.852 0V3.083a.926.926 0 00-.686-.926l-4.388-1.139a30.687 30.687 0 00-19 1.083 30.818 30.818 0 00-19-1.083L4.389 2.194a.926.926 0 00-.685.926v10.76a.926.926 0 001.852 0V3.795l3.703-.982a28.89 28.89 0 0117.593.88V42.49a30.78 30.78 0 00-18.074-.731l-3.222.824v-25a.926.926 0 00-1.852 0v26.24a.926.926 0 00.36.742.924.924 0 00.566.185c.08.009.16.009.24 0l4.39-1.195a28.891 28.891 0 0117.592.926v3.25a35.616 35.616 0 00-21.083-.926l-3.917 1.056V7.25A.926.926 0 000 7.25v41.815c0 .286.134.556.361.731.228.178.526.24.805.167l5.084-1.361a33.621 33.621 0 0121.037 1.268l.13.046c.22.088.465.088.685 0l.13-.046a33.62 33.62 0 0121.074-1.268l5.083 1.389c.08.009.16.009.24 0a.926.926 0 00.927-.926V7.25a.926.926 0 00-.926-.926z"/><path d="M48.148 7.398c0-.4-.258-.756-.639-.88L45.5 5.87a11.419 11.419 0 00-5.88-.324.926.926 0 00-.731.926v8.333a.926.926 0 00.37.713.991.991 0 00.806.186 9.486 9.486 0 014.88.259l1.99.648c.093.029.19.044.287.046a.98.98 0 00.546-.176.925.925 0 00.38-.75V7.398zm-1.852 7.056l-.777-.25a11.196 11.196 0 00-4.778-.482V7.241a9.561 9.561 0 014.185.38l1.37.444v6.389zm-22.898 8.685a24.464 24.464 0 00-13.463 0 .96.96 0 00.5 1.852 22.63 22.63 0 0112.463 0 .773.773 0 00.25 0 .934.934 0 10.25-1.852zm0 4.63a24.464 24.464 0 00-13.463 0 .96.96 0 00.5 1.851 22.63 22.63 0 0112.463 0 .773.773 0 00.25 0 .934.934 0 10.25-1.852zm0 4.629a24.464 24.464 0 00-13.463 0 .96.96 0 00.5 1.852 22.63 22.63 0 0112.463 0 .773.773 0 00.25 0 .934.934 0 10.25-1.852zM31.481 9.25h.223l3.704-.926a.952.952 0 10-.445-1.852l-3.704.926a.933.933 0 00.222 1.852zm-.925 3a.926.926 0 001.12.676L35.38 12a.936.936 0 00-.417-1.824l-3.704.926a.927.927 0 00-.703 1.148zm0 4.63a.926.926 0 001.12.676l3.704-.926a.936.936 0 00-.417-1.825l-3.704.926a.927.927 0 00-.703 1.149zm1.305 22.75a.98.98 0 00.546.175c.096.013.192.013.287 0l1.991-.648a9.579 9.579 0 014.935-.278.925.925 0 001.12-.926V29.62a.926.926 0 00-.73-.926 11.412 11.412 0 00-5.88.306l-2.01.648a.926.926 0 00-.639.898v8.333c0 .297.14.575.38.75zm1.472-8.408l1.37-.444a9.568 9.568 0 014.186-.38v6.481a11.303 11.303 0 00-4.778.482l-.778.25v-6.389zm-1.852-9.685c.14.49.649.775 1.14.639a22.63 22.63 0 0112.462 0c.093.03.19.043.287.037a.934.934 0 10.25-1.852 24.464 24.464 0 00-13.463 0 .925.925 0 00-.676 1.176zm13.89 5.305a.934.934 0 10.25-1.851 24.464 24.464 0 00-13.464 0 .96.96 0 00.5 1.851 22.63 22.63 0 0112.463 0 .773.773 0 00.25 0zm-2.075 4.63l3.704.926a.926.926 0 001.148-.704.926.926 0 00-.703-1.148l-3.704-.926a.952.952 0 10-.445 1.852zM23.148 12.028a.926.926 0 00.926-.926V8.324a.926.926 0 00-.676-.926 24.464 24.464 0 00-13.463 0 .926.926 0 00-.676.926v11.111a.926.926 0 001.176.889 22.63 22.63 0 0112.463 0c.081.026.165.038.25.037a.926.926 0 00.926-.926v-4.63a.926.926 0 00-1.852 0v3.435a24.476 24.476 0 00-11.11 0V9.037a22.57 22.57 0 0111.11 0v2.065c0 .511.415.926.926.926z"/></g></svg>