<svg xmlns="http://www.w3.org/2000/svg" width="512" height="512" viewBox="0 0 512 512">
  <g fill="none">
    <circle cx="255.999" cy="255.999" r="248.499" fill="#FFE17D"/>
    <path fill="#FFD164" d="M292.073,468.426 C154.831,468.426 43.574,357.169 43.574,219.927 C43.574,160.494 64.465,105.957 99.269,63.195 C43.284,108.76 7.501,178.19 7.501,256 C7.501,393.241 118.757,504.499 256,504.499 C333.81,504.499 403.241,468.715 448.805,412.731 C406.043,447.535 351.505,468.426 292.073,468.426 Z"/>
    <g fill="#F25C69" fill-opacity=".183" transform="translate(55 295)">
      <path d="M104.807 41.16C76.499 41.16 51.656 26.465 37.399 4.306 35.064.677 30.176-.329 26.538 1.993 10.237 12.397-.345 30.929.664 51.936 2.041 80.612 25.313 103.871 53.99 105.226 86.217 106.748 112.823 81.07 112.823 49.177 112.823 49.071 112.823 48.964 112.823 48.858 112.797 44.542 109.202 41.155 104.886 41.161 104.86 41.16 104.833 41.16 104.807 41.16zM375.462 1.994C371.824-.328 366.936.678 364.601 4.307 350.344 26.466 325.501 41.161 297.193 41.161 297.167 41.161 297.14 41.161 297.114 41.161 292.798 41.155 289.203 44.542 289.177 48.858 289.177 48.964 289.177 49.07 289.177 49.177 289.177 81.069 315.784 106.747 348.01 105.226 376.687 103.872 399.959 80.613 401.336 51.936 402.345 30.929 391.762 12.398 375.462 1.994z"/>
    </g>
    <g fill="#EDFCFF" transform="translate(103 199)">
      <circle cx="56.809" cy="56.999" r="56.11"/>
      <circle cx="249.188" cy="56.999" r="56.11"/>
    </g>
    <path fill="#F25C69" fill-opacity=".18" d="M120.448,399.542 C96.031,376.205 76.321,347.989 63,316.395 C58.314,324.592 55.598,334.059 55.598,344.177 C55.598,375.167 80.721,400.29 111.711,400.29 C114.691,400.289 117.594,399.989 120.448,399.542 Z"/>
    <path fill="#01171A" d="M15.108 248.713C16.941 187.109 41.965 129.171 85.567 85.568 129.17 41.965 187.109 16.942 248.712 15.109 310.045 13.277 369.113 34.539 415.039 74.961 418.148 77.698 422.888 77.397 425.624 74.286 428.361 71.177 428.059 66.438 424.949 63.701 376.159 20.757 313.409-1.817 248.267.115 182.827 2.063 121.279 28.644 74.962 74.962 28.644 121.279 2.063 182.826.115 248.266-1.824 313.413 20.757 376.16 63.7 424.95 65.182 426.635 67.252 427.495 69.333 427.495 71.093 427.495 72.86 426.879 74.285 425.625 77.394 422.888 77.697 418.149 74.96 415.04 34.538 369.114 13.283 310.045 15.108 248.713zM448.3 87.05C445.564 83.941 440.824 83.638 437.715 86.375 434.606 89.112 434.303 93.851 437.04 96.96 477.461 142.886 498.717 201.954 496.892 263.287 495.059 324.89 470.036 382.829 426.433 426.432 382.83 470.035 324.892 495.058 263.288 496.891 201.95 498.721 142.887 477.461 96.961 437.04 93.853 434.304 89.113 434.605 86.376 437.715 83.639 440.824 83.941 445.563 87.051 448.3 133.905 489.539 193.63 512 255.992 512 258.568 512 261.15 511.961 263.734 511.884 329.175 509.936 390.722 483.355 437.039 437.038 483.357 390.721 509.938 329.173 511.886 263.733 513.823 198.587 491.242 135.84 448.3 87.05z"/>
    <path fill="#01171A" d="M111.672 167.326C112.948 167.326 114.241 167 115.424 166.314 115.706 166.15 144.119 149.888 185.033 143.174 189.121 142.503 191.89 138.646 191.22 134.559 190.549 130.471 186.691 127.705 182.604 128.372 139.007 135.527 109.155 152.611 107.906 153.334 104.322 155.41 103.099 159.999 105.176 163.583 106.566 165.984 109.084 167.326 111.672 167.326zM396.524 166.317C397.706 167.001 398.996 167.325 400.27 167.325 402.858 167.325 405.376 165.984 406.767 163.583 408.843 159.999 407.621 155.41 404.037 153.334 402.787 152.61 372.936 135.526 329.339 128.372 325.248 127.704 321.394 130.471 320.723 134.558 320.052 138.646 322.822 142.503 326.909 143.174 367.651 149.861 396.24 166.154 396.524 166.317zM218.804 383.19C230.47 378.264 242.975 375.767 255.971 375.767 268.963 375.767 281.468 378.266 293.139 383.193 294.092 383.595 295.08 383.786 296.053 383.786 298.977 383.786 301.757 382.065 302.966 379.202 304.577 375.386 302.79 370.986 298.974 369.375 285.446 363.663 270.978 360.767 255.971 360.767 240.959 360.767 226.491 363.662 212.969 369.372 209.153 370.983 207.366 375.383 208.977 379.199 210.588 383.014 214.985 384.801 218.804 383.19zM159.767 319.648C194.847 319.648 223.387 291.108 223.387 256.029 223.387 220.949 194.847 192.409 159.767 192.409 124.687 192.409 96.147 220.949 96.147 256.029 96.147 291.108 124.688 319.648 159.767 319.648zM159.767 207.409C186.576 207.409 208.387 229.22 208.387 256.029 208.387 282.838 186.576 304.648 159.767 304.648 132.958 304.648 111.147 282.837 111.147 256.029 111.148 229.22 132.958 207.409 159.767 207.409zM352.175 319.648C387.255 319.648 415.795 291.108 415.795 256.029 415.795 220.949 387.255 192.409 352.175 192.409 317.095 192.409 288.556 220.949 288.556 256.029 288.556 291.108 317.095 319.648 352.175 319.648zM352.175 207.409C378.984 207.409 400.795 229.22 400.795 256.029 400.795 282.838 378.984 304.648 352.175 304.648 325.366 304.648 303.556 282.837 303.556 256.029 303.556 229.22 325.366 207.409 352.175 207.409z"/>
    <path fill="#01171A" d="M159.767 267.537C163.909 267.537 167.267 264.179 167.267 260.037L167.267 252.02C167.267 247.878 163.909 244.52 159.767 244.52 155.625 244.52 152.267 247.878 152.267 252.02L152.267 260.037C152.267 264.179 155.625 267.537 159.767 267.537zM352.175 267.537C356.317 267.537 359.675 264.179 359.675 260.037L359.675 252.02C359.675 247.878 356.317 244.52 352.175 244.52 348.033 244.52 344.675 247.878 344.675 252.02L344.675 260.037C344.675 264.179 348.033 267.537 352.175 267.537z"/>
  </g>
</svg>
